<?xml version="1.0" encoding="utf-8"?>
<!-- Generator: Adobe Illustrator 24.2.3, SVG Export Plug-In . SVG Version: 6.00 Build 0)  -->
<svg version="1.1" id="Ebene_1" xmlns="http://www.w3.org/2000/svg" xmlns:xlink="http://www.w3.org/1999/xlink" x="0px" y="0px"
	 viewBox="0 0 16 16" style="enable-background:new 0 0 16 16;" xml:space="preserve">
<style type="text/css">
	.st0{fill:#777777;}
</style>
<path class="st0" d="M14.9,0.4h-3c-0.4,0-0.8,0.3-0.8,0.8s0.3,0.7,0.8,0.7h2.2v2.2c0,0.4,0.3,0.8,0.8,0.8s0.8-0.3,0.8-0.8v-3
	C15.6,0.7,15.2,0.4,14.9,0.4z"/>
<path class="st0" d="M10.6,7.1H8.9V5.4c0-0.4-0.3-0.8-0.8-0.8S7.3,5,7.3,5.4v1.8H5.6C5.2,7.2,4.8,7.5,4.8,8s0.3,0.8,0.8,0.8h1.8v1.8
	c0,0.4,0.3,0.8,0.8,0.8S9,11.1,9,10.6v-2h1.8c0.4,0,0.8-0.3,0.8-0.8S10.9,7.1,10.6,7.1z"/>
<path class="st0" d="M4.3,13.9H2v-2.2c0-0.4-0.3-0.8-0.8-0.8s-0.7,0.3-0.7,0.7v3c0,0.4,0.3,0.8,0.8,0.8h3c0.4,0,0.8-0.3,0.8-0.8
	S4.8,13.9,4.3,13.9z"/>
</svg>
