<?xml version="1.0" encoding="utf-8"?>
<!-- Generator: Adobe Illustrator 24.0.0, SVG Export Plug-In . SVG Version: 6.00 Build 0)  -->
<svg version="1.1" id="Ebene_1" xmlns="http://www.w3.org/2000/svg" xmlns:xlink="http://www.w3.org/1999/xlink" x="0px" y="0px"
	 viewBox="0 0 100 98" style="enable-background:new 0 0 100 98;" xml:space="preserve">
<style type="text/css">
	.st0{fill:none;stroke:#000000;stroke-width:4.6851;stroke-linecap:round;stroke-linejoin:round;stroke-miterlimit:10;}
	.st1{fill:none;stroke:#000000;stroke-width:4.5;stroke-linecap:round;stroke-linejoin:round;stroke-miterlimit:10;}
</style>
<path class="st0" d="M60.6,18.4H39.2c-2.3,0-4.3-1.9-4.3-4.3v0c0-2.3,1.9-4.3,4.3-4.3h21.4c2.3,0,4.3,1.9,4.3,4.3v0
	C64.8,16.5,62.9,18.4,60.6,18.4z"/>
<path class="st1" d="M34.9,14.1l-7.6,0c-2.2,0-3.9,1.7-3.9,3.9v66.2c0,2.2,1.7,3.9,3.9,3.9H73c2.2,0,3.9-1.7,3.9-3.9V18
	c0-2.2-1.7-3.9-3.9-3.9h-8.1"/>
<line class="st1" x1="33" y1="35.1" x2="66.7" y2="35.1"/>
<line class="st1" x1="33" y1="48.1" x2="66.7" y2="48.1"/>
<line class="st1" x1="33" y1="60.1" x2="66.7" y2="60.1"/>
</svg>
