<?xml version="1.0" encoding="utf-8"?>
<!-- Generator: Adobe Illustrator 24.2.3, SVG Export Plug-In . SVG Version: 6.00 Build 0)  -->
<svg version="1.1" id="donate" xmlns="http://www.w3.org/2000/svg" xmlns:xlink="http://www.w3.org/1999/xlink" x="0px" y="0px"
	 viewBox="0 0 47 47" style="enable-background:new 0 0 47 47;" xml:space="preserve">
<style type="text/css">
	.st0{fill:none;stroke:#000000;stroke-width:1.5;stroke-linecap:round;stroke-linejoin:round;}
</style>
<path id="hand2" class="st0" d="M2.6,35.3c3.7-3.2,5.7-9.4,10.1-10.7c4.4-1.4,6.6,1.4,9.9,1.4s8.3,0,9.9,0c0.8,0,2.4,0.9,2.4,2.2
	c0,1.3-1.4,2.6-2.6,2.6c-2.5,0-10.1-0.2-11.4-0.2c-0.9,0-1.4,0.3-1.7,0.9"/>
<path id="hand1" class="st0" d="M8.8,41.9c1.2-1.4,3.6-3.6,7.3-6.6c9,0.8,14.4,0.8,15.9,0c2.4-1.2,9.6-9.4,11.1-11.1
	c1.4-1.7,1.1-3.2,0.3-3.9c-0.8-0.8-2.5-0.6-3.8,0.5c-0.8,0.7-2.7,2.7-5.5,5.7"/>
<path id="heart" class="st0" d="M26.6,20.5c2.1-1.9,6.5-6.2,8.2-8.2s1.7-4.9,0-6.5C33,4.2,28.6,4,26.6,6.4c-2.1-2.2-5.8-2.7-7.9-0.6
	s-1.5,4.8,0,6.5C20.1,13.9,23.9,17.8,26.6,20.5z"/>
</svg>
