<?xml version="1.0" encoding="utf-8"?>
<!-- Generator: Adobe Illustrator 24.0.0, SVG Export Plug-In . SVG Version: 6.00 Build 0)  -->
<svg version="1.1" id="Ebene_1" xmlns="http://www.w3.org/2000/svg" xmlns:xlink="http://www.w3.org/1999/xlink" x="0px" y="0px"
	 viewBox="0 0 91 91" style="enable-background:new 0 0 91 91;" xml:space="preserve">
<style type="text/css">
	.st0{fill:#020203;}
	.st1{fill:none;stroke:#020203;stroke-width:2.7908;stroke-miterlimit:10;}
	.st2{fill:none;stroke:#020203;stroke-width:2.8873;stroke-miterlimit:10;}
</style>
<path class="st0" d="M38.9,43.9c0,2.2-0.9,4.8-2.4,6.4c-0.5,0.5-0.5,1.4,0,1.9c0.3,0.3,0.6,0.4,0.9,0.4c0.3,0,0.7-0.1,0.9-0.4
	c1.6-1.6,2.6-3.6,3-5.7L38.9,43.9z"/>
<path class="st0" d="M61.7,56.3l11.7-11.7c1.9-1.9,1.9-5.1,0-7c-0.6-0.6-1.3-1-2.1-1.2l2.2-2.2c0,0,0.1-0.1,0.1-0.1
	c0.9-0.9,1.4-2.1,1.4-3.4c0-1.3-0.5-2.6-1.5-3.5c-0.6-0.6-1.4-1.1-2.3-1.3c0.4-0.7,0.7-1.6,0.7-2.5c0-1.3-0.5-2.6-1.5-3.5
	c-0.9-0.9-2.2-1.5-3.5-1.5h0c-0.9,0-1.7,0.2-2.4,0.7c-0.2-0.8-0.6-1.6-1.3-2.3c-0.9-0.9-2.2-1.5-3.5-1.5c0,0,0,0,0,0
	c-1.3,0-2.6,0.5-3.5,1.4L46.1,27.1c0-0.5-0.1-1-0.2-1.4c-0.4-1.6-1.5-2.8-2.8-3.2c-0.8-0.2-2.3-0.3-4,1.4l-4.9,4.9l1.9,1.8l4.8-4.8
	c0.5-0.5,1.1-0.8,1.4-0.7c0.4,0.1,0.8,0.6,1,1.3c0.4,1.3,0.1,3.4-1.8,5.3l-2.1,2.1l1.9,1.9l16.8-16.8c0.4-0.4,1-0.7,1.6-0.7h0
	c0.6,0,1.2,0.2,1.6,0.7c0.4,0.4,0.7,1,0.7,1.6c0,0.6-0.2,1.2-0.7,1.6l-5.7,5.7l-7.8,7.8c-0.5,0.5-0.5,1.4,0,1.9
	c0.3,0.3,0.6,0.4,0.9,0.4c0.3,0,0.7-0.1,0.9-0.4l2.1-2.1c0,0,0,0,0,0l5.7-5.7l5.7-5.7c0,0,0,0,0,0l2.1-2.1c0.4-0.4,1-0.7,1.6-0.7
	c0,0,0,0,0,0c0.6,0,1.2,0.2,1.6,0.7c0.4,0.4,0.7,1,0.7,1.6c0,0.6-0.2,1.2-0.7,1.6l-8.1,8.1L53,40.7c-0.5,0.5-0.5,1.4,0,1.9
	c0.5,0.5,1.4,0.5,1.9,0l1-1c0,0,0,0,0,0l6.4-6.4l6-6c0.9-0.9,2.4-0.9,3.3,0c0.4,0.4,0.7,1,0.7,1.6c0,0.6-0.2,1.2-0.7,1.6
	c0,0,0,0-0.1,0.1l-5.2,5.2l-9,9c-0.5,0.5-0.5,1.4,0,1.9c0.5,0.5,1.4,0.5,1.9,0l0.8-0.8c0,0,0,0,0,0l8.2-8.2c0.4-0.4,1-0.7,1.6-0.7
	c0.6,0,1.2,0.2,1.6,0.7c0.9,0.9,0.9,2.4,0,3.3L59.9,54.4L61.7,56.3z"/>
<path class="st0" d="M54.8,59.5l-1.4,1.4c-3.4,2.9-7.8,4.2-12.1,3.8c-0.2-0.1-0.5-0.1-0.7-0.1c-1.4-0.2-2.8-0.5-4.1-1.1
	c-0.7-0.3-1.4,0-1.7,0.7c-0.3,0.7,0,1.4,0.7,1.7c0.8,0.3,1.7,0.6,2.6,0.8L29.8,75c-0.5,0.5-0.5,1.4,0,1.9c0.3,0.3,0.6,0.4,0.9,0.4
	c0.3,0,0.7-0.1,0.9-0.4l9.5-9.5c0.5,0,1,0.1,1.5,0.1c4.5,0,8.9-1.6,12.5-4.6l1.5-1.5L54.8,59.5z"/>
<path class="st0" d="M28.7,34.2c-4.1,4.1-6,9.9-5.3,15.7l-9.4,9.4c-0.5,0.5-0.5,1.4,0,1.9c0.3,0.3,0.6,0.4,0.9,0.4
	c0.3,0,0.7-0.1,0.9-0.4l8.1-8.1c0.2,0.8,0.5,1.6,0.8,2.4c0.2,0.5,0.7,0.8,1.2,0.8c0.2,0,0.3,0,0.5-0.1c0.7-0.3,1-1.1,0.7-1.7
	c-2.7-6.4-1.4-13.6,3.3-18.3L28.7,34.2z"/>
<circle class="st1" cx="45.5" cy="45" r="39.1"/>
<line class="st2" x1="18.4" y1="17.9" x2="73" y2="72.5"/>
</svg>
