<svg id="Design" xmlns="http://www.w3.org/2000/svg" viewBox="0 0 57 57"><defs><style>.cls-1{fill-rule:evenodd;}</style></defs><title>Zeichenfläche 6 Kopie 5</title><path class="cls-1" d="M36.09,1.12H21.16a20,20,0,0,0-20,20V36.09a20,20,0,0,0,20,20H36.09a20,20,0,0,0,20-20V21.16A20,20,0,0,0,36.09,1.12Zm-1.67,35.4a6,6,0,0,1,1.69,4.64c0,3.36,0,6.05,0,6.9,0,.66-12.48.66-12.48,0s0-2.57,0-4.67c-6.3,1.16-7.93-1.54-8.43-3-.28-.72-1.51-2.95-2.57-3.54-.88-.47-2.13-1.63,0-1.66s3.38,1.82,3.85,2.57c2.26,3.79,5.86,2.72,7.31,2.07a5.26,5.26,0,0,1,1.6-3.36c-5.58-.62-11.41-2.79-11.41-12.38a9.76,9.76,0,0,1,2.57-6.74,8.94,8.94,0,0,1,.25-6.64s2.1-.66,6.89,2.57a23.55,23.55,0,0,1,12.54,0c4.8-3.26,6.9-2.57,6.9-2.57a9,9,0,0,1,.25,6.64,9.7,9.7,0,0,1,2.57,6.74C45.86,33.76,40,35.9,34.42,36.52Z"/></svg>