<?xml version="1.0" encoding="utf-8"?>
<!-- Generator: Adobe Illustrator 24.2.3, SVG Export Plug-In . SVG Version: 6.00 Build 0)  -->
<svg version="1.1" id="hero-outline" xmlns="http://www.w3.org/2000/svg" xmlns:xlink="http://www.w3.org/1999/xlink" x="0px"
	 y="0px" viewBox="0 0 47 47" style="enable-background:new 0 0 47 47;" xml:space="preserve">
<style type="text/css">
	.st0{fill:none;stroke:#000000;stroke-width:1.5;}
</style>
<path id="leg" class="st0" d="M21.6,33.4l-1.7-2.7l-2.4,3l-6.5,5.3c-1.2,1-1.4,2.8-0.5,4c0.9,1.1,2.4,1.4,3.5,0.7
	c0.1,0,1.5-1.4,4.2-3.9C18.9,38.7,20,36.6,21.6,33.4z"/>
<path id="body" class="st0" d="M36.9,14.4c-0.5,0.2-1.1,0.2-1.6,0.2c-2.9-0.3-4.7-0.5-6-0.6c-2.6-0.3-4.7-1.6-8.3,0.3
	C17.7,15.9,8.2,24.8,3.8,26.7c-0.7,0.3-1,1.1-0.6,1.8c1.2,2.7,2.4,5.1,3,6.9c0.3,0.9,1.4,1.2,2,0.6c3.5-3.5,8.5-12.4,13.9-16.7
	c-1.4,3.1-2.8,6.4-2.8,6.4c-0.5,1.2-0.5,2.6,0.2,3.7l2.2,3.9l-2.8,5.4l-0.5,0.9l-1.1,2.1c-0.7,1.4-0.3,3.1,1.1,3.8
	c0.8,0.5,1.8,0.4,2.6,0c0.4-0.3,0.8-0.6,1-1.1l4.8-9.3c0.6-1.2,0.6-2.8-0.1-3.9L26,29.9c0.1-0.2,1.7-3.8,2.3-4.8
	c0.7-1.2,1.8-1.6,2.2-2.5c0.3-0.7,0.7-1.9,1-3.6c0.8,0.1,2.3,0.2,3.3,0.3c1.2,0.1,2.3,0,3.3-0.3l4.3-1.3c0.2-0.1,0.3-0.1,0.5-0.2
	c0.9-0.5,1.4-1.6,1-2.7c-0.3-1.3-1.5-2-2.7-1.7L36.9,14.4z"/>
<path id="head" class="st0" d="M26,6c0-2.8,2.1-5,4.5-5C33,1,35,3.3,35,6c0,2.8-2.1,5-4.5,5C28,11,26,8.7,26,6"/>
</svg>
