<?xml version="1.0" encoding="utf-8"?>
<!-- Generator: Adobe Illustrator 24.0.0, SVG Export Plug-In . SVG Version: 6.00 Build 0)  -->
<svg version="1.1" id="Ebene_1" xmlns="http://www.w3.org/2000/svg" xmlns:xlink="http://www.w3.org/1999/xlink" x="0px" y="0px"
	 viewBox="0 0 100 102.2" style="enable-background:new 0 0 100 102.2;" xml:space="preserve">
<g id="Ebene_2_1_">
</g>
<g id="Ebene_1_1_">
	<g>
		<circle cx="52.8" cy="90" r="7.5"/>
		<path d="M95.5,96l-0.4-1.6c-0.3-1.2-1.3-2.1-2.4-2.4l-4.6-1.2V57.2c0-4.1-1.8-8.1-4.9-10.9l-12-10.7c-2.7-2.3-6.5-2.6-9.5-0.6l0,0
			c1.4,0.9,2.4,2.2,3.1,3.7c1.1-0.6,2.3-0.4,3.3,0.4l12,10.7c2.1,1.9,3.3,4.5,3.3,7.3v33.5L78.8,92c-1.2,0.3-2.1,1.2-2.4,2.4
			L75.9,96c-0.1,0.3,0,0.7,0.2,1s0.6,0.4,0.9,0.4h17.4c0.3,0,0.7-0.2,0.9-0.4C95.5,96.7,95.6,96.4,95.5,96z"/>
		<path d="M73.4,55.6c-0.1-2.4-1.1-4.7-2.9-6.3l-5.3-4.8c-0.5,1.6-1.4,3-2.6,4.1l4.8,4.2c0.8,0.7,1.3,1.8,1.3,2.9
			c0,1.1-0.4,2.2-1.2,2.9L63,63.1c-1.4-0.9-2.8-1.7-4.4-2.3l-3.1-1.1c-2-0.7-4.2-0.5-6,0.7c-1.7,1.2-2.8,3.2-2.8,5.4v14.8
			c1.7-1.2,3.8-1.8,6.1-1.8c6.1,0,11.1,5,11.1,11.1c0,2.2-0.7,4.3-1.8,6.1h5.6c3.1,0,5.6-2.5,5.6-5.5V82c0-6-2.4-11.7-6.5-15.8
			l4.2-4.1C72.5,60.4,73.4,58,73.4,55.6z M64.6,76c-0.3,0.2-0.6,0.2-0.9,0.2c-0.6,0-1.2-0.3-1.5-0.9c-1.5-2.7-4-4.8-6.9-5.8
			l-1.8-0.7c-0.9-0.3-1.4-1.4-1-2.3c0.3-0.9,1.4-1.4,2.3-1l1.8,0.7c3.6,1.4,6.7,4,8.7,7.4C65.7,74.4,65.5,75.5,64.6,76z"/>
		<circle cx="28.3" cy="12.7" r="10.2"/>
		<path d="M57.2,46.7c2.5-0.1,4.4-2.2,4.2-4.7c-0.1-2.5-2.3-4.3-4.7-4.3c0,0-4.7,0.2-8.4-1.3c-0.4-0.2-1.3-1.3-2.1-2.1
			c-2.9-3.4-7.2-8.6-17.9-8.6C8,25.7,4.6,52.6,4.5,53.7c-0.3,2.5,1.5,4.7,3.9,5c0.2,0,0.4,0,0.5,0c2.2,0,4.2-1.7,4.4-3.9
			c0-0.1,1.1-8.5,5.3-14.4l-0.1,17.4l-6.6,33.7c-0.5,2.7,1.2,5.4,4,5.9c0.3,0.1,0.7,0.1,1,0.1c2.3,0,4.4-1.7,4.9-4l6.4-32.6
			l0.5,31.7c0,2.7,2.3,4.9,5,4.9h0.1c2.8,0,5-2.3,4.9-5.1l-0.6-34.1L38,38.5c0.5,0.5,0.9,1,1.4,1.6c1.4,1.7,3.1,3.6,5.5,4.6
			C50.5,47,56.5,46.7,57.2,46.7z"/>
	</g>
</g>
</svg>
