<?xml version="1.0" encoding="utf-8"?>
<!-- Generator: Adobe Illustrator 24.0.0, SVG Export Plug-In . SVG Version: 6.00 Build 0)  -->
<svg version="1.1" id="Ebene_1" xmlns="http://www.w3.org/2000/svg" xmlns:xlink="http://www.w3.org/1999/xlink" x="0px" y="0px"
	 viewBox="0 0 100 103.2" style="enable-background:new 0 0 100 103.2;" xml:space="preserve">
<g id="Ebene_2_1_">
</g>
<g id="Ebene_1_1_">
	<g>
		<path d="M95.8,47.8l-31-4.7c0,0.1,0,0.3,0,0.4L64,49.4c-0.1,0.6-0.4,1.2-0.8,1.6L62,52c-0.4,0.3-0.8,0.6-1.2,0.9l1.3,2l1.3-1.9
			l1.3,1.9L66,53l1.3,1.9l1.3-1.9l1.3,1.9l1.3-1.9l1.3,1.9l1.3-1.9l1.3,1.9l1.3-1.9l1.3,1.9L79,53l1.3,1.9l1.3-1.9l1.3,1.9l1.3-1.9
			l1.3,1.9l1.3-1.9l1.3,1.9l1.3-1.9l1.3,1.9L92,53l1.3,1.9l1.3-1.9l1.3,1.9l1.1-1.7c0.1-0.2,0.2-0.3,0.2-0.5v-2.9
			C97.5,48.8,96.8,47.9,95.8,47.8z"/>
		<path d="M62,49.9c0.2-0.2,0.3-0.4,0.4-0.7l0.8-5.9c0.1-0.7-0.4-1.3-1-1.4c0,0-8.5-1.3-9.1-1.3c-0.5,0-7.8,0-7.8,0
			c-2.4-3.1-6.3-7.9-8-9.3c-0.4-0.4-0.9-0.7-1.4-0.9l-8.6-3.6c-2.2-0.9-4.6-0.8-6.7,0.2s-3.7,2.9-4.3,5.1L9.9,52.3
			c-0.7,2.3-0.1,4.9,1.7,6.5l13.9,12.8L27.3,90c0.3,3.2,3,5.7,6.2,5.7c0.2,0,0.4,0,0.6,0c3.4-0.3,6-3.4,5.6-6.8l-2-20.8
			c-0.1-1.5-0.9-3-2-4l-8-7.3l5.5-14.2c1.6,1.9,3.6,4.4,5.3,6.6c1,1.3,2.5,2,4.1,2h9l5.9,0.9c1.2,0.2,2.4-0.2,3.2-1.1L62,49.9z
			 M60,48.3C60,48.4,60,48.4,60,48.3L59.2,49c-0.3,0.3-0.6,0.4-1,0.4c-0.1,0-0.1,0-0.2,0l-1.1-0.2c0.8-0.9,1.3-2.1,1.3-3.5
			c0-0.7-0.2-1.4-0.4-2.1l2.5,0.4c0.1,0,0.2,0.2,0.2,0.3L60,48.3z"/>
		<path d="M88.8,64.9c-0.4-0.2-0.8-0.2-1.1,0.2l-9.8,14l-9.8-14c-0.2-0.4-0.7-0.4-1.1-0.2l-2.1,1.5c-0.4,0.2-0.4,0.7-0.2,1.1
			l10.7,15.2l-8,11.5c-0.4,0.6,0,1.4,0.7,1.4h3c0.3,0,0.5-0.1,0.7-0.4l6.2-8.8l6.2,8.8c0.2,0.2,0.4,0.4,0.7,0.4h3
			c0.7,0,1.1-0.8,0.7-1.4l-8-11.5l10.7-15.2c0.2-0.4,0.2-0.8-0.2-1.1L88.8,64.9z"/>
		<circle cx="77.9" cy="63.4" r="7.2"/>
		<path d="M12,66.6l-1.5,6.7L3.3,86.4c-1.7,3.1-0.5,6.8,2.5,8.5c1,0.5,2,0.8,3,0.8c2.2,0,4.4-1.2,5.5-3.3l6.6-12l-0.6-6.2L12,66.6z"
			/>
		<ellipse cx="35.3" cy="15.4" rx="11" ry="11"/>
	</g>
</g>
</svg>
