<?xml version="1.0" encoding="utf-8"?>
<!-- Generator: Adobe Illustrator 24.0.0, SVG Export Plug-In . SVG Version: 6.00 Build 0)  -->
<svg version="1.1" id="Ebene_1" xmlns="http://www.w3.org/2000/svg" xmlns:xlink="http://www.w3.org/1999/xlink" x="0px" y="0px"
	 viewBox="0 0 100 102" style="enable-background:new 0 0 100 102;" xml:space="preserve">
<g id="Ebene_2_1_">
</g>
<g id="Ebene_1_1_">
	<g>
		<path d="M55.8,65.6l-2-3.3c-0.8-1.4-2.6-1.8-3.9-1c-1.4,0.8-1.8,2.6-1,3.9l1.8,2.9c-0.1,0.2-0.2,0.3-0.2,0.6L45.9,88
			c-0.4,1.8,0.6,3.6,2.4,4.2c1.9,0.6,3.8-0.5,4.4-2.3L56.1,79l15.7,2l-0.2,7.7c-0.1,1.8,1.3,3.5,3.2,3.6c2,0.2,3.7-1.2,3.9-3.2
			l1.6-16l-8.5-7.6L55.8,65.6L55.8,65.6z"/>
		<path d="M97.1,65.1l-6.8-8l0.3-5.3c0.1-1.2-1.4-1.9-2.3-1L75.2,64.1l6.6,6l3.2-3.2l3.5,3.5c1.5,1.5,3.9,1.5,5.4,0l3.2-3.2
			C97.6,66.6,97.6,65.7,97.1,65.1z"/>
		<path d="M71,63.9c0.2,0.2,0.6,0.4,0.9,0.4c0.4,0,0.7-0.2,1-0.5c0.5-0.5,0.5-1.4-0.1-1.9l-14.5-13c-0.6,0.7-1.4,1.2-2.2,1.6
			L71,63.9z"/>
		<path d="M57,42.9c-0.3-2.1-2.3-3.5-4.4-3.5h-8L37.9,32c-1.9-2.2-4.7-3.4-7.6-3.4h-7.6c-3.4,0-6.6,1.7-8.5,4.5l-10.9,16
			c-1,1.5-1.2,3.4-0.2,4.9c0.9,1.3,2.2,1.9,3.5,1.9s2.7-0.6,3.5-1.8l5.6-8.3v42.3c0,2.1,1.5,4,3.5,4.4c2.6,0.4,4.9-1.6,4.9-4.2V62.9
			c0-0.5,0.4-0.8,0.8-0.8h2.4c0.5,0,0.8,0.4,0.8,0.8V88c0,2.1,1.5,4,3.5,4.4c2.6,0.4,4.9-1.6,4.9-4.2v-45l2.9,3.2
			c0.8,0.9,1.9,1.4,3.1,1.4h10.1C55.4,47.8,57.4,45.5,57,42.9z"/>
		<circle cx="26.2" cy="16.9" r="9.4"/>
	</g>
</g>
</svg>
