<?xml version="1.0" encoding="utf-8"?>
<!-- Generator: Adobe Illustrator 24.0.0, SVG Export Plug-In . SVG Version: 6.00 Build 0)  -->
<svg version="1.1" id="Ebene_1" xmlns="http://www.w3.org/2000/svg" xmlns:xlink="http://www.w3.org/1999/xlink" x="0px" y="0px"
	 viewBox="0 0 100 106.8" style="enable-background:new 0 0 100 106.8;" xml:space="preserve">
<g id="Ebene_2_1_">
</g>
<g id="Ebene_1_1_">
	<g>
		<path d="M83.6,53.6l-1.1,2.5c-0.7,1.7,0.1,3.6,1.7,4.3c0.4,0.2,0.9,0.3,1.3,0.3c1.3,0,2.5-0.7,3-2l1.1-2.5c1.7-3.9,1-8.4-1.6-11.7
			c-1.3-1.6-1.5-3.9-0.4-5.7l1.3-2.1c0.9-1.5,0.5-3.6-1.1-4.5c-1.5-1-3.6-0.5-4.5,1.1L82,35.4c-2.6,4.1-2.2,9.5,0.8,13.3
			C84.1,50,84.4,51.9,83.6,53.6z"/>
		<path d="M68.6,53.6l-1.1,2.5c-0.7,1.7,0.1,3.6,1.7,4.3c0.4,0.2,0.9,0.3,1.3,0.3c1.3,0,2.5-0.7,3-2l1.1-2.5c1.7-3.9,1-8.4-1.6-11.7
			c-1.3-1.6-1.5-3.9-0.4-5.7l1.3-2.1c0.9-1.5,0.5-3.6-1.1-4.5c-1.5-1-3.6-0.5-4.5,1.1L67,35.4c-2.6,4.1-2.2,9.5,0.8,13.3
			C69,50,69.3,51.9,68.6,53.6z"/>
		<path d="M53.5,53.6l-1.1,2.5c-0.7,1.7,0.1,3.6,1.7,4.3c0.4,0.2,0.9,0.3,1.3,0.3c1.3,0,2.5-0.7,3-2l1.1-2.5c1.7-3.9,1-8.4-1.6-11.7
			c-1.3-1.6-1.5-3.9-0.4-5.7l1.3-2.1c0.9-1.5,0.5-3.6-1.1-4.5c-1.5-1-3.6-0.5-4.5,1.1l-1.2,2c-2.6,4.1-2.2,9.5,0.8,13.3
			C54,50,54.3,51.9,53.5,53.6z"/>
		<ellipse cx="31.1" cy="29.2" rx="12" ry="12"/>
		<path d="M93.6,74.9c-2.4,0-3.3-0.7-5-1.9c-2-1.4-4.7-3.4-9.6-3.4s-7.6,1.9-9.6,3.4c-1.6,1.2-2.6,1.9-5,1.9s-3.3-0.7-5-1.9
			c-2-1.4-4.7-3.4-9.6-3.4s-7.6,1.9-9.6,3.4c-0.5,0.4-1,0.7-1.5,1l-0.4-18.6c-0.1-4.9-3.5-9-8.3-10.1c-1.8-0.4-3.2-0.7-3.2-0.7
			c-2.5-0.5-5-0.1-7.2,1.3c-2.1,1.4-4.1,4.8-4.2,9.1c-0.1,2.7-0.4,10-0.6,15.7c-1.5,0.7-2.7,1.5-3.7,2.2c-1.6,1.2-2.6,1.9-5,1.9
			c-2.2,0-3.9,1.8-3.9,3.9c0,2.2,1.8,3.9,3.9,3.9c4.9,0,7.6-1.9,9.6-3.4c1.6-1.2,2.6-1.9,5-1.9s3.3,0.7,5,1.9c2,1.4,4.7,3.4,9.6,3.4
			s7.6-1.9,9.6-3.4c1.6-1.2,2.6-1.9,5-1.9s3.3,0.7,5,1.9c2,1.4,4.7,3.4,9.6,3.4s7.6-1.9,9.6-3.4c1.6-1.2,2.6-1.9,5-1.9
			s3.3,0.7,5,1.9c2,1.4,4.7,3.4,9.6,3.4c2.2,0,3.9-1.8,3.9-3.9C97.5,76.7,95.7,74.9,93.6,74.9z"/>
	</g>
</g>
</svg>
