<?xml version="1.0" encoding="utf-8"?>
<!-- Generator: Adobe Illustrator 24.0.0, SVG Export Plug-In . SVG Version: 6.00 Build 0)  -->
<svg version="1.1" id="Ebene_1" xmlns="http://www.w3.org/2000/svg" xmlns:xlink="http://www.w3.org/1999/xlink" x="0px" y="0px"
	 viewBox="0 0 100 96" style="enable-background:new 0 0 100 96;" xml:space="preserve">
<g id="Ebene_2_1_">
</g>
<g id="Ebene_1_1_">
	<g>
		<path d="M10.3,63.7L9,69.2L3.1,80c-1.4,2.5-0.5,5.6,2,7c0.8,0.5,1.6,0.6,2.5,0.6c1.8,0,3.6-1,4.5-2.7l5.4-9.9L17,69.9L10.3,63.7z"
			/>
		<ellipse cx="29.6" cy="21.4" rx="9.1" ry="9.1"/>
		<path d="M97.5,35.5c0-8.1-6.1-14.9-14-15.8c-1-0.1-1.9,0.6-1.9,1.6v26.5c-1.3,0.4-2.3,1.6-2.4,3H53.1c-1,0-1.8,0.9-1.6,1.9
			c0.7,5.8,4.5,10.6,9.6,12.8c-0.1,0.2-0.2,0.3-0.3,0.5l-8.3,17.3c-0.6,1.3-0.1,2.9,1.3,3.6c0.4,0.2,0.8,0.3,1.2,0.3
			c1,0,2-0.6,2.4-1.5l8.3-17.3c0.4-0.9,1.2-1,1.6-1c0.3,0,1.1,0.1,1.6,1L77,85.6c0.6,1.3,2.2,1.9,3.6,1.3c1.3-0.6,1.9-2.2,1.3-3.6
			L73.6,66c-0.1-0.2-0.2-0.3-0.3-0.5c4.6-2,8.2-6,9.3-11c1.8-0.1,3.3-1.5,3.3-3.4c0-0.1,0-0.2,0-0.2C92.6,48.9,97.5,42.8,97.5,35.5z
			"/>
		<path d="M56.1,45.6l0.6,1.3c0.3,0.6,0.9,1,1.6,1c0.2,0,0.4,0,0.7-0.1c0.9-0.4,1.3-1.4,0.9-2.2l-0.6-1.3c-0.4-0.9-0.2-1.9,0.4-2.7
			c1.6-2,1.8-4.8,0.4-7l-0.7-1.1c-0.5-0.8-1.5-1-2.3-0.6c-0.8,0.5-1,1.5-0.6,2.3l0.7,1.1c0.6,1,0.5,2.2-0.2,3.1
			C55.5,41.2,55.2,43.6,56.1,45.6z"/>
		<path d="M64.4,45.6l0.6,1.3c0.3,0.6,0.9,1,1.6,1c0.2,0,0.4,0,0.7-0.1c0.9-0.4,1.3-1.4,0.9-2.2l-0.6-1.3c-0.4-0.9-0.2-1.9,0.4-2.7
			c1.6-2,1.8-4.8,0.4-7l-0.7-1.1c-0.5-0.8-1.5-1-2.3-0.6c-0.8,0.5-1,1.5-0.6,2.3l0.7,1.1c0.6,1,0.5,2.2-0.2,3.1
			C63.8,41.2,63.5,43.6,64.4,45.6z"/>
		<path d="M72.7,45.6l0.6,1.3c0.3,0.6,0.9,1,1.6,1c0.2,0,0.4,0,0.7-0.1c0.9-0.4,1.3-1.4,0.9-2.2l-0.6-1.3c-0.4-0.9-0.2-1.9,0.4-2.7
			c1.6-2,1.8-4.8,0.4-7L76,33.5c-0.5-0.8-1.5-1-2.3-0.6c-0.8,0.5-1,1.5-0.6,2.3l0.7,1.1c0.6,1,0.5,2.2-0.2,3.1
			C72.2,41.2,71.8,43.6,72.7,45.6z"/>
		<path d="M50.2,28.6c-0.8-0.2-1.6,0.4-1.8,1.2l-0.4,2c-0.1,0.5-0.6,0.9-1.2,0.8c-0.3-0.1-0.5-0.2-0.6-0.4s-0.2-0.5-0.1-0.7l0.4-2
			c0.2-0.8-0.4-1.6-1.2-1.8c-0.8-0.2-1.6,0.4-1.8,1.2l-0.4,2c-0.2,1,0,2.1,0.6,3c0.3,0.5,0.7,0.8,1.1,1.1L43,43.4L37.6,44
			c-0.8-1.4-1.9-3.2-2.9-4.9c-1.9-3-4.7-5.3-7.9-6.7L23,30.8c-1.8-0.7-3.8-0.7-5.6,0.1c-1.7,0.8-3,2.4-3.6,4.2L8.6,51.9
			c-0.6,1.9-0.1,4,1.4,5.4l11.4,10.5L22.9,83c0.3,2.7,2.5,4.7,5.1,4.7c0.2,0,0.3,0,0.5,0c2.8-0.3,4.9-2.8,4.7-5.6L31.6,65
			c-0.1-1.3-0.7-2.4-1.6-3.3l-6.6-6l4.3-11.2c1.8,2.9,3.8,6.4,3.8,6.4c0.8,1.5,2.5,2.4,4.2,2.2l8.5-0.9c2.4-0.3,4.1-2.4,3.8-4.8
			c-0.2-1.4-0.9-2.5-2-3.2l1.8-8.6c1.5-0.3,2.8-1.4,3.2-3.1l0.4-2C51.6,29.6,51,28.8,50.2,28.6z"/>
	</g>
</g>
</svg>
