<?xml version="1.0" encoding="utf-8"?>
<!-- Generator: Adobe Illustrator 24.0.0, SVG Export Plug-In . SVG Version: 6.00 Build 0)  -->
<svg version="1.1" id="Ebene_1" xmlns="http://www.w3.org/2000/svg" xmlns:xlink="http://www.w3.org/1999/xlink" x="0px" y="0px"
	 viewBox="0 0 100 106" style="enable-background:new 0 0 100 106;" xml:space="preserve">
<g id="Ebene_2_1_">
</g>
<g id="Ebene_1_1_">
	<g>
		<path d="M48,57.4H17.4c-1.9,0-3.5,1.6-3.5,3.5s1.6,3.5,3.5,3.5h27V94c0,1.9,1.6,3.5,3.5,3.5s3.5-1.6,3.5-3.5V60.9
			C51.5,59,49.9,57.4,48,57.4z"/>
		<path d="M85.4,45.9L74.7,25.4c-0.9-1.9-2.6-3.3-4.6-3.9s-4.2-0.3-6,0.8l-3.3,2.1c-1.9,1.2-3.9,2.4-5.6,4.5
			c-0.4,0.5-1.4,1.7-3.4,8.6l-10-1.1c-2.5-0.3-4.8,1.4-5.3,3.9l-1.2-0.2c-2-0.3-4,0.7-4.9,2.5c-0.9,1.7-1.4,2.6-1.7,3.1
			c-0.3,0.1-0.6,0.1-0.8,0.2c-3.8,1.3-6.6,4.6-8,6.7c-0.5,0.7,0,1.7,0.9,1.7h21.4c0.6,0,1.1-0.5,1.1-1.1v-0.4l8.8,0.6
			c3.3,0.2,5.8,2.9,5.8,6.2v36.2c0,0.8,0.6,1.5,1.5,1.5s1.5-0.6,1.5-1.5V59.5c0-4.8-3.8-8.8-8.5-9.1l-9.1-0.6
			c-0.1-0.4-0.3-0.7-0.4-1l-0.3-2.7l12.6,1.4c2.4,0.3,4.6-1.2,5.2-3.6c0.4-1.3,0.8-2.8,1.2-4.1l9.9,16.7L67,68.6
			c-0.2,0.6-0.4,1.3-0.4,2v20.9c0,3.2,2.6,5.8,5.8,5.8c3.2,0,5.8-2.6,5.8-5.8V71.8L86,50.7C86.3,49.1,86.1,47.4,85.4,45.9z
			 M34.8,43.2l2.1,0.3c0.4,0.8,1.1,1.5,2,1.9l0.1,1.1c-1.9-0.5-4.3-1-6.6-1.1c0.2-0.4,0.5-0.9,0.7-1.3
			C33.4,43.5,34.1,43.1,34.8,43.2z"/>
		<ellipse cx="54.8" cy="12.7" rx="10.2" ry="10.2"/>
	</g>
</g>
</svg>
