<?xml version="1.0" encoding="utf-8"?>
<!-- Generator: Adobe Illustrator 24.0.0, SVG Export Plug-In . SVG Version: 6.00 Build 0)  -->
<svg version="1.1" id="Ebene_1" xmlns="http://www.w3.org/2000/svg" xmlns:xlink="http://www.w3.org/1999/xlink" x="0px" y="0px"
	 viewBox="0 0 100 96" style="enable-background:new 0 0 100 96;" xml:space="preserve">
<g id="Ebene_2_1_">
</g>
<g id="Ebene_1_1_">
	<g>
		<path d="M59.7,23.6c-2-1.3-4.6-0.9-6.2,0.7l-1,1l-1.1-1.1c-2.2-2.2-5.8-1.9-7.6,0.8c-1.3,2-0.9,4.6,0.7,6.2l7.5,7.5
			c0.3,0.3,0.7,0.3,0.9,0l7.6-7.6C62.7,29,62.4,25.4,59.7,23.6z"/>
		<path d="M15.1,69.1l-1.2,4.5l-8.5,3.6c-2.3,1-3.4,3.7-2.4,6C3.7,84.9,5.4,86,7.2,86c0.6,0,1.2-0.1,1.8-0.4l10.6-4.5
			c1.3-0.6,2.3-1.7,2.6-3l1.8-6.3l-7.5-2.3C15.9,69.5,15.5,69.4,15.1,69.1z"/>
		<path d="M46.7,47.8l-6.3,0.7c-1.2-0.9-3.1-2.3-4.6-3.4c-1.8-1.4-4-2.2-6.2-2.5L25,42.1c-2.9-0.3-5.6,1.5-6.4,4.3l-1.2,4.3L14.5,60
			c-0.4,1.2-0.2,2.4,0.3,3.5c0.6,1.1,1.6,1.9,2.7,2.3L30,69.6l-0.4,11.8c-0.1,2.5,1.9,4.7,4.5,4.7h0.1c2.5,0,4.5-2,4.6-4.5l0.5-15.3
			c0.1-2.1-1.3-3.9-3.3-4.6l-7.2-2.2l2.6-8.1c2.4,1.8,5.6,4,5.6,4c0.8,0.6,1.7,0.8,2.7,0.7l7.7-0.9c2.1-0.3,3.6-2.2,3.4-4.3
			C50.7,49,48.8,47.5,46.7,47.8z"/>
		<ellipse cx="28.7" cy="32.1" rx="8.1" ry="8.1"/>
		<path d="M90.9,52l5.8-7.7c0.6-0.8,0.9-1.9,0.7-2.9c-0.2-1-0.8-1.9-1.7-2.4c-1-0.6-9.7-5.5-11.3-6.3c-1.3-0.6-2.5-0.9-3.9-1
			c-0.4,0.5-0.8,1.1-1.3,1.5c-1.4,1.2-3.5,1.2-4.9,0c-0.4-0.3-0.7-0.7-1-1c-3.5,1.2-5.9,4-7.9,6.3c-0.8,0.9-1.5,1.8-2.2,2.5
			c-3.5,3.4-7.6,5.2-7.7,5.2c-1.8,0.8-2.6,2.8-1.9,4.7c0.8,1.8,2.8,2.7,4.7,1.9c0.2-0.1,5.3-2.3,9.8-6.6c0.5-0.5,0.9-1,1.4-1.5
			c-0.7,4.1-2.1,9.2-5.1,14.9c-1.5,2.9,0.5,4.7,3.9,5.6l-0.1,17c0,2.1,1.7,3.9,3.8,3.9c2.1,0,3.9-1.7,3.9-3.8L76,66.1
			c1.3,0,2.6-0.1,3.9-0.2l4.8,17.3c0.5,1.7,2,2.8,3.7,2.8c0.3,0,0.7,0,1-0.1c2-0.6,3.2-2.7,2.7-4.7l-4.7-16.8c2.2-0.8,3.4-2,2.7-3.3
			c-1.5-2.9-2.7-5.6-3.6-8.1c0.5,0.3,1.1,0.5,1.6,0.5C89.2,53.4,90.2,52.9,90.9,52z M85.3,47.7c-0.1,0.2-0.2,0.4-0.3,0.5
			c-0.9-3.2-1.3-5.8-1.4-7.9c1.4,0.8,3.3,1.8,5.2,2.9L85.3,47.7z"/>
		<path d="M76.7,30.4c4.2,0,7.7-3.4,7.7-7.7c0-0.5-0.1-0.9-0.1-1.3c1.2-0.7,2-2,2-3.4c0-2.2-1.8-4-4-4c-1.3,0-2.4,0.6-3.1,1.5
			c-0.8-0.2-1.5-0.4-2.4-0.4c-4.2,0-7.7,3.4-7.7,7.7S72.5,30.4,76.7,30.4z"/>
	</g>
</g>
</svg>
