<?xml version="1.0" encoding="utf-8"?>
<!-- Generator: Adobe Illustrator 24.0.0, SVG Export Plug-In . SVG Version: 6.00 Build 0)  -->
<svg version="1.1" id="Design" xmlns="http://www.w3.org/2000/svg" xmlns:xlink="http://www.w3.org/1999/xlink" x="0px" y="0px"
	 viewBox="0 0 57 57" style="enable-background:new 0 0 57 57;" xml:space="preserve">
<style type="text/css">
	.st0{fill:none;stroke:#FFFFFF;stroke-width:2.6245;stroke-miterlimit:10;}
	.st1{fill:none;stroke:#FFFFFF;stroke-width:2.7551;stroke-linejoin:round;stroke-miterlimit:10;}
</style>
<g>
	<path d="M35.7,1.1H20.7c-11.1,0-20,9-20,20v14.9c0,11.1,9,20,20,20h14.9c11.1,0,20-9,20-20V21.2C55.7,10.1,46.7,1.1,35.7,1.1z
		 M45.3,35.4c0,5.7-4.6,10.3-10.3,10.3H21.4c-5.7,0-10.3-4.6-10.3-10.3V21.8c0-5.7,4.6-10.3,10.3-10.3H35c5.7,0,10.3,4.6,10.3,10.3
		V35.4z"/>
	<path d="M35,14.8H21.4c-3.9,0-7.1,3.2-7.1,7.1v13.6c0,3.9,3.2,7.1,7.1,7.1H35c3.9,0,7.1-3.2,7.1-7.1V21.8
		C42,17.9,38.9,14.8,35,14.8z M28.3,37.3c-4.6,0-8.4-3.8-8.4-8.4c0-4.6,3.8-8.4,8.4-8.4c4.6,0,8.4,3.8,8.4,8.4
		C36.7,33.5,32.9,37.3,28.3,37.3z M37.2,21.9c-1.1,0-2-0.9-2-2s0.9-2,2-2c1.1,0,2,0.9,2,2S38.3,21.9,37.2,21.9z"/>
	<path d="M28.2,23.2c-3,0-5.4,2.4-5.4,5.4c0,3,2.4,5.4,5.4,5.4c3,0,5.4-2.4,5.4-5.4C33.6,25.7,31.2,23.2,28.2,23.2z"/>
</g>
</svg>
