<?xml version="1.0" encoding="utf-8"?>
<!-- Generator: Adobe Illustrator 24.2.3, SVG Export Plug-In . SVG Version: 6.00 Build 0)  -->
<svg version="1.1" id="instagram" xmlns="http://www.w3.org/2000/svg" xmlns:xlink="http://www.w3.org/1999/xlink" x="0px" y="0px"
	 viewBox="0 0 24 24" style="enable-background:new 0 0 24 24;" xml:space="preserve">
<style type="text/css">
	.st0{fill-rule:evenodd;clip-rule:evenodd;}
</style>
<path id="icon" class="st0" d="M16.8,0c4,0,7.2,3.2,7.2,7.2v9.6c0,4-3.2,7.2-7.2,7.2H7.2c-4,0-7.2-3.2-7.2-7.2V7.2
	C0,3.2,3.2,0,7.2,0H16.8z M16.8,2.4H7.2c-2.7,0-4.8,2.1-4.8,4.8v9.6c0,2.7,2.1,4.8,4.8,4.8h9.6c2.7,0,4.8-2.1,4.8-4.8V7.2
	C21.6,4.5,19.5,2.4,16.8,2.4z M12,6c3.3,0,6,2.7,6,6s-2.7,6-6,6s-6-2.7-6-6S8.7,6,12,6z M12,8.4c-2,0-3.6,1.6-3.6,3.6
	s1.6,3.6,3.6,3.6s3.6-1.6,3.6-3.6S14,8.4,12,8.4z M18,4.8c0.7,0,1.2,0.5,1.2,1.2S18.7,7.2,18,7.2S16.8,6.7,16.8,6S17.3,4.8,18,4.8z"
	/>
</svg>
