<?xml version="1.0" encoding="UTF-8"?>
<svg width="222px" height="67px" viewBox="0 0 222 67" version="1.1" xmlns="http://www.w3.org/2000/svg" xmlns:xlink="http://www.w3.org/1999/xlink">
    <!-- Generator: Sketch 63.1 (92452) - https://sketch.com -->
    <title>Group 9</title>
    <desc>Created with Sketch.</desc>
    <defs>
        <polygon id="path-1" points="0 0.18304 15.22464 0.18304 15.22464 23.86864 0 23.86864"></polygon>
        <polygon id="path-3" points="0.724581818 0.267785714 17.7795818 0.267785714 17.7795818 22.89535 0.724581818 22.89535"></polygon>
    </defs>
    <g id="Page-1" stroke="none" stroke-width="1" fill="none" fill-rule="evenodd">
        <g id="Registrieren" transform="translate(-28.000000, -21.000000)">
            <g id="Group-9" transform="translate(28.000000, 21.000000)">
                <g id="Group-8" transform="translate(0.000000, 4.000000)" fill="#B6223E">
                    <path d="M35.9028235,19.5553742 C35.8087059,19.596752 35.6828235,19.6523164 35.544,19.6759609 L32.1898824,20.2859876 C31.3557647,20.4278542 30.4969412,20.4290364 29.6334118,20.245792 C28.9357647,20.1015609 28.284,19.9750631 27.7087059,19.8532942 L23.3145882,26.6581653 L22.6651765,27.6559609 C22.5863529,27.7292587 22.5192941,27.8332942 22.4522353,27.9373298 L22.6028235,28.2837209 C23.0322353,29.183392 22.944,30.2722187 22.3804706,31.119872 L18.0592941,37.4057476 C17.8592941,37.7190364 17.5545882,37.9649387 17.2098824,38.1162631 C16.584,38.3917209 15.8204706,38.3515253 15.2287059,37.9365653 C14.2804706,37.301712 14.0569412,36.0130898 14.7016471,35.0921387 L15.6792941,33.6498276 L16.0922353,33.0551698 L18.6263529,29.3548142 L17.2181176,26.3732498 C16.804,25.5043164 16.8545882,24.5065209 17.3557647,23.6860587 C17.3557647,23.6860587 18.7004706,21.3700853 19.9569412,19.2810987 C15.6063529,21.9789298 11.1781176,27.9361476 8.244,30.2001031 C7.71694118,30.619792 6.90752941,30.300592 6.77105882,29.6468231 C6.48870588,28.3085476 5.72635294,26.4678276 5.03341176,24.4462276 C4.84517647,23.9284142 5.11929412,23.3574009 5.64870588,23.2001653 C9.11694118,22.1657209 16.9769412,16.4626809 19.6157647,15.4920764 C22.5051765,14.4103431 23.9957647,15.5192676 25.9028235,15.957872 C26.8428235,16.1446631 28.2369412,16.4319431 30.3734118,16.8823698 C30.7816471,16.9651253 31.1957647,16.9710364 31.6134118,16.9001031 L34.9687059,16.2900764 C35.8651765,16.1210187 36.7675294,16.7381387 36.8875294,17.6981031 C37.0451765,18.4913742 36.624,19.2385387 35.9028235,19.5553742 M13.1310588,35.2564676 L12.3392941,35.7541831 C12.2275294,35.8404853 12.1334118,35.8818631 12.0392941,35.9232409 C11.1298824,36.322832 10.0592941,36.0048142 9.50635294,35.1607076 C8.91105882,34.2220231 9.17458824,32.9428587 10.1416471,32.3304676 L15.2875294,29.0580764 L16.4922353,27.9668853 L17.0851765,29.2436853 L13.5945882,34.2645831 C13.3945882,34.577872 13.2392941,34.907712 13.1310588,35.2564676 M23.4357647,11.4902542 C23.6498824,9.56559644 25.3745882,8.180032 27.2898824,8.39401422 C29.2051765,8.60799644 30.584,10.3423164 30.3710588,12.2669742 C30.1569412,14.1904498 28.4322353,15.5771964 26.5169412,15.3632142 C24.6028235,15.1480498 23.2228235,13.414912 23.4357647,11.4902542 M35.2981176,5.74110756 C32.4592941,2.35876978 27.3875294,0.665827556 20.0816471,0.665827556 C12.7757647,0.665827556 7.69223529,2.35876978 4.83105882,5.74110756 C1.96870588,9.12580978 0.539294118,15.3502098 0.539294118,24.416672 C0.539294118,33.4843164 1.96870588,39.7087164 4.83105882,43.0922364 C7.69223529,46.4757564 12.7757647,48.1675164 20.0816471,48.1675164 C27.3875294,48.1675164 32.4592941,46.4757564 35.2981176,43.0922364 C38.1369412,39.7087164 39.5557647,33.4843164 39.5557647,24.416672 C39.5557647,15.3502098 38.1369412,9.12580978 35.2981176,5.74110756" id="Fill-4"></path>
                    <path d="M15.5224706,55.6633964 C21.0354118,58.8731298 26.666,61.2564898 32.4130588,62.8134764 C33.1589412,63.0156364 33.9295294,62.5793964 34.1636471,61.8393253 L36.0754118,55.7627031 C36.3424706,54.9103209 35.7883529,54.022472 34.9095294,53.8865164 C28.3154118,52.8615298 22.6824706,51.5811831 18.0083529,50.0442942 C17.306,49.8125787 16.5436471,50.1613342 16.2436471,50.8399298 L14.9307059,53.809672 C14.6307059,54.4870853 14.8824706,55.2921787 15.5224706,55.6633964" id="Fill-6"></path>
                </g>
                <g id="Group-35" transform="translate(57.000000, 0.000000)">
                    <g id="Group-3" transform="translate(0.000000, 6.000000)">
                        <mask id="mask-2" fill="white">
                            <use xlink:href="#path-1"></use>
                        </mask>
                        <g id="Clip-2"></g>
                        <path d="M5.23904,20.52384 L6.24704,18.23664 C8.18224,18.94064 10.77264,19.52384 14.01984,19.98304 L12.83904,23.86864 C9.93664,23.08144 7.40304,21.96624 5.23904,20.52384 M9.78864,4.80704 C9.41184,4.08544 8.68224,3.72464 7.59984,3.72464 C6.51824,3.72464 5.78864,4.08544 5.41104,4.80704 C5.03344,5.52864 4.84544,6.93024 4.84544,9.01264 C4.84544,11.09504 5.03344,12.49744 5.41104,13.21904 C5.78864,13.94064 6.51824,14.30064 7.59984,14.30064 C8.68224,14.30064 9.41184,13.94064 9.78864,13.21904 C10.16624,12.49744 10.35504,11.09504 10.35504,9.01264 C10.35504,6.93024 10.16624,5.52864 9.78864,4.80704 M7.59984,0.18304 C10.46944,0.18304 12.45744,0.80224 13.56464,2.03984 C14.67104,3.27824 15.22464,5.60224 15.22464,9.01264 C15.22464,12.42384 14.67104,14.74784 13.56464,15.98624 C12.45744,17.22384 10.46944,17.84304 7.59984,17.84304 C6.15664,17.84304 4.97184,17.70704 4.04624,17.43744 C3.11984,17.16624 2.34464,16.69104 1.72224,16.01024 C1.09824,15.33024 0.65584,14.42784 0.39344,13.30464 C0.13104,12.18224 -0.00016,10.75104 -0.00016,9.01264 C-0.00016,7.27504 0.13104,5.84384 0.39344,4.72064 C0.65584,3.59824 1.09824,2.69584 1.72224,2.01504 C2.34464,1.33504 3.11984,0.85904 4.04624,0.58864 C4.97184,0.31824 6.15664,0.18304 7.59984,0.18304" id="Fill-1" fill="#B6223E" mask="url(#mask-2)"></path>
                    </g>
                    <path d="M32,6 L32,15.8999769 C32,18.4925849 31.4923977,20.3233541 30.477193,21.3938554 C29.4619883,22.4643567 27.7161793,23 25.2389864,23 C22.5863548,23 20.7157895,22.4643567 19.6296296,21.3938554 C18.5426901,20.3233541 18,18.4925849 18,15.8999769 L18,6 L22.5060429,6 L22.5060429,15.8999769 C22.5060429,17.3168399 22.6822612,18.2750289 23.0339181,18.7737584 C23.3847953,19.2724879 24.0405458,19.5222453 24.9996101,19.5222453 C25.9586745,19.5222453 26.6136452,19.2724879 26.9653021,18.7737584 C27.3169591,18.2750289 27.4931774,17.3168399 27.4931774,15.8999769 L27.4931774,6 L32,6 Z" id="Fill-4" fill="#B6223E"></path>
                    <path d="M43.2804164,15.6082776 L42.1761178,11.2472895 C41.9926118,10.3938437 41.8841393,9.80244178 41.8507004,9.47388517 L41.173767,9.47388517 C41.0563232,10.0981427 40.9396949,10.6895446 40.822251,11.2472895 L39.7195836,15.6082776 L43.2804164,15.6082776 Z M44.1571675,18.959555 L38.8420169,18.959555 L37.8135675,23 L33,23 L37.7385339,7.20684454 C37.8225389,6.84543226 38.0101228,6.5537381 38.3021013,6.3325634 C38.5948954,6.11058735 38.9333621,6 39.318317,6 L43.6808674,6 C44.0658223,6 44.404289,6.11058735 44.6962675,6.3325634 C44.9890616,6.5537381 45.185617,6.84543226 45.2859336,7.20684454 L50,23 L45.185617,23 L44.1571675,18.959555 Z" id="Fill-6" fill="#B6223E"></path>
                    <path d="M55.4571461,13.3586098 L57.6265465,13.3586098 C58.4776913,13.3586098 59.0513911,13.221169 59.3492135,12.9454976 C59.646252,12.6706161 59.7943794,12.1366509 59.7943794,11.342812 C59.7943794,10.549763 59.646252,10.0157978 59.3492135,9.74012638 C59.0513911,9.46445498 58.4776913,9.32701422 57.6265465,9.32701422 L55.4571461,9.32701422 L55.4571461,13.3586098 Z M65,23 L60.2520853,23 L59.0717685,17.9486572 C58.9596932,17.4628752 58.786486,17.1311216 58.5537144,16.9526066 C58.320159,16.7748815 57.9713934,16.685624 57.5050663,16.685624 L55.4571461,16.685624 L55.4571461,23 L51,23 L51,6.24328594 C52.5737558,6.08135861 54.8152606,6 57.7229469,6 C60.115714,6 61.8187874,6.36808847 62.8305996,7.10505529 C63.8424117,7.84202212 64.3487096,9.15718799 64.3487096,11.0513428 C64.3487096,13.5126382 63.256172,14.864139 61.0718804,15.1066351 L61.0718804,15.2527646 C62.4692941,15.4794629 63.3204389,16.3372828 63.6260986,17.8270142 L65,23 Z" id="Fill-8" fill="#B6223E"></path>
                    <path d="M77.2804164,15.6082776 L76.1761178,11.2472895 C75.9926118,10.3938437 75.8841393,9.80244178 75.8507004,9.47388517 L75.173767,9.47388517 C75.0563232,10.0981427 74.9396949,10.6895446 74.822251,11.2472895 L73.7195836,15.6082776 L77.2804164,15.6082776 Z M78.1571675,18.959555 L72.8420169,18.959555 L71.8135675,23 L67,23 L71.7385339,7.20684454 C71.8225389,6.84543226 72.0101228,6.5537381 72.3021013,6.3325634 C72.5948954,6.11058735 72.9333621,6 73.318317,6 L77.6808674,6 C78.0658223,6 78.404289,6.11058735 78.6962675,6.3325634 C78.9890616,6.5537381 79.185617,6.84543226 79.2859336,7.20684454 L84,23 L79.185617,23 L78.1571675,18.959555 Z" id="Fill-10" fill="#B6223E"></path>
                    <path d="M101,6 L101,21.3740454 C101,22.4582823 100.468193,23 99.4045781,23 L97.2198563,23 C96.777482,23 96.4333245,22.8974262 96.1881821,22.6922787 C95.9430397,22.4871311 95.6891137,22.1377392 95.4272026,21.6449043 L91.4011179,14.3517488 C90.9595422,13.5143302 90.5906308,12.5863581 90.2959808,11.5678326 L90.100346,11.5678326 C90.2305031,12.5863581 90.2959808,13.5551994 90.2959808,14.4751579 L90.2959808,23 L86,23 L86,7.62595456 C86,6.54171773 86.5405909,6 87.6201757,6 L89.7801437,6 C90.222518,6 90.5618845,6.10257377 90.7998403,6.30772132 C91.0361991,6.51367022 91.2941176,6.86226077 91.5727974,7.35509569 L95.4519563,14.3765909 C95.8599947,15.1154426 96.2863987,16.0602432 96.7279744,17.2101914 L96.9244078,17.2101914 C96.8102209,16.0770717 96.7447431,15.082587 96.7279744,14.2291411 L96.7279744,6 L101,6 Z" id="Fill-12" fill="#B6223E"></path>
                    <polygon id="Fill-14" fill="#B6223E" points="117 9.57245215 112.237587 9.57245215 112.237587 23 107.738282 23 107.738282 9.57245215 103 9.57245215 103 6 117 6"></polygon>
                    <g id="Group-18" transform="translate(116.000000, 0.000000)">
                        <mask id="mask-4" fill="white">
                            <use xlink:href="#path-3"></use>
                        </mask>
                        <g id="Clip-17"></g>
                        <path d="M12.3206727,3.62627857 L10.8373091,3.62627857 C10.2326727,3.62627857 9.93076364,3.32317143 9.93076364,2.71695714 L9.93076364,1.17677857 C9.93076364,0.570564286 10.2326727,0.267457143 10.8373091,0.267457143 L12.3206727,0.267457143 C12.9408545,0.267457143 13.2517636,0.570564286 13.2517636,1.17677857 L13.2517636,2.71695714 C13.2517636,3.32317143 12.9408545,3.62627857 12.3206727,3.62627857 L12.3206727,3.62627857 Z M11.0385818,15.3193143 L9.93076364,10.8491 C9.74667273,9.97427857 9.63785455,9.36806429 9.60430909,9.03127857 L8.92521818,9.03127857 C8.8074,9.67117143 8.6904,10.2773857 8.57258182,10.8491 L7.46558182,15.3193143 L11.0385818,15.3193143 Z M7.66767273,3.62627857 L6.15812727,3.62627857 C5.55349091,3.62627857 5.2524,3.32317143 5.2524,2.71695714 L5.2524,1.17677857 C5.2524,0.570564286 5.55349091,0.267457143 6.15812727,0.267457143 L7.66767273,0.267457143 C8.27067273,0.267457143 8.57258182,0.570564286 8.57258182,1.17677857 L8.57258182,2.71695714 C8.57258182,3.32317143 8.27067273,3.62627857 7.66767273,3.62627857 L7.66767273,3.62627857 Z M11.9181273,18.7545286 L6.58521818,18.7545286 L5.55349091,22.89535 L0.724581818,22.89535 L5.47903636,6.70745714 C5.56249091,6.33699286 5.75149091,6.03799286 6.0444,5.81127857 C6.33812727,5.58374286 6.67767273,5.47038571 7.06303636,5.47038571 L11.4403091,5.47038571 C11.8264909,5.47038571 12.1660364,5.58374286 12.4589455,5.81127857 C12.7518545,6.03799286 12.9498545,6.33699286 13.0504909,6.70745714 L17.7795818,22.89535 L12.9498545,22.89535 L11.9181273,18.7545286 Z" id="Fill-16" fill="#B6223E" mask="url(#mask-4)"></path>
                    </g>
                    <path d="M150,6 L150,21.3740454 C150,22.4582823 149.468193,23 148.404578,23 L146.219856,23 C145.777482,23 145.433324,22.8974262 145.188182,22.6922787 C144.94304,22.4871311 144.689114,22.1377392 144.427203,21.6449043 L140.401118,14.3517488 C139.959542,13.5143302 139.590631,12.5863581 139.295981,11.5678326 L139.100346,11.5678326 C139.230503,12.5863581 139.295981,13.5551994 139.295981,14.4751579 L139.295981,23 L135,23 L135,7.62595456 C135,6.54171773 135.540591,6 136.620176,6 L138.780144,6 C139.222518,6 139.561884,6.10257377 139.79984,6.30772132 C140.036199,6.51367022 140.294118,6.86226077 140.572797,7.35509569 L144.451956,14.3765909 C144.859995,15.1154426 145.286399,16.0602432 145.727974,17.2101914 L145.924408,17.2101914 C145.810221,16.0770717 145.744743,15.082587 145.727974,14.2291411 L145.727974,6 L150,6 Z" id="Fill-19" fill="#B6223E"></path>
                    <path d="M164.76527,19.4338053 L165,22.7306883 C163.297569,22.9102294 160.327423,23 156.089564,23 C154.856593,23 153.866827,22.6703117 153.119419,22.0109351 C152.372857,21.3515585 152,20.476097 152,19.3845507 L152,9.61544932 C152,8.52469742 152.377094,7.64923595 153.13213,6.98906491 C153.888013,6.3296883 154.873541,6 156.089564,6 C160.327423,6 163.297569,6.08977055 165,6.26851722 L164.76527,9.56619468 L158.017404,9.56619468 C157.269995,9.56619468 156.897138,9.91653816 156.897138,10.6164307 L156.897138,12.667648 L163.800926,12.667648 L163.800926,15.8191504 L156.897138,15.8191504 L156.897138,18.3835693 C156.897138,19.0842563 157.269995,19.4338053 158.017404,19.4338053 L164.76527,19.4338053 Z" id="Fill-21" fill="#B6223E"></path>
                    <polygon id="Fill-23" fill="#B6223E" points="15 34 15 51 10.4699659 51 10.4699659 43.6579617 5.50652186 43.6579617 5.50652186 51 1 51 1 34 5.50652186 34 5.50652186 40.2826435 10.4699659 40.2826435 10.4699659 34"></polygon>
                    <path d="M29.7652695,47.4338053 L30,50.7306883 C28.2975686,50.9102294 25.3274232,51 21.0895639,51 C19.8565934,51 18.8668275,50.6703117 18.1194186,50.0109351 C17.372857,49.3515585 17,48.476097 17,47.3845507 L17,37.6154493 C17,36.5246974 17.3770941,35.6492359 18.1321296,34.9890649 C18.8880125,34.3296883 19.8735415,34 21.0895639,34 C25.3274232,34 28.2975686,34.0897706 30,34.2685172 L29.7652695,37.5661947 L23.0174043,37.5661947 C22.2699954,37.5661947 21.8971384,37.9165382 21.8971384,38.6164307 L21.8971384,40.667648 L28.8009256,40.667648 L28.8009256,43.8191504 L21.8971384,43.8191504 L21.8971384,46.3835693 C21.8971384,47.0842563 22.2699954,47.4338053 23.0174043,47.4338053 L29.7652695,47.4338053 Z" id="Fill-25" fill="#B6223E"></path>
                    <path d="M37.7196516,34 L37.7196516,46.1918708 C37.7196516,46.8956163 38.1124115,47.2466911 38.898748,47.2466911 L44.773816,47.2466911 L45,50.7055759 C43.3595536,50.9018586 40.7065868,51 37.0419162,51 C35.7525857,51 34.7572128,50.6608936 34.0541644,49.981883 C33.3511159,49.3036703 33,48.3996527 33,47.2714259 L33,34 L37.7196516,34 Z" id="Fill-27" fill="#B6223E"></path>
                    <path d="M51.4459096,37.3760136 L51.4459096,47.5998442 C51.9028075,47.6161986 52.651228,47.6239864 53.6927092,47.6239864 C54.7172683,47.6239864 55.4103071,47.2766503 55.7733641,46.5819781 C56.1364211,45.8880847 56.3171804,44.5275551 56.3171804,42.5003894 C56.3171804,40.4732237 56.1364211,39.1080214 55.7733641,38.4055614 C55.4103071,37.7031014 54.7172683,37.3518714 53.6927092,37.3518714 L51.4459096,37.3760136 Z M47,50.7609144 L47,34.2398644 C49.648316,34.0802144 51.8789627,34 53.6927092,34 C56.4356354,34 58.339377,34.5988822 59.4039338,35.7958679 C60.4677216,36.9928535 61,39.2279536 61,42.5003894 C61,45.7720464 60.4677216,48.0071465 59.4039338,49.2041321 C58.339377,50.4018966 56.4356354,51 53.6927092,51 C51.4059118,51 49.1752651,50.9197856 47,50.7609144 L47,50.7609144 Z" id="Fill-29" fill="#B6223E"></path>
                    <path d="M74.7652695,47.4338053 L75,50.7306883 C73.2975686,50.9102294 70.3274232,51 66.0895639,51 C64.8565934,51 63.8668275,50.6703117 63.1194186,50.0109351 C62.372857,49.3515585 62,48.476097 62,47.3845507 L62,37.6154493 C62,36.5246974 62.3770941,35.6492359 63.1321296,34.9890649 C63.8880125,34.3296883 64.8735415,34 66.0895639,34 C70.3274232,34 73.2975686,34.0897706 75,34.2685172 L74.7652695,37.5661947 L68.0174043,37.5661947 C67.2699954,37.5661947 66.8971384,37.9165382 66.8971384,38.6164307 L66.8971384,40.667648 L73.8009256,40.667648 L73.8009256,43.8191504 L66.8971384,43.8191504 L66.8971384,46.3835693 C66.8971384,47.0842563 67.2699954,47.4338053 68.0174043,47.4338053 L74.7652695,47.4338053 Z" id="Fill-31" fill="#B6223E"></path>
                    <path d="M92,34 L92,49.3740454 C92,50.4582823 91.4681927,51 90.4045781,51 L88.2198563,51 C87.777482,51 87.4333245,50.8974262 87.1881821,50.6922787 C86.9430397,50.4871311 86.6891137,50.1377392 86.4272026,49.6449043 L82.4011179,42.3517488 C81.9595422,41.5143302 81.5906308,40.5863581 81.2959808,39.5678326 L81.100346,39.5678326 C81.2305031,40.5863581 81.2959808,41.5551994 81.2959808,42.4751579 L81.2959808,51 L77,51 L77,35.6259546 C77,34.5417177 77.5405909,34 78.6201757,34 L80.7801437,34 C81.222518,34 81.5618845,34.1025738 81.7998403,34.3077213 C82.0361991,34.5136702 82.2941176,34.8622608 82.5727974,35.3550957 L86.4519563,42.3765909 C86.8599947,43.1154426 87.2863987,44.0602432 87.7279744,45.2101914 L87.9244078,45.2101914 C87.8102209,44.0770717 87.7447431,43.082587 87.7279744,42.2291411 L87.7279744,34 L92,34 Z" id="Fill-33" fill="#B6223E"></path>
                </g>
            </g>
        </g>
    </g>
</svg>