<svg id="Corporate_Design" data-name="Corporate Design"
  xmlns="http://www.w3.org/2000/svg" width="356px" height="158px" viewBox="0 0 276.98 122.65">
  <defs>
    <style>.cls-1{fill:#b7223e;}.cls-2,.cls-5{fill:#fff;}.cls-3{fill:#1e4eac;}.cls-4{fill:#ec69ca;}.cls-5{opacity:0.2;}.cls-6{fill:#1d4eac;}.cls-7{fill:#3265ca;}.cls-8{fill:#a8344a;}.cls-9{fill:#cf4f68;}.cls-10{fill:#ccc968;}.cls-11{fill:#f8f46a;}.cls-12{fill:#c48030;}.cls-13{fill:#eea94e;}</style>
  </defs>
  <path class="cls-1" d="M13.8,33.64Q133.68.71,249.86,0c10-.06,17.48,7.17,18.8,18L277,97.21a18.86,18.86,0,0,1-20.85,19.65c-86.33-9-162.06.5-228.73,5.73-9.59.75-18-6.31-19.58-15.81L.25,54.91A18.91,18.91,0,0,1,13.8,33.64Z"/>
  <path class="cls-2" d="M105.89,42.8q3.93,0,5.44,1.7t1.52,6.37q0,4.66-1.52,6.36t-5.44,1.7a11.76,11.76,0,0,1-3.25-.37,4.55,4.55,0,0,1-2.12-1.3,5.47,5.47,0,0,1-1.22-2.47A18.44,18.44,0,0,1,99,50.87,18.31,18.31,0,0,1,99.3,47a5.37,5.37,0,0,1,1.22-2.47,4.57,4.57,0,0,1,2.12-1.31A12.16,12.16,0,0,1,105.89,42.8Zm2,4.23a2.51,2.51,0,0,0-4,0,9.28,9.28,0,0,0-.52,3.84,9.35,9.35,0,0,0,.52,3.84,2.51,2.51,0,0,0,4,0,9.35,9.35,0,0,0,.52-3.84A9.28,9.28,0,0,0,107.88,47Zm-4,14,.63-1.44a.39.39,0,0,1,.49-.21,38.19,38.19,0,0,0,6.29,1.41.39.39,0,0,1,.33.5l-.83,2.73a.41.41,0,0,1-.5.28A23.7,23.7,0,0,1,104,61.57.41.41,0,0,1,103.87,61.06Z"/>
  <path class="cls-2" d="M128,43.12v9.21q0,3.62-1.42,5.11t-4.91,1.49q-3.74,0-5.26-1.49t-1.52-5.11V43.12h4.22v9.21a5,5,0,0,0,.49,2.67,2.78,2.78,0,0,0,3.69,0,5,5,0,0,0,.49-2.67V43.12Z"/>
  <path class="cls-2" d="M138.75,54.93H134l-.92,3.69h-4.31L133,44.22a1.39,1.39,0,0,1,.51-.8,1.44,1.44,0,0,1,.91-.3h3.91a1.48,1.48,0,0,1,.91.3,1.46,1.46,0,0,1,.52.8L144,58.62h-4.32Zm-.78-3-1-4a16.1,16.1,0,0,1-.29-1.62h-.61c-.1.57-.21,1.11-.31,1.62l-1,4Z"/>
  <path class="cls-2" d="M158.46,58.62H154l-1.1-4.68a1.25,1.25,0,0,0-1.46-1.16h-1.91v5.84h-4.16V43.12q2.21-.23,6.27-.23c2.23,0,3.82.34,4.76,1a4.24,4.24,0,0,1,1.42,3.65q0,3.42-3.06,3.76v.13a2.73,2.73,0,0,1,2.38,2.38Zm-8.89-8.92h2a2.45,2.45,0,0,0,1.6-.38,2,2,0,0,0,.42-1.49,2,2,0,0,0-.42-1.48,2.45,2.45,0,0,0-1.6-.38h-2Z"/>
  <path class="cls-2" d="M169.44,54.93h-4.76l-.92,3.69h-4.31l4.24-14.4a1.3,1.3,0,0,1,.51-.8,1.44,1.44,0,0,1,.91-.3H169a1.44,1.44,0,0,1,.91.3,1.48,1.48,0,0,1,.53.8l4.22,14.4h-4.31Zm-.79-3-1-4q-.25-1.17-.3-1.62h-.6c-.11.57-.21,1.11-.32,1.62l-1,4Z"/>
  <path class="cls-2" d="M189.82,43.12v14a1.3,1.3,0,0,1-1.46,1.49h-2a1.43,1.43,0,0,1-.94-.29,3.18,3.18,0,0,1-.7-.95L181,50.73a13.59,13.59,0,0,1-1-2.54h-.18a20.82,20.82,0,0,1,.18,2.65v7.78H176.1v-14a1.31,1.31,0,0,1,1.48-1.48h2a1.38,1.38,0,0,1,.93.28,3.74,3.74,0,0,1,.71,1l3.55,6.4a21.51,21.51,0,0,1,1.16,2.59h.18c-.1-1-.16-1.94-.18-2.72v-7.5Z"/>
  <path class="cls-2" d="M204.59,46.37h-4.47V58.62h-4.23V46.37h-4.44V43.12h13.14Z"/>
  <path class="cls-2" d="M213.72,54.93H209L208,58.62h-4.31L208,44.22a1.33,1.33,0,0,1,.5-.8,1.46,1.46,0,0,1,.91-.3h3.91a1.46,1.46,0,0,1,1.44,1.1L219,58.62h-4.31Zm-3.8-13.45h-1.35a.72.72,0,0,1-.81-.81V39.3a.72.72,0,0,1,.81-.81h1.35a.72.72,0,0,1,.81.81v1.37A.72.72,0,0,1,209.92,41.48Zm3,10.4-1-4c-.16-.78-.26-1.32-.29-1.62H211c-.1.57-.21,1.11-.31,1.62l-1,4Zm1.15-10.4h-1.33a.72.72,0,0,1-.81-.81V39.3a.72.72,0,0,1,.81-.81h1.33a.73.73,0,0,1,.83.81v1.37A.73.73,0,0,1,214.08,41.48Z"/>
  <path class="cls-2" d="M234.1,43.12v14a1.31,1.31,0,0,1-1.46,1.49h-2a1.41,1.41,0,0,1-.94-.29,3,3,0,0,1-.7-.95l-3.68-6.65a12.94,12.94,0,0,1-1-2.54h-.18a22.84,22.84,0,0,1,.18,2.65v7.78h-3.94v-14a1.31,1.31,0,0,1,1.49-1.48h2a1.39,1.39,0,0,1,.94.28,3.74,3.74,0,0,1,.7,1l3.55,6.4a19.94,19.94,0,0,1,1.17,2.59h.18c-.11-1-.17-1.94-.18-2.72v-7.5Z"/>
  <path class="cls-2" d="M247.61,55.4l.2,3q-2.2.24-7.68.24a3.56,3.56,0,0,1-2.56-.91,3.16,3.16,0,0,1-1-2.41v-9a3.15,3.15,0,0,1,1-2.41,3.57,3.57,0,0,1,2.55-.91q5.48,0,7.68.25l-.2,3h-5.82a.85.85,0,0,0-1,1v1.89h5.95v2.9h-5.95v2.36a.85.85,0,0,0,1,1Z"/>
  <path class="cls-2" d="M112.49,67.82v15.5h-4.22V76.63h-4.63v6.69h-4.2V67.82h4.2v5.73h4.63V67.82Z"/>
  <path class="cls-2" d="M126,80.11l.2,3c-1.46.17-4,.25-7.68.25a3.56,3.56,0,0,1-2.56-.91,3.19,3.19,0,0,1-1-2.42v-9a3.13,3.13,0,0,1,1-2.41,3.57,3.57,0,0,1,2.55-.91c3.65,0,6.22.08,7.68.24l-.2,3h-5.82a.86.86,0,0,0-1,1v1.89h6v2.89h-6v2.36a.85.85,0,0,0,1,1Z"/>
  <path class="cls-2" d="M132.36,67.82V79c0,.64.35,1,1.06,1h5.25l.21,3.17a65.71,65.71,0,0,1-7.12.27,3.65,3.65,0,0,1-2.68-.93,3.35,3.35,0,0,1-.94-2.49V67.82Z"/>
  <path class="cls-2" d="M140.46,83.32V67.82q3.76-.22,6.35-.22,3.91,0,5.43,1.68c1,1.13,1.51,3.22,1.51,6.29s-.5,5.17-1.51,6.29-2.82,1.69-5.43,1.69Q143.55,83.55,140.46,83.32Zm4.22-12.55v9.59l2.13,0a2,2,0,0,0,2-1,9.44,9.44,0,0,0,.52-3.83,9.53,9.53,0,0,0-.52-3.84,2,2,0,0,0-2-1Z"/>
  <path class="cls-2" d="M164.11,83.32h-4.18V67.82h4.18Z"/>
  <path class="cls-2" d="M180.44,67.82v14A1.3,1.3,0,0,1,179,83.32h-2A1.41,1.41,0,0,1,176,83a3.28,3.28,0,0,1-.7-1l-3.68-6.65a13.19,13.19,0,0,1-1-2.54h-.18a20.7,20.7,0,0,1,.18,2.65v7.77h-3.93v-14a1.31,1.31,0,0,1,1.48-1.49h2a1.43,1.43,0,0,1,.93.28,4.08,4.08,0,0,1,.71,1l3.54,6.4A19.14,19.14,0,0,1,176.53,78h.18c-.1-1-.16-1.94-.18-2.72v-7.5Z"/>
  <path class="cls-2" d="M196.74,67.82v14a1.29,1.29,0,0,1-1.45,1.48h-2a1.44,1.44,0,0,1-.95-.28,3.47,3.47,0,0,1-.69-1L188,75.44a13.87,13.87,0,0,1-1-2.54h-.18a20.7,20.7,0,0,1,.18,2.65v7.77H183v-14a1.32,1.32,0,0,1,1.48-1.49h2a1.4,1.4,0,0,1,.93.28,3.59,3.59,0,0,1,.71,1l3.55,6.4A22,22,0,0,1,192.84,78H193c-.11-1-.17-1.94-.18-2.72v-7.5Z"/>
  <path class="cls-2" d="M210.26,80.11l.2,3q-2.21.26-7.68.25a3.55,3.55,0,0,1-2.56-.91,3.15,3.15,0,0,1-1-2.42v-9a3.13,3.13,0,0,1,1-2.41,3.57,3.57,0,0,1,2.55-.91q5.47,0,7.68.24l-.2,3h-5.82a.86.86,0,0,0-1,1v1.89h6v2.89h-6v2.36a.86.86,0,0,0,1,1Z"/>
  <path class="cls-2" d="M226.21,67.82v14a1.29,1.29,0,0,1-1.45,1.48h-2a1.44,1.44,0,0,1-.95-.28,3.47,3.47,0,0,1-.69-1l-3.69-6.65a13.87,13.87,0,0,1-1-2.54h-.18a20.7,20.7,0,0,1,.18,2.65v7.77h-3.93v-14A1.32,1.32,0,0,1,214,67.82h2a1.4,1.4,0,0,1,.93.28,3.59,3.59,0,0,1,.71,1l3.55,6.4A22,22,0,0,1,222.31,78h.18c-.11-1-.17-1.94-.18-2.72v-7.5Z"/>
  <path class="cls-2" d="M155.83,69v.49l-.25.3-1.22-.24.34-1.06Zm1,.54,1.13,1.29-.89.66-.64-1.19-.63,1.19-.9-.66L156,69.59l-.18-1.76H157Zm1.65,0-1.2.24-.25-.3,0-.49,1.13-.52Z"/>
  <path class="cls-2" d="M79.86,45.8Q76,41.26,66.15,41.25T52.4,45.8q-3.87,4.56-3.86,16.75T52.4,79.3q3.87,4.55,13.75,4.55T79.86,79.3q3.84-4.56,3.84-16.75T79.86,45.8ZM69.17,51A3.14,3.14,0,1,1,72,54.43,3.14,3.14,0,0,1,69.17,51ZM59.88,72.27l-.71.45a1.25,1.25,0,0,1-.27.15,1.83,1.83,0,0,1-1.71-3.22l4.64-2.94,1.08-1,.54,1.15-3.15,4.5A3.81,3.81,0,0,0,59.88,72.27ZM68.42,66a2.61,2.61,0,0,1-.2,2.54l-3.9,5.64a1.76,1.76,0,0,1-.76.64,1.88,1.88,0,0,1-1.79-.16,1.83,1.83,0,0,1-.47-2.56l.88-1.29.37-.53L64.84,67l-1.27-2.67a2.49,2.49,0,0,1,.12-2.41S64.9,59.82,66,58c-3.92,2.42-7.91,7.76-10.55,9.79a.85.85,0,0,1-1.33-.5c-.25-1.2-.94-2.85-1.56-4.66a.85.85,0,0,1,.55-1.12c3.13-.93,10.21-6,12.59-6.91,2.6-1,3.94,0,5.66.41l4,.83a3,3,0,0,0,1.12,0l3-.55a1.54,1.54,0,0,1,.84,2.93,1.08,1.08,0,0,1-.32.11l-3,.55a6.2,6.2,0,0,1-2.31,0c-.62-.13-1.52-.29-2-.38a3.81,3.81,0,0,0-.44.92,3.62,3.62,0,0,1-.51,1.37c-.44.59-.87.47-1.33.84a23.28,23.28,0,0,0-2.14,3.51S68.08,65.39,68.42,66Z"/>
  <path class="cls-2" d="M62,90.57A63.19,63.19,0,0,0,77.26,97a1.32,1.32,0,0,0,1.58-.88l1.72-5.45a1.31,1.31,0,0,0-1-1.68,97.43,97.43,0,0,1-15.23-3.45,1.31,1.31,0,0,0-1.59.72L61.5,88.91A1.3,1.3,0,0,0,62,90.57Z"/>
  <path class="cls-3" d="M49.48,52.41s-4.14-13.55-4.28-14.1.83-1.24,1.52-1,13.4,4.43,13.4,4.43-1.6.65-5.57,4.45S49.48,52.41,49.48,52.41Z"/>
  <path class="cls-4" d="M45.32,38.74l.48,1.59A3.75,3.75,0,0,1,47,38.82a4.51,4.51,0,0,1,1.4-.91L47,37.45a1.43,1.43,0,0,0-1.06.46A2.19,2.19,0,0,0,45.32,38.74Z"/>
  <path class="cls-4" d="M46.32,42.05l.52,1.71A11.19,11.19,0,0,1,49.19,41c1.89-1.8,2.62-1.92,2.62-1.92l-1.68-.56s-.52-.05-2.09,1.43S46.32,42.05,46.32,42.05Z"/>
  <path class="cls-4" d="M47.46,45.8l.64,2.08A26.19,26.19,0,0,1,52,43.39a15.34,15.34,0,0,1,3.92-3l-2.17-.71s-1.08.28-3.25,2.36A17.14,17.14,0,0,0,47.46,45.8Z"/>
  <path class="cls-5" d="M55.07,45.82s-8.85-7.13-9.15-7.61-.06-.82.63-.55,11.58,5.51,11.58,5.51Z"/>
  <path class="cls-5" d="M52.53,48.77,45.92,38.21c-.28-.46-.06-.82.63-.55S57,44.2,57,44.2Z"/>
  <polygon class="cls-6" points="79.17 42.7 76.2 41.65 75.99 41.22 80.02 39.29 80.22 39.72 79.17 42.7"/>
  <rect class="cls-7" x="76.43" y="38.67" width="3.16" height="3.16" transform="translate(17.79 -23.61) rotate(19.39)"/>
  <polygon class="cls-6" points="77.9 84.8 74.76 85.06 74.39 84.75 77.29 81.35 77.65 81.66 77.9 84.8"/>
  <rect class="cls-7" x="74.26" y="81.47" width="3.16" height="3.16" transform="translate(-6.39 6.32) rotate(-4.58)"/>
  <polygon class="cls-6" points="46 68.18 44.08 65.69 44.14 65.21 48.56 65.78 48.5 66.26 46 68.18"/>
  <rect class="cls-7" x="44.77" y="63.92" width="3.16" height="3.16" transform="translate(69.88 -11.21) rotate(52.34)"/>
  <polygon class="cls-8" points="46.58 85.42 44.44 83.1 44.45 82.63 48.91 82.79 48.9 83.27 46.58 85.42"/>
  <rect class="cls-9" x="45.11" y="81.13" width="3.16" height="3.16" transform="translate(75.53 -7.78) rotate(47.12)"/>
  <polygon class="cls-8" points="65.7 45.86 64.37 43 64.53 42.55 68.72 44.08 68.56 44.52 65.7 45.86"/>
  <rect class="cls-9" x="65.05" y="41.73" width="3.16" height="3.16" transform="translate(77.74 -35.37) rotate(65.01)"/>
  <polygon class="cls-10" points="88.89 52.16 85.74 52.03 85.42 51.68 88.7 48.66 89.03 49.01 88.89 52.16"/>
  <rect class="cls-11" x="85.48" y="48.59" width="3.16" height="3.16" transform="translate(2.2 -3.64) rotate(2.43)"/>
  <polygon class="cls-10" points="52.26 86.3 50.43 84.38 50.51 83.91 54.9 84.74 54.81 85.21 52.26 86.3"/>
  <polygon class="cls-11" points="52.35 85.83 50.51 83.91 53.01 82.93 54.9 84.74 52.35 85.83"/>
  <polygon class="cls-12" points="88.5 81.61 85.38 82.09 85 81.81 87.62 78.21 88.01 78.49 88.5 81.61"/>
  <rect class="cls-13" x="84.73" y="78.43" width="3.16" height="3.16" transform="translate(-11.38 14.37) rotate(-8.93)"/>
  <polygon class="cls-12" points="62.27 97.34 60.12 95.03 60.14 94.55 64.6 94.71 64.58 95.19 62.27 97.34"/>
  <rect class="cls-13" x="60.79" y="93.05" width="3.16" height="3.16" transform="translate(89.01 -15.53) rotate(46.98)"/>
</svg>