<?xml version="1.0" encoding="utf-8"?>
<!-- Generator: Adobe Illustrator 24.0.0, SVG Export Plug-In . SVG Version: 6.00 Build 0)  -->
<svg version="1.1" id="Ebene_1" xmlns="http://www.w3.org/2000/svg" xmlns:xlink="http://www.w3.org/1999/xlink" x="0px" y="0px"
	 viewBox="0 0 128 128.6" style="enable-background:new 0 0 128 128.6;" xml:space="preserve">
<path d="M126,114h-16V64c0-1.1-0.9-2-2-2c-1.1,0-2,0.9-2,2v50H22V64c0-1.1-0.9-2-2-2c-1.1,0-2,0.9-2,2v50H2c-1.1,0-2,0.9-2,2
	s0.9,2,2,2h124c1.1,0,2-0.9,2-2S127.1,114,126,114z"/>
<path d="M11,62c0.5,0,1-0.2,1.4-0.5l50.3-46.9c0.8-0.8,2.2-0.8,3.1,0l49.9,46.9c0.8,0.8,2.1,0.7,2.8-0.1c0.8-0.8,0.7-2.1-0.1-2.8
	L68.5,11.7c-2.3-2.2-6.2-2.2-8.5,0L9.6,58.5c-0.8,0.8-0.9,2-0.1,2.8C9.9,61.8,10.5,62,11,62z"/>
<path d="M43.4,45.5l20.4-18.9c0.2-0.2,0.4-0.4,0.5-0.5c0.1,0.1,0.3,0.2,0.5,0.5l19.8,18.8c0.8,0.8,2.1,0.7,2.8-0.1
	c0.8-0.8,0.7-2.1-0.1-2.8L67.5,23.7c-2.4-2.2-4.1-2.2-6.5,0L40.6,42.5c-0.8,0.8-0.9,2-0.1,2.8c0.4,0.4,0.9,0.6,1.5,0.6
	C42.5,46,43,45.8,43.4,45.5z"/>
<path d="M91,27.7c1.1,0,2-0.9,2-2V16h6v20c0,1.1,0.9,2,2,2c1.1,0,2-0.9,2-2V16c0-2.2-1.8-4-3.9-4h-6.2c-2.2,0-3.9,1.8-3.9,4v9.8
	C89,26.8,89.9,27.7,91,27.7z"/>
<path d="M43.8,87.9c1,1.2,12.5,14.8,17.7,20.9c0.7,0.8,1.6,1.2,2.6,1.2c0.9,0,1.9-0.4,2.5-1.2c0,0,16.7-19.8,17.7-20.9
	c3.6-4.4,5.8-10,5.8-16.1C90,57.5,78.4,46,64,46S38,57.5,38,71.7C38,77.9,40.2,83.5,43.8,87.9z M64,50c12.1,0,22,9.8,22,21.7
	c0,5-1.7,9.7-4.9,13.6c-0.7,0.9-11.2,13.3-17.1,20.3C50,89.1,47.2,85.8,46.9,85.4c-3.2-3.9-4.9-8.6-4.9-13.6C42,59.8,51.9,50,64,50z
	"/>
<path d="M64,83.3c6.4,0,11.6-5.2,11.6-11.5c0-6.4-5.2-11.5-11.6-11.5c-6.4,0-11.6,5.2-11.6,11.5C52.4,78.1,57.6,83.3,64,83.3z
	 M64,64.2c4.2,0,7.6,3.4,7.6,7.5s-3.4,7.5-7.6,7.5c-4.2,0-7.6-3.4-7.6-7.5S59.8,64.2,64,64.2z"/>
</svg>
