<svg xmlns="http://www.w3.org/2000/svg" viewBox="0 0 559.02 197.9" fill="currentColor" class="text-secondary w-50 py-2" style="height: 10vh;"><g><path d="M45.36 134.35a2.09 2.09 0 00-2.94.6 28.56 28.56 0 01-3.5 4 7.22 7.22 0 01-4.14 2.35 2.1 2.1 0 01-1.84-.55q-2.11-1.75-2.67-9.66a63.09 63.09 0 01.83-15.56q6.54-11.69 11.32-21.44c2.51.19 5.09.4 7.73.65q11.87 1 19.6-1.43t9.11-5.93a2 2 0 000-1.61 1.94 1.94 0 00-1.15-1.11 2.24 2.24 0 00-1.65 0 2.21 2.21 0 00-1.2 1.06 2.65 2.65 0 01-.92 1 12.08 12.08 0 01-2.11 1.2 26.09 26.09 0 01-3.36 1.24 33.49 33.49 0 01-4.65 1 46.87 46.87 0 01-6 .51 60.1 60.1 0 01-7.27-.28c-2.15-.18-4.2-.33-6.17-.46Q47.76 83 50 77.44c1.47-3.74 2.49-6.69 3.08-8.83A43.85 43.85 0 0054.24 63a16.83 16.83 0 00.23-3.32 3.38 3.38 0 00-.36-1.33A3.77 3.77 0 0051.35 56a5.15 5.15 0 00-3.87.79Q41 61.06 33.13 89.22 5.61 87.84.64 92.53A2.12 2.12 0 000 94.05a2.26 2.26 0 00.55 1.52 2.13 2.13 0 001.57.64 2 2 0 001.47-.55q3.59-3.41 28.34-2.21-3 11.51-5 20.89a.08.08 0 00-.09.09 75.4 75.4 0 00-1.06 10.26 51.28 51.28 0 00.83 11.41c.7 3.83 1.85 6.46 3.45 7.87a6.61 6.61 0 004.42 1.65h.82a10 10 0 003.82-1.42 16.5 16.5 0 003.41-2.76c1-1.08 1.76-1.92 2.25-2.53s.89-1.14 1.2-1.57a2.11 2.11 0 00.27-1.61 2.16 2.16 0 00-.89-1.38zm4.51-74c.25-.12.37-.21.37-.27q1 1.85-1.93 9.89t-8.56 19.62c-1-.06-1.81-.13-2.3-.19q7.46-25.75 12.42-29.08zM36.25 93.73h1.48c-1 2.14-2.06 4.17-3 6.07q.69-3.04 1.52-6.07z" class="cls-1"></path><path d="M152.16 112.69c2.08-3 4.77-8 8.51-14.53s7-12.61 9.62-18.13a115.65 115.65 0 006.53-16.57q2.53-8.28 1.24-12.23a5.8 5.8 0 00-3.77-3.87.84.84 0 00-.37-.09q-3.58-.56-7.5 2.81a36.87 36.87 0 00-7.4 9.24 106.44 106.44 0 00-6.63 13.35A141.84 141.84 0 00147 88a132.66 132.66 0 00-3.5 15 94 94 0 00-1.32 11.89c-.14 1.25-.06 1.47-.49 1.9a52.41 52.41 0 01-3.89 3.65q-2.4 2.07-5.34 4.23a39.22 39.22 0 01-5.61 3.5 19.68 19.68 0 01-5.11 1.79 4 4 0 01-3.82-.92q-2.3-2.11-1.84-6.81c1.84-1.16 3.62-2.35 5.34-3.54S125 116 127 114.3a25 25 0 004.83-5.1 6.76 6.76 0 001.47-4.6q-.47-2.85-4.14-3.87c-2.51-.67-5 0-7.54 2.16a26.8 26.8 0 00-6.35 8 36.27 36.27 0 00-2.29 5.36 7.55 7.55 0 01-2.29 3.07q-1.84 1.84-6.26 2.62a33.62 33.62 0 01-8.7.42 15.12 15.12 0 01-6.12-1.48 3.77 3.77 0 00-1-.73 1.83 1.83 0 00-2.76.55 1.79 1.79 0 00-.46 1.43 2.19 2.19 0 00.65 1.33 2.69 2.69 0 00.92.74q2.57 2.85 3.58 14.44a99 99 0 01-1 24.3 39.49 39.49 0 01-3 10.58c-1.29 2.63-2.67 4.11-4.14 4.41a.91.91 0 01-.65-.27q-2.3-2.21-2.62-12.84a101.7 101.7 0 011-18.82q1.19-8.92 5.61-27.6l4.87-7.13q2.67-3.92 7.6-11.92t8.46-14.72a96 96 0 005.83-13.53q2.35-6.81 1.52-10.3a5.94 5.94 0 00-3-4 6.06 6.06 0 00-5.61.18q-3.32 1.75-6.76 7.82a89.62 89.62 0 00-6.54 15.1Q89 89 86.55 97.74t-4.83 18.91a4.88 4.88 0 01-.83 1.38c-.61.8-1.35 1.67-2.2 2.62a43.39 43.39 0 01-3.18 3.13 23.9 23.9 0 01-3.63 2.76 15.66 15.66 0 01-3.59 1.61 3.41 3.41 0 01-3.13-.37c-.8-.73-1-2.36-.6-4.87a45.72 45.72 0 012.62-9q1.57-3.31 2.86-6.53a1.8 1.8 0 000-1.57 2.31 2.31 0 00-1.15-1.19 1.88 1.88 0 00-1.57 0 2.66 2.66 0 00-1.24 1.06v.18a6.73 6.73 0 00-2.08-2.28 5.46 5.46 0 00-4.69-.46c-2 .56-4.17 2.12-6.63 4.7a39.41 39.41 0 00-6.3 8.83c-1.75 3.31-2.59 6.17-2.53 8.56.06 3.37 1.6 5.49 4.6 6.35q5.52 1.47 11.69-6.08.09 4.33 2.85 6a7.71 7.71 0 004 1.11 11.5 11.5 0 004.69-1.11 21.73 21.73 0 004.42-2.57 37.55 37.55 0 003.6-3.15c-.4 1.82-.79 3.63-1.16 5.45q-1.42 7-2.07 10.4c-.43 2.27-.68 3.55-.74 3.86-.06.61-.17 1.69-.32 3.22s-.32 4-.51 7.41-.23 6.61-.14 9.62a48.15 48.15 0 001.11 8.88c.64 2.91 1.58 5 2.8 6.21a5.17 5.17 0 003.5 1.38h.92q7.73-1.38 10.68-18.41a88.36 88.36 0 001.38-19.46q-.28-11.37-2.49-18a31.46 31.46 0 0011.64 0 21.46 21.46 0 007.43-2.42 16.66 16.66 0 00.21 2.23 10.09 10.09 0 003.08 6 8.62 8.62 0 005.75 2 17.71 17.71 0 007.46-1.94 39.92 39.92 0 007.82-4.92c2.48-2 4.38-3.59 5.7-4.78l.51-.47a37.24 37.24 0 001.56 8.29q3.31 10.35 12.33 12.1a16.35 16.35 0 003 .27 15 15 0 005.79-1.19 21 21 0 004.74-2.67 27.53 27.53 0 003.59-3.36c1.14-1.26 13.93-17.72 15.36-27.25.11-.7.69-1.06.87-1.43a1.93 1.93 0 00.23-1.61 2.15 2.15 0 00-1-1.33 2 2 0 00-1.61-.23 2.16 2.16 0 00-1.34 1c-.12.3-.61.61-.73 1.24-1.68 8.76-14.15 25.84-15.22 27a25.74 25.74 0 01-3.36 3 14.18 14.18 0 01-4.33 2.07 10.86 10.86 0 01-5.15.32c-6.26-1.22-10-8.66-10.69-18.65a55.38 55.38 0 005.86-6.9zm-33.08.28a23.31 23.31 0 014.28-5.84q2.34-2.26 4.19-2.26a1.81 1.81 0 01.55.09c.67.13 1 .22 1 .28q0 1.29-3.31 4.33a80.76 80.76 0 01-8.19 6.44 27.47 27.47 0 011.48-3.01zm-11.69-52.08a1.85 1.85 0 011-.37 1.52 1.52 0 01.64.18 1.55 1.55 0 01.74 1.11q.83 3.12-2.35 10.86a134.33 134.33 0 01-8 16.1q-4.83 8.37-10.72 17.57Q99.48 65 107.39 60.89zM63.69 111c-.19.43-.34.8-.46 1.1A63.68 63.68 0 0156 123.6c-2.48 3-4.61 4.31-6.39 3.82a2.06 2.06 0 01-1.47-2.21q-.11-4.14 4.46-10.58t8-7.46a2.28 2.28 0 01.64-.09c1.37.11 2.88 2.25 2.45 3.92zm84-7.46a122.38 122.38 0 014.83-19 132.53 132.53 0 016.85-16.84 67.3 67.3 0 017.28-11.7c2.46-3.07 4.54-4.6 6.26-4.6h.18a2 2 0 01.92 1.2q1.29 4-3 14.81A204.18 204.18 0 01160.4 90q-6.36 11.69-13.9 23.64a85 85 0 011.2-10.06z" class="cls-1"></path><circle cx="447.03" cy="98.12" r="1.96" class="cls-1"></circle><path d="M558.38 117.76a1.93 1.93 0 00-1.52-.6 2.24 2.24 0 00-1.52.69q-1.85 1.94-4.23 4c-1.6 1.38-3.38 2.8-5.34 4.24a39.09 39.09 0 01-5.61 3.49 19.86 19.86 0 01-5.11 1.8 4 4 0 01-3.82-.92c-1.53-1.41-2.15-3.68-1.84-6.81q2.76-1.75 5.34-3.54t5.66-4.33a25 25 0 004.83-5.11 6.8 6.8 0 001.47-4.6q-.47-2.85-4.14-3.86c-2.52-.68-5 0-7.55 2.16a27.12 27.12 0 00-6.35 8 35.79 35.79 0 00-2.7 6.74c-1.15 2.14-5.18 3.8-8.12 4.32a33.22 33.22 0 01-8.7.41 15 15 0 01-6.12-1.47 4 4 0 00-1-.74 1.83 1.83 0 00-2.76.56 1.77 1.77 0 00-.46 1.42 2.25 2.25 0 00.64 1.34 2.86 2.86 0 00.92.73q2.58 2.85 3.59 14.45a98.92 98.92 0 01-1 24.29 39.34 39.34 0 01-3 10.58q-1.92 4-4.14 4.42a.86.86 0 01-.64-.28q-2.29-2.2-2.62-12.83a101.72 101.72 0 011-18.82q1.2-8.92 5.62-27.6l4.87-7.14q2.67-3.9 7.59-11.91T520 86.1a96.5 96.5 0 005.89-13.52q2.34-6.81 1.52-10.31a5.92 5.92 0 00-3-4 6.06 6.06 0 00-5.61.18q-3.32 1.76-6.77 7.82a89.88 89.88 0 00-6.53 15.09q-3.09 9-5.52 17.81t-4.83 18.91a2.06 2.06 0 00-.09.64q-1.25 5.16-2.33 10.37a22.6 22.6 0 01-1.24 2.72 28.28 28.28 0 01-2.16 2.49 26.49 26.49 0 01-3.36 3 14.18 14.18 0 01-4.33 2.07 10.86 10.86 0 01-5.15.32q-9.39-1.84-10.49-16.84a1.44 1.44 0 00.46-.46q2.29-3.58 5.2-8.28t8.51-14.54q5.61-9.84 9.62-18.13a116 116 0 006.53-16.56q2.53-8.28 1.24-12.24a5.78 5.78 0 00-3.77-3.86.84.84 0 00-.37-.09q-3.58-.55-7.5 2.8a36.93 36.93 0 00-7.4 9.25 106.28 106.28 0 00-6.63 13.34 142.6 142.6 0 00-5.43 15.32 132.8 132.8 0 00-3.5 15 94.93 94.93 0 00-1.27 10.94c-1.94 4.46-5.34 7.53-9.39 11s-6.93 4.59-8.95 3.62a.56.56 0 01-.26-.22 7.26 7.26 0 01-.45-3.54 43.1 43.1 0 011.33-8 97.39 97.39 0 013.03-10.56 2.6 2.6 0 00.09-1.15 2.22 2.22 0 00-.46-1 1.91 1.91 0 00-.92-.64 2 2 0 00-1.61.09 1.93 1.93 0 00-1.06 1.19q-1.29 3.51-2.3 7t-1.93 8a26.1 26.1 0 00-.58 5.91 4.88 4.88 0 01-1.85 3.28 5.67 5.67 0 01-3 1.2 3.73 3.73 0 01-2.94-1.2q-1.2-1.19-2.12-10.76c-.18-1.9-.32-3.33-.41-4.28s-.28-2.16-.56-3.63a18.78 18.78 0 00-.87-3.36 10.14 10.14 0 00-1.29-2.26 4 4 0 00-2-1.47q-3-1.2-6.4 3.31t-10.17 17.67a158.77 158.77 0 01-7.82 13.89 51.53 51.53 0 01.92-8.05q.92-5.28 2.58-12.1c2-3.06 4-6.35 6.21-9.84s5-8.33 8.56-14.5 6.51-11.74 9-16.74a94.07 94.07 0 005.75-14.45q2.07-6.94.6-9.8a4.56 4.56 0 00-4.42-2.44q-3.4 0-6.9 4.51a53.92 53.92 0 00-5.89 10.16q-3.13 6.67-6.44 15.83t-6.35 19.92q-1.67 5.7-3 11.09c-5.2 5.39-14.85 13.89-25.63 15.82l.78 4.38c9-1.62 17.12-7.12 23-12.22q-3.84 17-2.65 21.42a3.24 3.24 0 002.77 2.76h.31q2.11 0 4.56-3.54a157.31 157.31 0 007.87-14q9-17.38 11.5-18.86 1.29 1.2 2.21 11.23c.18 2.57.36 4.51.55 5.79a28.87 28.87 0 001 4.24 8 8 0 001.8 3.4 7.79 7.79 0 006.26 2.39 9.79 9.79 0 004.87-1.74 18.21 18.21 0 001.47-1.12 3.88 3.88 0 00.92.75 8 8 0 003.59.83 13.52 13.52 0 006.72-2.17 32.5 32.5 0 007-5.61c1.29-1.34 2.4-2.54 3.36-3.62a38 38 0 001.61 8.77q3.31 10.35 12.33 12.1a15.43 15.43 0 002.95.28 14.8 14.8 0 005.79-1.2 20.57 20.57 0 004.74-2.67c.53-.41 1-.86 1.56-1.32-.31 1.59-.57 2.93-.78 4-.42 2.27-.67 3.56-.73 3.87-.06.61-.17 1.68-.32 3.22s-.33 4-.51 7.41-.23 6.61-.14 9.61a47.1 47.1 0 001.11 8.88c.64 2.91 1.58 5 2.8 6.21a5.17 5.17 0 003.5 1.38h.92q7.73-1.38 10.67-18.4a87.2 87.2 0 001.38-19.46q-.27-11.37-2.48-18a31.46 31.46 0 0011.64 0 21.55 21.55 0 007.42-2.41 18.7 18.7 0 00.22 2.23 10.09 10.09 0 003.08 6 8.59 8.59 0 005.75 2 17.64 17.64 0 007.45-1.93 39.34 39.34 0 007.82-4.92c2.49-2 4.39-3.59 5.71-4.79s2.44-2.28 3.36-3.26a2.26 2.26 0 00.55-1.52 2.1 2.1 0 00-.7-1.47zm-26-3.31a23.37 23.37 0 014.28-5.85q2.34-2.25 4.18-2.25a1.71 1.71 0 01.55.09c.68.12 1 .22 1 .28q0 1.29-3.32 4.32a77.26 77.26 0 01-8.19 6.44 26.51 26.51 0 011.55-3.03zm-11.64-52.09a1.91 1.91 0 011-.36 1.53 1.53 0 01.65.18 1.47 1.47 0 01.73 1.1c.56 2.09-.23 5.71-2.34 10.86a135.94 135.94 0 01-8 16.11q-4.83 8.37-10.72 17.57 10.77-41.31 18.68-45.46zm-53.64 42.7a122.78 122.78 0 014.83-19 132.35 132.35 0 016.85-16.83 67.3 67.3 0 017.27-11.78c2.46-3.07 4.54-4.6 6.26-4.6h.18a2 2 0 01.92 1.19q1.29 4-3 14.82a204.07 204.07 0 01-10.61 22.58q-6.36 11.69-13.9 23.65a87.2 87.2 0 011.2-10.03zM415 77.46q5-13 9.52-18.78c1.48-2 2.61-2.94 3.41-2.94a1.37 1.37 0 01.74.28q1.1 2.11-1.8 9.8a154.88 154.88 0 01-8.42 18q-5.52 10.32-12.7 22A297.89 297.89 0 01415 77.46z" class="cls-1"></path><path id="wheat" d="M330.55 36.07v-3.44a2.75 2.75 0 00-2.74-2.75h-3.45A22.79 22.79 0 00305.2 40.3a20.42 20.42 0 00-4.17-6l-3.62-3.62a2.75 2.75 0 00-3.88 0l-3.62 3.62a20.3 20.3 0 00-6 14.49 21.47 21.47 0 00.41 4.15c-.29-.34-.6-.68-.93-1l-3.62-3.62a2.73 2.73 0 00-3.88 0L272.27 52a20.3 20.3 0 00-6 14.49 21.47 21.47 0 00.41 4.15c-.29-.34-.6-.68-.93-1L262.13 66a2.75 2.75 0 00-3.88 0l-3.62 3.62a20.48 20.48 0 000 29l1.68 1.69-18.64 18.64a2.74 2.74 0 003.88 3.88l18.64-18.64 1.68 1.68a20.5 20.5 0 0029 0l3.62-3.62a2.75 2.75 0 000-3.88l-3.62-3.62c-.32-.33-.66-.64-1-.93a20.64 20.64 0 004.15.41 20.3 20.3 0 0014.48-6l3.63-3.62a2.75 2.75 0 000-3.88L308.49 77c-.33-.32-.66-.63-1-.93a20.65 20.65 0 004.15.42 20.34 20.34 0 0014.49-6l3.62-3.62a2.75 2.75 0 000-3.88l-3.62-3.63a20.76 20.76 0 00-6-4.16 22.77 22.77 0 0010.42-19.17zm-36.76 2.12l1.68-1.68 1.68 1.69a15 15 0 010 21.19l-1.68 1.68-1.68-1.69a15 15 0 010-21.2zM289 62.29c.29.34.6.67.92 1l7.25 7.24c.32.33.65.63 1 .93a20.76 20.76 0 00-9.44.27 20.9 20.9 0 00.27-9.44zm-12.83-6.46l1.68-1.68 1.68 1.68a15 15 0 010 21.2l-1.68 1.69-1.7-1.72a15 15 0 010-21.2zm-4.81 24.1q.44.51.93 1l7.24 7.25c.32.32.65.63 1 .93a20.62 20.62 0 00-9.44.27 20.76 20.76 0 00.27-9.44zm-9.47 14.75l-1.68 1.69-1.68-1.69a15 15 0 010-21.2l1.68-1.68 1.68 1.68a15 15 0 010 21.2zm25.11 7.25a15 15 0 01-21.21 0l-1.68-1.68 1.68-1.69a15 15 0 0121.2 0l1.69 1.69zm17.6-17.64a15 15 0 01-21.2 0l-1.68-1.68 1.68-1.68a15 15 0 0121.2 0l1.69 1.68zm17.64-21l1.69 1.71-1.69 1.68a15 15 0 01-21.2 0L299.35 65l1.65-1.72a15 15 0 0121.2 0zm-14.51-9.89H307v-.7a17.34 17.34 0 0117.32-17.33h.71v.7a17.33 17.33 0 01-17.3 17.33z" class="cls-1"></path><path d="M283.71 0a99 99 0 1099 99 99.06 99.06 0 00-99-99zm26.38 185.06c1.21-16.52 5.43-15.07 16-21.65 11.77-7.35 10.21-8.28 14.29-10.84s11.38-22 12-26 .15-5.7 0-16.37.61-10.78-3.77-11.84-5.67 18.84-5.29 21 2.89 4.7 2.89 4.7 1.68.65-2.73 8.37-9.55 12.14-10.4 11.84 9.61-13.4 11.37-16.33a3.79 3.79 0 00-.49-4.9s-4.79-4.71-14 6.7-15.85 13-25.38 14.31-15.52 11.06-18.7 17.35c-2.54 5-2.27 21.34-2.06 27.65h-3.01c.21-6.35.48-22.59-2.06-27.6-3.18-6.29-9.16-16.06-18.69-17.35s-16.2-2.91-25.38-14.31-14-6.7-14-6.7a3.79 3.79 0 00-.49 4.9c1.76 2.93 12.22 16 11.36 16.33s-6-4.12-10.39-11.84-2.74-8.37-2.74-8.37 2.51-2.55 2.89-4.7-.9-22-5.29-21-3.62 1.18-3.77 11.84-.61 12.38 0 16.37 7.9 23.47 12 26 2.52 3.49 14.29 10.84c10.35 6.46 14.62 5.18 15.91 20.72a90.06 90.06 0 1155.62.93z" class="cls-1"></path></g></svg>