<?xml version="1.0" encoding="utf-8"?>
<!-- Generator: Adobe Illustrator 24.0.0, SVG Export Plug-In . SVG Version: 6.00 Build 0)  -->
<svg version="1.1" id="Design" xmlns="http://www.w3.org/2000/svg" xmlns:xlink="http://www.w3.org/1999/xlink" x="0px" y="0px"
	 viewBox="0 0 57 57" style="enable-background:new 0 0 57 57;" xml:space="preserve">
<style type="text/css">
	.st0{fill:none;stroke:#FFFFFF;stroke-width:2.6245;stroke-miterlimit:10;}
	.st1{fill:none;stroke:#FFFFFF;stroke-width:2.7551;stroke-linejoin:round;stroke-miterlimit:10;}
</style>
<path d="M36.1,1.1H21.2c-11.1,0-20,9-20,20v14.9c0,11.1,9,20,20,20h14.9c11.1,0,20-9,20-20V21.2C56.1,10.1,47.2,1.1,36.1,1.1z
	 M44.5,18.7c0,0.1,0,0.3-0.2,0.5c-0.7,1-1.5,1.9-2.5,2.6c-0.1,0.1-0.4,0.2-0.4,0.4c0,5.3-1.3,10.5-5.2,14.3
	c-4.9,4.8-12.2,6.2-18.7,4.4c-1.3-0.3-2.5-0.8-3.6-1.4c-0.4-0.2-0.8-0.4-1.1-0.7c-0.1-0.1-0.2-0.1-0.1-0.2c0.1,0,0.1,0,0.4,0
	c1.8,0.2,3.7-0.1,5.4-0.7c0.9-0.3,3-1,3.6-1.9c0,0,0,0,0,0C22,36,21.7,36,21.5,35.9c-1.8-0.5-4.1-1.4-5.2-4.4
	c-0.1-0.2,0-0.3,0.2-0.2c1.5,0.1,2,0,2.5-0.1c-0.3,0-0.6-0.1-0.8-0.3c-2.2-0.8-3.8-3-4.1-5.4c0-0.3-0.1-0.5,0-0.8
	c0-0.2,0.1-0.2,0.2-0.1c1.1,0.6,2.4,0.7,2.5,0.7c-0.3-0.2-0.5-0.5-0.8-0.7c-1.9-1.8-2.7-5.5-1.1-7.9c0.1-0.2,0.2-0.2,0.4,0
	c3.5,4,7.9,5.9,13.1,6.7c0.1,0,0.2,0,0.1-0.2c-0.1-0.9-0.2-1.8,0.1-2.7c0.2-0.9,0.7-1.8,1.3-2.6c0.6-0.7,1.3-1.3,2.2-1.8
	c0.8-0.4,1.8-0.7,2.7-0.8c1-0.1,1.9,0.1,2.8,0.5c0.7,0.3,1.3,0.7,1.8,1.1c0.1,0.1,0.2,0.2,0.3,0.3c0.1,0.1,0.2,0.1,0.3,0.1
	c1.3-0.3,2.6-0.8,3.8-1.5c0.1,0,0.1,0,0.2,0c0.1,0,0,0.1,0,0.2c-0.2,0.7-0.6,1.4-1.1,1.9c-0.3,0.4-1.1,1.3-1.6,1.4
	c1.1-0.2,2.2-0.5,3.2-0.9C44.5,18.6,44.5,18.6,44.5,18.7C44.5,18.7,44.5,18.7,44.5,18.7z"/>
</svg>
