<?xml version="1.0" standalone="no"?>
<!DOCTYPE svg PUBLIC "-//W3C//DTD SVG 20010904//EN"
 "http://www.w3.org/TR/2001/REC-SVG-20010904/DTD/svg10.dtd">
<svg version="1.0" xmlns="http://www.w3.org/2000/svg"
 width="420.000000pt" height="420.000000pt" viewBox="0 0 420.000000 420.000000"
 preserveAspectRatio="xMidYMid meet">

<g transform="translate(0.000000,420.000000) scale(0.100000,-0.100000)"
fill="#8A2547" stroke="none">
<path d="M1640 3786 c-239 -139 -615 -356 -835 -484 l-400 -231 0 -976 0 -976
325 -188 c179 -103 556 -321 839 -485 283 -163 520 -295 526 -294 7 2 388 221
848 487 l837 483 0 973 0 973 -837 483 c-460 266 -843 485 -852 486 -9 1 -212
-112 -451 -251z m1232 -364 l757 -437 0 -890 0 -890 -762 -440 c-419 -241
-768 -439 -777 -439 -8 0 -325 179 -705 399 -379 219 -723 417 -762 439 l-73
41 1 890 0 890 177 102 c97 55 442 255 767 442 352 204 596 339 605 335 8 -3
356 -202 772 -442z"/>
<path d="M2035 2905 c-132 -51 -194 -210 -131 -340 48 -98 198 -253 374 -388
l62 -48 88 67 c48 37 137 117 198 179 90 90 119 126 149 188 33 68 37 82 32
127 -17 144 -134 241 -273 227 -64 -7 -122 -35 -161 -80 l-30 -35 -35 37 c-19
21 -52 46 -74 56 -51 25 -147 29 -199 10z"/>
<path d="M2795 2001 c-16 -10 -109 -98 -205 -195 l-175 -176 -180 0 -181 0
-34 35 c-39 41 -49 35 130 70 120 23 138 29 163 56 30 33 34 66 12 108 -25 50
-46 52 -366 49 -286 -3 -295 -4 -340 -27 -29 -14 -111 -88 -218 -195 l-171
-171 160 -160 160 -160 62 62 c35 34 76 67 91 72 18 7 157 11 378 11 283 0
355 3 377 14 15 8 132 120 260 249 229 231 232 234 232 276 0 84 -83 127 -155
82z"/>
</g>
</svg>
