<?xml version="1.0" encoding="utf-8"?>
<!-- Generator: Adobe Illustrator 24.0.0, SVG Export Plug-In . SVG Version: 6.00 Build 0)  -->
<svg version="1.1" id="Ebene_1" xmlns="http://www.w3.org/2000/svg" xmlns:xlink="http://www.w3.org/1999/xlink" x="0px" y="0px"
	 viewBox="0 0 128 136.1" style="enable-background:new 0 0 128 136.1;" xml:space="preserve">
<style type="text/css">
	.st0{fill:none;stroke:#000000;stroke-width:4.5;stroke-linecap:round;stroke-miterlimit:10;}
	.st1{fill:none;stroke:#000000;stroke-width:4.5;stroke-linecap:round;stroke-linejoin:round;stroke-miterlimit:10;}
</style>
<line class="st0" x1="57.4" y1="8.8" x2="57.4" y2="122.9"/>
<path class="st1" d="M9.9,88.2v26.5c0,0-0.5,5.5,5.8,5.5s6.3-5.5,6.3-5.5V81v33.7c0,0-0.4,5.5,5.7,5.5s6.2-5.6,6.2-5.6V81.7h6
	c0,0,0-22.9,0-29.6S35,41.8,30.2,41.8s-13,0-16.9,0c-5.2,0-9.4,4.8-9.4,9.4s0,30.7,0,30.7"/>
<circle class="st1" cx="21.9" cy="21.5" r="10.4"/>
<line class="st1" x1="75.6" y1="106.3" x2="75.6" y2="92"/>
<path class="st1" d="M86.5,71.5v22.2h23.9V81.8h6.1c0,0,0-23.3,0-29.4s-3.8-10.8-9.9-10.8c-1.5,1.8-8,10.7-8,10.7"/>
<path class="st1" d="M89.5,41.6c-4,0.6-9.5,3.2-10.2,8.6c-0.7,5.3-3.7,32.2-3.7,32.2"/>
<polyline class="st1" points="114.3,119.9 93.5,119.9 93.5,93.7 "/>
<line class="st1" x1="103.4" y1="94.3" x2="103.4" y2="119"/>
<line class="st1" x1="124.8" y1="119.9" x2="124.8" y2="119.9"/>
<circle class="st1" cx="98.6" cy="21.5" r="10.4"/>
</svg>
