<?xml version="1.0" encoding="utf-8"?>
<!-- Generator: Adobe Illustrator 24.0.0, SVG Export Plug-In . SVG Version: 6.00 Build 0)  -->
<svg version="1.1" id="Design" xmlns="http://www.w3.org/2000/svg" xmlns:xlink="http://www.w3.org/1999/xlink" x="0px" y="0px"
	 viewBox="0 0 57 57" style="enable-background:new 0 0 57 57;" xml:space="preserve">
<style type="text/css">
	.st0{fill:#000;stroke:#FFFFFF;stroke-width:2.6245;stroke-miterlimit:10;}
	.st1{fill:none;stroke:#FFFFFF;stroke-width:2.7551;stroke-linejoin:round;stroke-miterlimit:10;}
</style>
<path d="M36.4,1.1H21.5c-11.1,0-20,9-20,20v14.9c0,11.1,9,20,20,20h14.9c11.1,0,20-9,20-20V21.1C56.5,10.1,47.5,1.1,36.4,1.1z
	 M36.6,17.5c0,0.2-0.2,0.4-0.4,0.4h-3.3c-0.8,0-1.5,0.7-1.5,1.5v3.4h4.7c0.2,0,0.4,0.2,0.4,0.4l-0.4,4.8c0,0.2-0.2,0.4-0.4,0.4h-4.3
	v16.1c0,0.2-0.2,0.4-0.4,0.4h-5.9c-0.2,0-0.4-0.2-0.4-0.4V28.7v-0.3h-2.9c-0.2,0-0.4-0.2-0.4-0.4v-4.8c0-0.2,0.2-0.4,0.4-0.4h2.9
	v-4.7c0-3.3,2.6-5.9,5.9-5.9h5.5c0.2,0,0.4,0.2,0.4,0.4V17.5z"/>
</svg>
