<?xml version="1.0" encoding="UTF-8"?>
<svg width="35px" height="60px" viewBox="0 0 35 60" version="1.1" xmlns="http://www.w3.org/2000/svg" xmlns:xlink="http://www.w3.org/1999/xlink">
    <title>Help Needed</title>
    <defs>
        <ellipse id="path-1" cx="18" cy="51.5" rx="9" ry="2.5"></ellipse>
        <filter x="-50.0%" y="-180.0%" width="200.0%" height="460.0%" filterUnits="objectBoundingBox" id="filter-2">
            <feOffset dx="0" dy="0" in="SourceAlpha" result="shadowOffsetOuter1"></feOffset>
            <feGaussianBlur stdDeviation="3" in="shadowOffsetOuter1" result="shadowBlurOuter1"></feGaussianBlur>
            <feColorMatrix values="0 0 0 0 0   0 0 0 0 0   0 0 0 0 0  0 0 0 0.25 0" type="matrix" in="shadowBlurOuter1"></feColorMatrix>
        </filter>
    </defs>
    <g id="Help Needed" stroke="none" stroke-width="1" fill="none" fill-rule="evenodd">
        <g id="Help-1">
            <g id="Location-Help">
                <g id="Oval" fill="black" fill-opacity="1">
                    <use filter="url(#filter-2)" xlink:href="#path-1"></use>
                </g>
                <path d="M17.5,51.875303 C17.5,51.875303 35,34 35,17.5 C35,7.83501688 27.1649831,0 17.5,0 C7.83501688,0 0,7.83501688 0,17.5 C0,34 17.5,51.875303 17.5,51.875303 Z" id="Oval" fill="#B6223E"></path>
            </g>
            <g id="Group-6" transform="translate(10.000000, 8.000000)" fill="#FFFFFF">
                <path d="M9.56232277,3.93878812 C9.56232277,5.31947703 8.44309841,6.43878812 7.06232277,6.43878812 C5.68163386,6.43878812 4.56232277,5.31947703 4.56232277,3.93878812 C4.56232277,2.55809921 5.68163386,1.43878812 7.06232277,1.43878812 C8.44309841,1.43878812 9.56232277,2.55809921 9.56232277,3.93878812" id="Fill-1"></path>
                <path d="M7.13113663,15.5341693 C7.13113663,15.5341693 5.70174059,23.5757139 5.5528396,24.2087436 C5.40393861,24.841595 4.39870099,25.1711198 3.84025545,25.0808525 C3.28189901,24.990496 2.64895842,24.3948921 2.68611683,23.7619515 C2.72336436,23.1290109 4.59687921,13.2625158 4.7088,12.6167436 C4.86554257,11.713001 4.36047327,11.6973178 4.29667129,10.928397 C4.25568119,10.4345554 4.51115644,9.97350594 4.44432475,9.3131198 C1.99472079,7.79675347 0.818928713,6.63717921 0.0428792079,1.75917921 C-0.217764356,0.121090099 0.787473267,0.143634653 0.973532673,0.106387129 C1.1597703,0.0692287129 2.01610693,-0.0357415842 2.27657228,1.43874356 C2.53721584,2.91331782 2.57989901,3.12423861 3.3457901,5.13881287 C3.86627525,6.50797129 5.40794851,7.29382277 7.13113663,7.26922871 C13.4774733,7.17833762 12.0266911,12.9437733 17.2974832,16.458496 C19.1264436,17.6782188 16.6252455,17.9721 13.805305,20.0917337 C13.3707208,20.4184069 11.2338,16.7642287 10.5287703,14.3450109 C9.95107723,12.3624267 9.62921584,10.7360109 9.55748317,12.5923277 C9.54019604,13.0401 11.4351861,22.3844168 11.6213347,23.3895653 C11.8074832,24.3948921 11.137295,24.8787535 10.616097,25.0277436 C10.094899,25.1766446 9.01525545,25.0502881 8.82910693,24.1567931 L7.13113663,15.5341693 Z" id="Fill-3"></path>
            </g>
        </g>
    </g>
</svg>