<?xml version="1.0" encoding="UTF-8"?>
<svg width="21px" height="30px" viewBox="0 0 21 30" version="1.1" xmlns="http://www.w3.org/2000/svg" xmlns:xlink="http://www.w3.org/1999/xlink">
    <title>help gender</title>
    <g id="help_gender" stroke="none" stroke-width="1" fill="none" fill-rule="evenodd">
        <g id="01" transform="translate(-225.000000, -2030.000000)">
            <g id="I_need_help" transform="translate(210.000000, 2018.000000)">
                <g id="Group-6" transform="translate(15.000000, 12.000000)" fill="#FFFFFF">
                    <path d="M11.3166505,4.67555644 C11.3166505,6.3307099 9.97493762,7.67252673 8.3196802,7.67252673 C6.66452673,7.67252673 5.3227099,6.3307099 5.3227099,4.67555644 C5.3227099,3.02040297 6.66452673,1.67858614 8.3196802,1.67858614 C9.97493762,1.67858614 11.3166505,3.02040297 11.3166505,4.67555644" id="Fill-1"></path>
                    <path d="M8.31965941,18.1231975 C8.31965941,18.1231975 6.65203069,27.5049995 6.47831287,28.2435342 C6.30459505,28.9818609 5.13181782,29.3663064 4.48029802,29.2609946 C3.82888218,29.1555787 3.09045149,28.4607074 3.13380297,27.7222767 C3.17725842,26.983846 5.36302574,15.4729351 5.4936,14.7195342 C5.67646634,13.6651678 5.08721881,13.6468708 5.01278317,12.7497965 C4.96496139,12.173648 5.26301584,11.6357569 5.18504554,10.8653064 C2.32717426,9.09621238 0.955416832,7.74337574 0.0500257426,2.05237574 C-0.254058416,0.141271782 0.918718812,0.167573762 1.13578812,0.124118317 C1.35306535,0.0807668317 2.35212475,-0.0416985149 2.65600099,1.67853416 C2.96008515,3.39887079 3.00988218,3.64494505 3.90342178,5.99528168 C4.51065446,7.59263317 6.30927327,8.5094599 8.31965941,8.48076683 C15.7237188,8.37472723 14.0311396,15.1010688 20.180397,19.2015787 C22.3141842,20.6245886 19.3961198,20.96745 16.1061891,23.4403559 C15.5991743,23.8214748 13.1061,19.5582668 12.2835653,16.735846 C11.6095901,14.4228312 11.2340851,12.525346 11.150397,14.691049 C11.1302287,15.21345 13.3410505,26.115153 13.5582238,27.2878262 C13.775397,28.4607074 12.9935109,29.0252124 12.3854465,29.1990342 C11.7773822,29.372752 10.517798,29.2253361 10.3006248,28.1829252 L8.31965941,18.1231975 Z" id="Fill-3"></path>
                </g>
            </g>
        </g>
    </g>
</svg>