<?xml version="1.0" encoding="UTF-8"?>
<svg width="29px" height="30px" viewBox="0 0 29 30" version="1.1" xmlns="http://www.w3.org/2000/svg" xmlns:xlink="http://www.w3.org/1999/xlink">
    <title>Hero White</title>
    <g id="Web-&amp;-App-V2" stroke="none" stroke-width="1" fill="none" fill-rule="evenodd">
        <g id="Home-Map-(V2)" transform="translate(-25.000000, -2030.000000)">
            <g id="Ich-möchte-helfen" transform="translate(12.000000, 2018.000000)">
                <g id="Group-3" transform="translate(27.518519, 27.000000) rotate(-6.000000) translate(-27.518519, -27.000000) translate(13.000000, 13.000000)" fill="#FFFFFF">
                    <path d="M16.023546,18.6342842 C16.4126603,19.3818928 16.3342831,20.4947033 15.8212287,21.2883062 L11.8933915,27.1711075 C11.711694,27.4638196 11.4356556,27.6939059 11.1223687,27.835674 C10.5525546,28.0931735 9.858357,28.0561257 9.32091366,27.6671811 C8.45965185,27.073728 8.25544999,25.8672083 8.84144947,25.0054741 L9.73031511,23.65581 L10.1062372,23.0998636 L12.4094391,19.6362954 L11.1290203,16.8454373 C10.7518787,16.032909 10.5524438,14.9613901 11.0085168,14.1934798 C11.0085168,14.1934798 13.3736887,11.3771585 14.2390523,10.2611364 C14.4703037,9.96280407 13.5927457,10.2531074 13.6187975,10.2086042 C9.66391071,12.7337045 5.64018065,18.3089976 2.97247512,20.427719 C2.49345435,20.8197605 1.75668694,20.5209694 1.63407714,19.9095086 C1.37655221,18.6568799 0.683019718,16.9345584 0.0536744586,15.0427118 C-0.116937194,14.5581081 0.132495047,14.0241839 0.61317869,13.877025 C3.7663348,12.9078177 10.9105176,7.57167228 13.3087255,6.66291144 C15.934859,5.65115083 17.2891098,6.68871874 19.0228301,7.09842386 C19.8772187,7.27379876 21.1444453,7.54322691 23.0864693,7.96417254 C23.4584005,8.04159442 23.8341009,8.04732938 24.2133488,7.98126271 L27.2629628,7.40983187 C28.0783291,7.25177654 28.898684,7.82871293 29.0068822,8.72749494 C29.1507768,9.46982741 28.7677598,10.1696065 28.1124736,10.4658742 C28.0270015,10.5044131 27.9131495,10.555913 27.7866596,10.57805 L24.7371565,11.1493661 C23.9786607,11.2816141 23.198991,11.2831052 22.414,11.1115154 C21.7803313,10.976744 20.8764997,10.8041218 20.4257479,10.7121332 C20.2186637,11.0728618 20.0582511,11.362477 19.9754396,11.6748026 C19.8219002,12.255524 19.791414,12.6617882 19.4674847,13.1086558 C19.025269,13.7187402 18.5831642,13.5901626 18.1265369,13.9787631 C17.5627092,14.458664 15.9692252,17.6403019 15.9692252,17.6403019 C15.9692252,17.6403019 15.6784426,17.9767143 16.023546,18.6342842 M7.41369932,25.1596297 L6.69433673,25.6251933 C6.59290095,25.7061708 6.50731798,25.7448244 6.42195673,25.783478 C5.59583714,26.1569382 4.62205367,25.8599823 4.11864398,25.0695909 C3.57787488,24.1907665 3.818771,22.9937669 4.69666163,22.4214185 L9.37434759,19.3586089 L10.4696323,18.3369841 L11.0085168,19.5326074 L7.83607125,24.2314847 C7.65437371,24.5243115 7.51347221,24.8336549 7.41369932,25.1596297 M16.7808223,2.91821577 C16.9747143,1.11721077 18.5430333,-0.180150562 20.283627,0.0204581345 C22.0242206,0.221066831 23.2780333,1.84360006 23.0841413,3.64460507 C22.8902493,5.44549537 21.3220411,6.7428567 19.5814475,6.54224801 C17.8408539,6.34163931 16.5870411,4.71910608 16.7808223,2.91821577" id="Fill-1"></path>
                </g>
            </g>
        </g>
    </g>
</svg>