<?xml version="1.0" encoding="utf-8"?>
<!-- Generator: Adobe Illustrator 24.0.0, SVG Export Plug-In . SVG Version: 6.00 Build 0)  -->
<svg version="1.1" id="Ebene_1" xmlns="http://www.w3.org/2000/svg" xmlns:xlink="http://www.w3.org/1999/xlink" x="0px" y="0px"
	 viewBox="0 0 100 94" style="enable-background:new 0 0 100 94;" xml:space="preserve">
<g id="Ebene_2_1_">
</g>
<g id="Ebene_1_1_">
	<g>
		<path d="M25.9,43.2c0.6,0.9,1.6,1.4,2.6,1.5l9.9,1.2c0.2,0,0.3,0,0.4,0c1.9,0,3.6-1.4,3.8-3.4c0.2-2.1-1.3-4-3.4-4.3l-8.2-1
			c0,0-4.8-6.5-5-6.8s-1-1.4-1.4-1.8c-1.4-1.4-3.4-2.2-5.4-2c-2,0.1-3.9,1.1-5.2,2.7c-0.1,0.1-0.1,0.1-0.2,0.2l-10.6,15
			c-0.5,0.8-0.8,1.7-0.8,2.7v5.9v0.1v28.7c0,2.5,2.1,4.6,4.6,4.6l0,0c2.5,0,4.6-2.1,4.6-4.6V54.8l11.9-14.6L25.9,43.2z"/>
		<circle cx="31.2" cy="21.1" r="7.6"/>
		<path d="M59.7,68.8H27.2c-1.3,0-2.4,1.1-2.4,2.4s1.1,2.4,2.4,2.4h32.6c1.3,0,2.4-1.1,2.4-2.4C62.1,69.9,61.1,68.8,59.7,68.8z"/>
		<circle cx="55.6" cy="58.9" r="5.2"/>
		<path d="M38.5,52.6c0.2-0.7,0.1-1.5-0.3-2.2c-0.5-0.6-1.2-1-1.9-1h-7.8c-1.3,0-2.4,1.1-2.4,2.4c0,1.3,1.1,2.4,2.4,2.4h4.4
			l-1.8,5.5c0,0.1-0.1,0.3-0.1,0.4c-0.2,1.2,0.2,2.5,1,3.4c0.8,0.9,2,1.5,3.2,1.5h11c1.3,0,2.4-1.1,2.4-2.4V49.8
			c0-1.3-1.1-2.4-2.4-2.4c-1.3,0-2.4,1.1-2.4,2.4v5.5h-6.2L38.5,52.6z"/>
		<path d="M97.4,59.5l-8.1-17.3c-0.4-0.8-0.9-1.5-1.5-2.1l-10.7-11c-1.3-1.5-3.1-2.4-5-2.5c-2.5-0.2-4.6,0.9-6.4,3.3
			c-1.8,2.4-5.4,7.3-5.4,7.3l-8.1,0.9c-1.8,0.2-3.4,1.6-3.6,3.5c-0.2,2.4,1.6,4.2,3.8,4.2c0.1,0,0.3,0,0.4,0l9.9-1.2
			c1.1-0.1,2-0.7,2.6-1.5l2.3-3.1l6.7,7.5L71,59.8c-0.3,1,0.5,1.9,1.4,1.9h7.3v20.4c0,2.6,2.2,4.7,4.9,4.4c2.3-0.2,4-2.4,4-4.7V61.7
			H96C97.1,61.7,97.8,60.5,97.4,59.5z"/>
		<circle cx="60.1" cy="21.1" r="7.6"/>
	</g>
</g>
</svg>
