<?xml version="1.0" encoding="utf-8"?>
<!-- Generator: Adobe Illustrator 24.0.0, SVG Export Plug-In . SVG Version: 6.00 Build 0)  -->
<svg version="1.1" id="Ebene_1" xmlns="http://www.w3.org/2000/svg" xmlns:xlink="http://www.w3.org/1999/xlink" x="0px" y="0px"
	 viewBox="0 0 100 101" style="enable-background:new 0 0 100 101;" xml:space="preserve">
<path d="M75.8,51.9c-1-1.3-2.4-2.1-4.2-2.4c-0.4,0-0.7-0.1-1.1-0.1c-0.6,0-1.1,0.1-1.6,0.2l0.3-3.2c0.1-0.6,0.5-3.3-1-5.5
	c-1.1-1.6-3-2.5-5.4-2.7c-0.3,0-0.6,0-0.8,0c-1.8,0-3.2,0.6-4.2,1.4c0-1.1-0.3-2.9-1.6-4.4S53,33,50.6,33c-0.7,0-1.3,0.1-1.8,0.2
	v-15c0-2.1-0.2-3.3-0.5-4c-0.2-0.6-0.6-1.2-1.1-1.8c-1.3-1.5-3.2-2.2-5.7-2.2c-2.1,0-3.8,0.7-5,2c-1,1-1.5,2.3-1.8,3.4
	c0,0-0.3,1.4-0.3,2.6v24.6c0,0.2,0,0.3,0.1,0.4h-0.1C26,44.2,22,50,22,60.8c0,0.1,0,0.1,0,0.2c0,0.3,1,7.3,2.6,11.6
	c2.3,5.9,5.9,13.7,11.9,15.5v3.6c0,0.8,0.6,1.4,1.4,1.4c0.8,0,1.5-0.6,1.5-1.4v-4.8c0-0.3-0.1-0.5-0.2-0.7c-0.2-0.4-0.6-0.6-1-0.7
	c-3.9-0.6-7.5-5.2-10.8-13.9c-1.4-3.7-2.3-10-2.5-10.8c0-9.3,3.1-13.9,10-14.7H35l8.5-1.8l1.4-0.3l1.4-0.3l3.4-0.7
	c0.5-0.1,0.9,0.2,1,0.7c1,4.6-0.3,7.4-3.8,8.4l-10.5,4.1c-0.7,0.3-1,1-0.9,1.7s0.8,1.1,1.4,1.1H37c0.1,0,3.3,0.1,5.5,6.6
	c0.2,0.5,0.6,0.8,1,0.9c0.3,0.1,0.5,0,0.8,0c0.8-0.3,1.2-1.1,0.9-1.8c-1.3-3.8-3-5.9-4.5-7.1l2.7-1.1c0.2,1.4,0.6,3.3,2,4.7
	c1.3,1.3,3,2,5.1,2c1.2,0,2.3-0.2,3.2-0.6c0.2,1.1,0.6,2.3,1.4,3.3c1.1,1.4,2.8,2.3,4.9,2.5c0.3,0,0.6,0,0.9,0c0.5,0,1.1,0,1.5-0.1
	c0.1,1,0.5,2.2,1.2,3.1c1,1.4,2.4,2.3,4.3,2.5c0.4,0.1,0.8,0.1,1.2,0.1c0.2,0,0.5,0,0.7,0c0.5,0,1-0.1,1.4-0.3c0,0.5,0,1-0.1,1.6
	c-0.2,2.3-1.7,4.6-3.7,6.4c-1.2,1.1-2.5,2-3.7,2.7c-0.5,0.3-0.8,0.7-0.8,1.3v6c0,0.8,0.6,1.4,1.4,1.4s1.5-0.6,1.5-1.4V87l0.2-0.6
	c3.7-2.2,7.6-6.2,8-11c0.1-1.4,0.1-2.7,0-3.8c1.1-1.4,1.6-3.2,1.7-4.4l1.4-9.2C77.1,57.9,77.7,54.4,75.8,51.9z M45.8,34.6
	c-0.1,0.1-0.2,0.2-0.3,0.3c-2.1,2.2-2.1,5.4-2.1,5.8v0.7l-6.1,1.3V18.2c0-0.4,0-0.4,0.1-1c0.1-0.8,0.4-2.1,1.2-2.9
	c0.7-0.7,1.7-1.1,3-1.1c1.6,0,2.8,0.4,3.5,1.2c0.4,0.5,0.7,1.1,0.8,1.7C46,16.8,45.8,34.6,45.8,34.6z M54.9,40.2
	c0,0.1-0.1,6.1-0.1,6.1l-1.2,12.8c-0.7,0.8-1.7,1.1-3.1,1.1c-1.3,0-2.3-0.4-3-1.1c-1.1-1.2-1.3-3.1-1.3-3.8l1.5-0.6
	c5-1.4,7.1-5.6,5.7-11.7C53,41,51,39.7,49,40.1l-0.4,0.1l-2.4,0.5v-0.1l0,0c0,0,0-2.3,1.3-3.7c0.3-0.3,0.7-0.6,1.1-0.7
	c0.5-0.2,1.1-0.3,1.8-0.3c1.6,0,2.8,0.4,3.5,1.2C55.1,38.3,54.9,40.2,54.9,40.2z M63.8,56.1l-1.3,8.6c0,0.1,0,0.2-0.1,0.5
	c-0.4,0.2-0.9,0.3-1.5,0.3c-0.2,0-0.4,0-0.6,0c-1.3-0.1-2.2-0.6-2.8-1.3c-1-1.2-1-3-1-3.8c0-0.3,0-0.4,0-0.4s0,0,0-0.1l1.2-13.2
	l0.1-1l0,0c0-0.5,0.4-4.4,4.1-4.4c0.2,0,0.4,0,0.6,0c1.6,0.2,2.7,0.7,3.3,1.5c1,1.4,0.6,3.3,0.6,3.3c0,0.1,0,0.1,0,0.2l-0.5,5.4
	C64.6,53,64,54.9,63.8,56.1z M74.3,57.6l-1.2,8l0,0l-0.2,1.2c0,0,0,0,0,0.1s-0.1,0.9-0.5,1.8l0,0c-0.3,0.6-0.7,1.3-1.3,1.8
	c0-0.2,0,0.2,0,0l-0.2,0.2l0,0c-0.5,0.3-1,0.5-1.7,0.5c-0.3,0-0.5,0-0.8-0.1c-1.1-0.2-1.8-0.6-2.3-1.3c-0.6-0.8-0.8-1.9-0.8-2.8
	c0-0.7,0-1.3,0.1-1.6v-0.1l0.1-0.8l1.2-7.8l0,0c0-0.1,0.1-0.5,0.3-1.1l0,0c0.3-0.8,0.8-1.8,1.7-2.5c0.5-0.4,1.1-0.6,1.9-0.6
	c0.2,0,0.5,0,0.7,0c1,0.1,1.8,0.5,2.3,1.2C74.6,55.1,74.3,57.5,74.3,57.6z"/>
</svg>
