<?xml version="1.0" encoding="UTF-8"?>
<svg width="356px" height="158px" viewBox="0 0 356 158" version="1.1" xmlns="http://www.w3.org/2000/svg" xmlns:xlink="http://www.w3.org/1999/xlink">
    <title>QuarantaeneHelden Logo weiss</title>
    <defs>
        <polygon id="path-1" points="0.000369083269 0.454066102 355.975581 0.454066102 355.975581 158.079043 0.000369083269 158.079043"></polygon>
        <polygon id="path-3" points="0 158.910946 355.975581 158.910946 355.975581 1.28519856 0 1.28519856"></polygon>
    </defs>
    <g id="Web-&amp;-App-V2" stroke="none" stroke-width="1" fill="none" fill-rule="evenodd">
        <g id="Logo-Weiß-auf-Rot" transform="translate(0.000000, -2.000000)">
            <g id="Group-41" transform="translate(0.000000, 1.000000)">
                <g id="Group-3" transform="translate(0.000000, 0.831523)">
                    <mask id="mask-2" fill="white">
                        <use xlink:href="#path-1"></use>
                    </mask>
                    <g id="Clip-2"></g>
                    <path d="M17.729057,43.6937949 C120.451122,15.4824014 221.585967,1.07147004 321.115599,0.454066102 C334.029274,0.374892419 343.589866,9.66430758 345.285043,23.5778671 L355.945765,125.390012 C356.675757,140.257188 343.951006,152.17869 329.14809,150.636452 C218.203324,139.078661 120.871382,151.288048 35.1949054,158.008351 C22.8659957,158.976105 12.0124939,149.894892 10.0294325,137.688077 L0.317187004,71.0184014 C-1.66330397,58.8295783 5.82169242,46.9646253 17.729057,43.6937949" id="Fill-1" fill="#B7223E" mask="url(#mask-2)"></path>
                </g>
                <path d="M133.492289,79.7616072 L134.307105,77.9134917 C134.415061,77.669304 134.678527,77.5497805 134.929141,77.637174 C137.022729,78.3517444 139.721646,78.9557877 143.020751,79.4467336 C143.330484,79.4930007 143.536116,79.8014484 143.446152,80.1008996 L142.380722,83.6069213 C142.299755,83.876813 142.008014,84.0336072 141.736838,83.9564953 C138.699913,83.0877011 136.013848,81.9053184 133.682498,80.4106325 C133.466585,80.271831 133.389473,79.9955134 133.492289,79.7616072 M138.653646,61.7225603 C138.210253,60.8768996 137.35431,60.4527841 136.084534,60.4527841 C134.813473,60.4527841 133.956245,60.8768996 133.515422,61.7225603 C133.072029,62.5695061 132.850975,64.2145603 132.850975,66.6590079 C132.850975,69.1034556 133.072029,70.7485097 133.515422,71.5954556 C133.956245,72.4424014 134.813473,72.8652318 136.084534,72.8652318 C137.35431,72.8652318 138.210253,72.4424014 138.653646,71.5954556 C139.094469,70.7485097 139.316809,69.1034556 139.316809,66.6590079 C139.316809,64.2145603 139.094469,62.5695061 138.653646,61.7225603 M136.084534,56.296452 C139.451755,56.296452 141.78439,57.0238744 143.083726,58.4761487 C144.383061,59.9284231 145.032087,62.6556144 145.032087,66.6590079 C145.032087,70.6624014 144.383061,73.3895928 143.083726,74.8431523 C141.78439,76.2954267 139.451755,77.0215639 136.084534,77.0215639 C134.389357,77.0215639 132.998773,76.8621993 131.91278,76.5460404 C130.825502,76.2285964 129.915581,75.669535 129.184303,74.8714267 C128.453025,74.0720332 127.933805,73.0143148 127.626643,71.6969863 C127.318195,70.3783726 127.163971,68.6999032 127.163971,66.6590079 C127.163971,64.6193978 127.318195,62.9396433 127.626643,61.6223148 C127.933805,60.3037011 128.453025,59.2446975 129.184303,58.4465892 C129.915581,57.6484809 130.825502,57.0894195 131.91278,56.7719755 C132.998773,56.4545314 134.389357,56.296452 136.084534,56.296452" id="Fill-4" fill="#FFFFFF"></path>
                <path d="M164.483824,56.700904 L164.483824,68.5350123 C164.483824,71.633626 163.873355,73.8223191 162.651131,75.1023769 C161.428907,76.3811495 159.326322,77.0224635 156.344661,77.0224635 C153.149658,77.0224635 150.89799,76.3811495 149.589658,75.1023769 C148.281326,73.8223191 147.62716,71.633626 147.62716,68.5350123 L147.62716,56.700904 L153.053268,56.700904 L153.053268,68.5350123 C153.053268,70.228904 153.265326,71.3740159 153.689441,71.970348 C154.112271,72.5679653 154.901383,72.8648462 156.055492,72.8648462 C157.210885,72.8648462 157.998712,72.5679653 158.422827,71.970348 C158.845658,71.3740159 159.057716,70.228904 159.057716,68.5350123 L159.057716,56.700904 L164.483824,56.700904 Z" id="Fill-6" fill="#FFFFFF"></path>
                <path d="M177.31576,67.9575726 L176.045984,62.8476231 C175.833926,61.8477386 175.707977,61.1550166 175.670706,60.769457 L174.890591,60.769457 C174.755645,61.5020202 174.620699,62.1947422 174.487038,62.8476231 L173.217262,67.9575726 L177.31576,67.9575726 Z M178.325926,71.8838542 L172.205811,71.8838542 L171.023428,76.6172404 L165.480367,76.6172404 L170.936035,58.115522 C171.031139,57.6914065 171.248338,57.3495437 171.58506,57.0899336 C171.921782,56.8303235 172.311197,56.7005184 172.754591,56.7005184 L177.777147,56.7005184 C178.219255,56.7005184 178.609955,56.8303235 178.946677,57.0899336 C179.282114,57.3495437 179.509594,57.6914065 179.625262,58.115522 L185.05137,76.6172404 L179.509594,76.6172404 L178.325926,71.8838542 Z" id="Fill-8" fill="#FFFFFF"></path>
                <path d="M192.223549,65.1575105 L194.820936,65.1575105 C195.840098,65.1575105 196.528965,64.9942903 196.884965,64.6665646 C197.240965,64.3401242 197.419607,63.7052361 197.419607,62.7619004 C197.419607,61.8185646 197.240965,61.1836765 196.884965,60.8559509 C196.528965,60.5295105 195.840098,60.3650051 194.820936,60.3650051 L192.223549,60.3650051 L192.223549,65.1575105 Z M203.654105,76.617626 L197.968387,76.617626 L196.553383,70.6131783 C196.418438,70.0361242 196.211521,69.6415682 195.932632,69.4295105 C195.653744,69.2187379 195.23477,69.1120664 194.676994,69.1120664 L192.223549,69.1120664 L192.223549,76.617626 L186.883549,76.617626 L186.883549,56.700904 C188.768936,56.5081242 191.45243,56.4117343 194.936604,56.4117343 C197.803882,56.4117343 199.844777,56.849987 201.056719,57.7252072 C202.268661,58.6004274 202.875275,60.1632289 202.875275,62.4148968 C202.875275,65.3412939 201.566943,66.9477921 198.948994,67.2356765 L198.948994,67.4091783 C200.623607,67.67907 201.64277,68.6995177 202.009051,70.4692361 L203.654105,76.617626 Z" id="Fill-10" fill="#FFFFFF"></path>
                <path d="M216.754006,67.9575726 L215.48423,62.8476231 C215.272172,61.8477386 215.146222,61.1550166 215.108952,60.769457 L214.328836,60.769457 C214.19389,61.5020202 214.058944,62.1947422 213.925284,62.8476231 L212.655508,67.9575726 L216.754006,67.9575726 Z M217.764172,71.8838542 L211.644056,71.8838542 L210.461674,76.6172404 L204.918612,76.6172404 L210.37428,58.115522 C210.469385,57.6914065 210.686583,57.3495437 211.023305,57.0899336 C211.360027,56.8303235 211.749443,56.7005184 212.192836,56.7005184 L217.215392,56.7005184 C217.6575,56.7005184 218.048201,56.8303235 218.384923,57.0899336 C218.72036,57.3495437 218.94784,57.6914065 219.063508,58.115522 L224.489616,76.6172404 L218.94784,76.6172404 L217.764172,71.8838542 Z" id="Fill-12" fill="#FFFFFF"></path>
                <path d="M243.959089,56.700904 L243.959089,74.7129617 C243.959089,75.9827379 243.334482,76.617626 242.083984,76.617626 L239.514872,76.617626 C238.995652,76.617626 238.590814,76.4968173 238.30293,76.2577704 C238.01376,76.0161531 237.715594,75.6074599 237.407147,75.0304058 L232.67376,66.4851206 C232.153255,65.5045141 231.721428,64.4172361 231.374425,63.2232866 L231.143089,63.2232866 C231.296027,64.4172361 231.374425,65.5533516 231.374425,66.630348 L231.374425,76.617626 L226.322309,76.617626 L226.322309,58.6055682 C226.322309,57.3357921 226.957197,56.700904 228.228258,56.700904 L230.767811,56.700904 C231.288316,56.700904 231.686728,56.8217126 231.965616,57.0607596 C232.244504,57.3023769 232.547811,57.71107 232.875536,58.2881242 L237.436706,66.5146801 C237.91737,67.380904 238.417313,68.4874599 238.937818,69.834348 L239.167869,69.834348 C239.032923,68.5067379 238.955811,67.342348 238.937818,66.3411783 L238.937818,56.700904 L243.959089,56.700904 Z" id="Fill-14" fill="#FFFFFF"></path>
                <polygon id="Fill-16" fill="#FFFFFF" points="262.933375 60.8852534 257.188537 60.8852534 257.188537 76.617369 251.762429 76.617369 251.762429 60.8852534 246.045866 60.8852534 246.045866 56.7006469 262.933375 56.7006469"></polygon>
                <path d="M275.128881,54.5935639 L273.425993,54.5935639 C272.733271,54.5935639 272.386267,54.2465603 272.386267,53.5538383 L272.386267,51.7931162 C272.386267,51.1003942 272.733271,50.7546758 273.425993,50.7546758 L275.128881,50.7546758 C275.840881,50.7546758 276.196881,51.1003942 276.196881,51.7931162 L276.196881,53.5538383 C276.196881,54.2465603 275.840881,54.5935639 275.128881,54.5935639 L275.128881,54.5935639 Z M273.656043,67.9570585 L272.386267,62.8483942 C272.174209,61.8485097 272.049545,61.1545025 272.010989,60.7702282 L271.232159,60.7702282 C271.095928,61.5015061 270.962267,62.1942282 270.827321,62.8483942 L269.557545,67.9570585 L273.656043,67.9570585 Z M269.788881,54.5935639 L268.056433,54.5935639 C267.363711,54.5935639 267.016708,54.2465603 267.016708,53.5538383 L267.016708,51.7931162 C267.016708,51.1003942 267.363711,50.7546758 268.056433,50.7546758 L269.788881,50.7546758 C270.481603,50.7546758 270.827321,51.1003942 270.827321,51.7931162 L270.827321,53.5538383 C270.827321,54.2465603 270.481603,54.5935639 269.788881,54.5935639 L269.788881,54.5935639 Z M274.667495,71.8833401 L268.547379,71.8833401 L267.363711,76.6180116 L261.821935,76.6180116 L267.277603,58.1150079 C267.372708,57.6908924 267.589906,57.3503148 267.926628,57.0894195 C268.262065,56.8298094 268.652765,56.7012895 269.096159,56.7012895 L274.118715,56.7012895 C274.560823,56.7012895 274.950238,56.8298094 275.28696,57.0894195 C275.623682,57.3503148 275.851162,57.6908924 275.965545,58.1150079 L281.391653,76.6180116 L275.851162,76.6180116 L274.667495,71.8833401 Z" id="Fill-18" fill="#FFFFFF"></path>
                <path d="M300.861769,56.700904 L300.861769,74.7129617 C300.861769,75.9827379 300.237162,76.617626 298.986664,76.617626 L296.417552,76.617626 C295.898332,76.617626 295.493495,76.4968173 295.20561,76.2577704 C294.91644,76.0161531 294.618274,75.6074599 294.309827,75.0304058 L289.57644,66.4851206 C289.055935,65.5045141 288.624108,64.4172361 288.277105,63.2232866 L288.045769,63.2232866 C288.198708,64.4172361 288.277105,65.5533516 288.277105,66.630348 L288.277105,76.617626 L283.224989,76.617626 L283.224989,58.6055682 C283.224989,57.3357921 283.859877,56.700904 285.130939,56.700904 L287.670491,56.700904 C288.190996,56.700904 288.589408,56.8217126 288.868296,57.0607596 C289.147184,57.3023769 289.450491,57.71107 289.778217,58.2881242 L294.339386,66.5146801 C294.820051,67.380904 295.319993,68.4874599 295.840498,69.834348 L296.070549,69.834348 C295.935603,68.5067379 295.858491,67.342348 295.840498,66.3411783 L295.840498,56.700904 L300.861769,56.700904 Z" id="Fill-20" fill="#FFFFFF"></path>
                <path d="M318.228271,72.4896968 L318.487882,76.3864188 C316.60121,76.5984765 313.311102,76.7038628 308.616271,76.7038628 C307.24882,76.7038628 306.152546,76.3157329 305.324878,75.5356173 C304.495925,74.756787 304.083376,73.7222022 304.083376,72.4318628 L304.083376,60.885639 C304.083376,59.5965848 304.501066,58.562 305.339015,57.7831697 C306.175679,57.0030542 307.268098,56.613639 308.616271,56.613639 C313.311102,56.613639 316.60121,56.7190253 318.487882,56.9323682 L318.228271,60.8278051 L310.752271,60.8278051 C309.923318,60.8278051 309.51077,61.241639 309.51077,62.0693069 L309.51077,64.4931913 L317.160271,64.4931913 L317.160271,68.2176968 L309.51077,68.2176968 L309.51077,71.2481949 C309.51077,72.077148 309.923318,72.4896968 310.752271,72.4896968 L318.228271,72.4896968 Z" id="Fill-22" fill="#FFFFFF"></path>
                <polygon id="Fill-24" fill="#FFFFFF" points="144.569544 88.4530195 144.569544 108.369742 139.143435 108.369742 139.143435 99.7679076 133.196822 99.7679076 133.196822 108.369742 127.798988 108.369742 127.798988 88.4530195 133.196822 88.4530195 133.196822 95.8133516 139.143435 95.8133516 139.143435 88.4530195"></polygon>
                <path d="M161.936046,104.241941 L162.195656,108.138663 C160.308985,108.350721 157.018877,108.456107 152.324046,108.456107 C150.956595,108.456107 149.860321,108.067977 149.032653,107.287861 C148.2037,106.509031 147.791151,105.474446 147.791151,104.184107 L147.791151,92.637883 C147.791151,91.3488289 148.20884,90.314244 149.04679,89.5354137 C149.883454,88.7552982 150.975873,88.365883 152.324046,88.365883 C157.018877,88.365883 160.308985,88.4712693 162.195656,88.6846123 L161.936046,92.5800491 L154.460046,92.5800491 C153.631093,92.5800491 153.218544,92.993883 153.218544,93.8215509 L153.218544,96.2454354 L160.868046,96.2454354 L160.868046,99.9699408 L153.218544,99.9699408 L153.218544,103.000439 C153.218544,103.829392 153.631093,104.241941 154.460046,104.241941 L161.936046,104.241941 Z" id="Fill-26" fill="#FFFFFF"></path>
                <path d="M170.112865,88.4530195 L170.112865,102.798406 C170.112865,103.627359 170.565255,104.039908 171.470035,104.039908 L178.225038,104.039908 L178.484648,108.110131 C176.597977,108.341467 173.548201,108.45585 169.334035,108.45585 C167.850916,108.45585 166.707089,108.057438 165.898699,107.25933 C165.090309,106.459936 164.685471,105.397077 164.685471,104.068182 L164.685471,88.4530195 L170.112865,88.4530195 Z" id="Fill-28" fill="#FFFFFF"></path>
                <path d="M185.940599,92.2333025 L185.940599,104.559642 C186.498375,104.57892 187.413437,104.587916 188.683213,104.587916 C189.932426,104.587916 190.780657,104.170227 191.222765,103.333562 C191.664874,102.495613 191.887213,100.8557 191.887213,98.411252 C191.887213,95.9668043 191.664874,94.3217502 191.222765,93.4748043 C190.780657,92.6291437 189.932426,92.2050282 188.683213,92.2050282 L185.940599,92.2333025 Z M180.513206,108.370256 L180.513206,88.4535336 C183.746765,88.2594686 186.468816,88.1643639 188.683213,88.1643639 C192.031155,88.1643639 194.354794,88.8866455 195.65413,90.3299235 C196.952181,91.7719162 197.601206,94.4656924 197.601206,98.411252 C197.601206,102.356812 196.952181,105.050588 195.65413,106.493866 C194.354794,107.937144 192.031155,108.65814 188.683213,108.65814 C185.891762,108.65814 183.169711,108.56175 180.513206,108.370256 L180.513206,108.370256 Z" id="Fill-30" fill="#FFFFFF"></path>
                <mask id="mask-4" fill="white">
                    <use xlink:href="#path-3"></use>
                </mask>
                <g id="Clip-33"></g>
                <polygon id="Fill-32" fill="#FFFFFF" mask="url(#mask-4)" points="205.545661 108.369227 210.91522 108.369227 210.91522 88.4525054 205.545661 88.4525054"></polygon>
                <path d="M231.900328,88.4530195 L231.900328,106.465077 C231.900328,107.734853 231.275721,108.369742 230.025223,108.369742 L227.456111,108.369742 C226.936891,108.369742 226.532053,108.248933 226.244169,108.009886 C225.954999,107.768269 225.656833,107.359575 225.348386,106.782521 L220.614999,98.2372361 C220.094494,97.2566296 219.662667,96.1693516 219.315664,94.9754022 L219.084328,94.9754022 C219.237266,96.1693516 219.315664,97.3054671 219.315664,98.3824635 L219.315664,108.369742 L214.263548,108.369742 L214.263548,90.3576838 C214.263548,89.0879076 214.898436,88.4530195 216.169497,88.4530195 L218.70905,88.4530195 C219.229555,88.4530195 219.627967,88.5738282 219.906855,88.8128751 C220.185743,89.0544924 220.48905,89.4631856 220.816775,90.0402397 L225.377945,98.2667957 C225.858609,99.1330195 226.358552,100.239575 226.879057,101.586464 L227.109108,101.586464 C226.974162,100.258853 226.89705,99.0944635 226.879057,98.0932939 L226.879057,88.4530195 L231.900328,88.4530195 Z" id="Fill-34" fill="#FFFFFF" mask="url(#mask-4)"></path>
                <path d="M252.856261,88.4530195 L252.856261,106.465077 C252.856261,107.734853 252.231655,108.369742 250.981157,108.369742 L248.412045,108.369742 C247.892825,108.369742 247.487987,108.248933 247.200103,108.009886 C246.910933,107.768269 246.612767,107.359575 246.304319,106.782521 L241.570933,98.2372361 C241.050427,97.2566296 240.618601,96.1693516 240.271597,94.9754022 L240.040261,94.9754022 C240.1932,96.1693516 240.271597,97.3054671 240.271597,98.3824635 L240.271597,108.369742 L235.219482,108.369742 L235.219482,90.3576838 C235.219482,89.0879076 235.85437,88.4530195 237.125431,88.4530195 L239.664983,88.4530195 C240.185489,88.4530195 240.5839,88.5738282 240.862788,88.8128751 C241.141677,89.0544924 241.444983,89.4631856 241.772709,90.0402397 L246.333879,98.2667957 C246.814543,99.1330195 247.314485,100.239575 247.834991,101.586464 L248.065041,101.586464 C247.930095,100.258853 247.852983,99.0944635 247.834991,98.0932939 L247.834991,88.4530195 L252.856261,88.4530195 Z" id="Fill-35" fill="#FFFFFF" mask="url(#mask-4)"></path>
                <path d="M270.222764,104.241941 L270.482374,108.138663 C268.595703,108.350721 265.305594,108.456107 260.610764,108.456107 C259.243313,108.456107 258.147038,108.067977 257.31937,107.287861 C256.490417,106.509031 256.077869,105.474446 256.077869,104.184107 L256.077869,92.637883 C256.077869,91.3488289 256.495558,90.314244 257.333508,89.5354137 C258.170172,88.7552982 259.262591,88.365883 260.610764,88.365883 C265.305594,88.365883 268.595703,88.4712693 270.482374,88.6846123 L270.222764,92.5800491 L262.746764,92.5800491 C261.917811,92.5800491 261.505262,92.993883 261.505262,93.8215509 L261.505262,96.2454354 L269.154764,96.2454354 L269.154764,99.9699408 L261.505262,99.9699408 L261.505262,103.000439 C261.505262,103.829392 261.917811,104.241941 262.746764,104.241941 L270.222764,104.241941 Z" id="Fill-36" fill="#FFFFFF" mask="url(#mask-4)"></path>
                <path d="M290.730806,88.4530195 L290.730806,106.465077 C290.730806,107.734853 290.106199,108.369742 288.855701,108.369742 L286.286589,108.369742 C285.767369,108.369742 285.362531,108.248933 285.074647,108.009886 C284.785477,107.768269 284.487311,107.359575 284.178864,106.782521 L279.445477,98.2372361 C278.924972,97.2566296 278.493145,96.1693516 278.146142,94.9754022 L277.914806,94.9754022 C278.067744,96.1693516 278.146142,97.3054671 278.146142,98.3824635 L278.146142,108.369742 L273.094026,108.369742 L273.094026,90.3576838 C273.094026,89.0879076 273.728914,88.4530195 274.999975,88.4530195 L277.539528,88.4530195 C278.060033,88.4530195 278.458445,88.5738282 278.737333,88.8128751 C279.016221,89.0544924 279.319528,89.4631856 279.647253,90.0402397 L284.208423,98.2667957 C284.689087,99.1330195 285.18903,100.239575 285.709535,101.586464 L285.939586,101.586464 C285.80464,100.258853 285.727528,99.0944635 285.709535,98.0932939 L285.709535,88.4530195 L290.730806,88.4530195 Z" id="Fill-37" fill="#FFFFFF" mask="url(#mask-4)"></path>
                <path d="M203.653591,90.7260217 L202.111353,91.0344693 L201.788768,90.6476245 L201.763064,90.0178773 L203.216624,89.3508592 L203.653591,90.7260217 Z M201.533014,90.7131697 L202.984003,92.3710758 L201.840176,93.2193069 L201.017649,91.6899206 L200.206689,93.2193069 L199.05001,92.3710758 L200.527988,90.7260217 L200.297938,88.462787 L201.73736,88.462787 L201.533014,90.7131697 Z M200.272234,90.0178773 L200.272234,90.6476245 L199.949649,91.0344693 L198.381707,90.7260217 L198.818674,89.362426 L200.272234,90.0178773 Z" id="Fill-38" fill="#FFFFFF" mask="url(#mask-4)"></path>
                <path d="M87.931743,86.1336217 C88.4278296,87.055109 88.3275841,88.4251307 87.6734181,89.4018816 L82.6688549,96.647831 C82.4375191,97.0076866 82.0853747,97.2917155 81.6869632,97.4652173 C80.9595408,97.7826614 80.0766094,97.7363942 79.3903134,97.2583004 C78.294039,96.5270224 78.0331437,95.0426181 78.779844,93.9797588 L79.9133892,92.3179971 L80.391483,91.6329863 L83.3268765,87.3674123 L81.6946744,83.9307913 C81.2140101,82.9309069 81.2731292,81.779369 81.854039,80.834748 C81.854039,80.834748 83.4116996,78.1653906 84.8665444,75.7569285 C79.8272809,78.867109 74.7006238,85.7326397 71.3025588,88.342878 C70.6908043,88.8261126 69.7513242,88.4585458 69.5958152,87.7041343 C69.2680895,86.1606108 68.3838729,84.0400332 67.581909,81.7112534 C67.3647105,81.1136361 67.6821545,80.4556144 68.2951942,80.2744014 C72.3140101,79.0817372 81.4170715,72.5092318 84.4732736,71.3898238 C87.8186455,70.1444664 89.5446671,71.4219538 91.7539235,71.9257516 C92.8412014,72.141665 94.456696,72.4745314 96.9307032,72.9924664 C97.4049415,73.0888563 97.8830354,73.0939971 98.36627,73.0143148 L102.253996,72.310026 C103.291151,72.115961 104.337303,72.8266758 104.474819,73.9332318 C104.658602,74.8470079 104.170227,75.7093762 103.334848,76.0743726 C103.225606,76.1206397 103.081664,76.1848996 102.919729,76.2118888 L99.0345733,76.9148924 C98.068104,77.0781126 97.0746455,77.080683 96.074761,76.8686253 C95.2663711,76.7028347 94.1161184,76.4907769 93.5403495,76.3763942 C93.2768838,76.8210729 93.0725372,77.1770729 92.9671509,77.5626325 C92.7718007,78.2784881 92.7319596,78.7771451 92.3194108,79.3284953 C91.7564939,80.0803365 91.1922917,79.9209718 90.6113819,80.4003509 C89.8916708,80.9915422 87.8623422,84.9101126 87.8623422,84.9101126 C87.8623422,84.9101126 87.4909199,85.3239466 87.931743,86.1336217 M76.9612881,94.1699682 L76.0436563,94.7431668 C75.9138513,94.8434123 75.8046094,94.8896794 75.6966527,94.938517 C74.6440751,95.3986181 73.4038585,95.0323365 72.7612592,94.0594412 C72.0723928,92.977304 72.3795552,91.5031812 73.4989632,90.7976072 L79.4584289,87.0255495 L80.8541545,85.7673401 L81.5404505,87.2401776 L77.4985011,93.0261415 C77.2671653,93.3885675 77.0872375,93.7677011 76.9612881,94.1699682 M88.8969271,66.7772462 C89.1436852,64.5602787 91.142169,62.9627769 93.3604217,63.209535 C95.5773892,63.4562931 97.174891,65.4547769 96.9281329,67.6730296 C96.6813747,69.8899971 94.682891,71.4874989 92.4646383,71.242026 C90.2476708,70.9952679 88.650169,68.9967841 88.8969271,66.7772462 M102.6357,60.1520477 C99.3481617,56.2527552 93.4722339,54.3018238 85.0117718,54.3031084 C76.5500245,54.3031084 70.6612448,56.2527552 67.3480029,60.1520477 C64.0334758,64.0513401 62.3781401,71.2266036 62.3781401,81.6765531 C62.3781401,92.1265025 64.0334758,99.3004809 67.3480029,103.199773 C70.6612448,107.099066 76.5500245,109.049997 85.0117718,109.049997 C93.4735191,109.049997 99.3481617,107.099066 102.6357,103.199773 C105.923238,99.3004809 107.567006,92.1265025 107.567006,81.6765531 C107.567006,71.2266036 105.923238,64.0513401 102.6357,60.1520477" id="Fill-39" fill="#FFFFFF" mask="url(#mask-4)"></path>
                <path d="M79.7310195,117.690001 C86.1158859,121.390088 92.6369834,124.136557 99.2943119,125.930695 C100.157965,126.164601 101.051178,125.660803 101.319785,124.807431 L103.534182,117.804384 C103.8452,116.821207 103.202601,115.798189 102.184723,115.64011 C94.5467884,114.460297 88.0231206,112.986175 82.6098643,111.213886 C81.7950484,110.946565 80.9146874,111.347547 80.5651134,112.131518 L79.0460087,115.552716 C78.6977199,116.334117 78.9907451,117.260745 79.7310195,117.690001" id="Fill-40" fill="#FFFFFF" mask="url(#mask-4)"></path>
            </g>
        </g>
    </g>
</svg>