<svg id="Corporate_Design" data-name="Corporate Design" xmlns="http://www.w3.org/2000/svg" viewBox="0 0 278.86 82.63"><defs><style>.cls-1{fill:#b7223e;}.cls-2{fill:#1e4eac;}.cls-3{fill:#ec69ca;}.cls-4{fill:#fff;opacity:0.2;}.cls-5{fill:#1d4eac;}.cls-6{fill:#3265ca;}.cls-7{fill:#a8344a;}.cls-8{fill:#cf4f68;}.cls-9{fill:#ccc968;}.cls-10{fill:#f8f46a;}.cls-11{fill:#c48030;}.cls-12{fill:#eea94e;}</style></defs><path class="cls-1" d="M81,6c3.66,0,6.2.8,7.62,2.38s2.12,4.55,2.12,8.91-.71,7.33-2.12,8.91-4,2.37-7.62,2.37a16.33,16.33,0,0,1-4.54-.52,6.24,6.24,0,0,1-3-1.82,7.46,7.46,0,0,1-1.7-3.46,24.34,24.34,0,0,1-.51-5.48,24.5,24.5,0,0,1,.51-5.49,7.47,7.47,0,0,1,1.7-3.45,6.34,6.34,0,0,1,3-1.83A16.71,16.71,0,0,1,81,6Zm2.79,5.91a3.52,3.52,0,0,0-5.59,0q-.72,1.39-.72,5.38t.72,5.37a3.51,3.51,0,0,0,5.59,0q.73-1.38.73-5.37T83.81,11.94ZM78.25,31.46,79,29.71a.72.72,0,0,1,.89-.39,51,51,0,0,0,8.47,1.89.74.74,0,0,1,.6.93l-1.06,3.48a.74.74,0,0,1-.9.49,33.14,33.14,0,0,1-8.5-3.74A.74.74,0,0,1,78.25,31.46Z"/><path class="cls-1" d="M111.86,6.47V19.36c0,3.37-.67,5.76-2,7.15S106.24,28.6,103,28.6q-5.22,0-7.35-2.09c-1.43-1.39-2.14-3.78-2.14-7.15V6.47h5.91V19.36a7,7,0,0,0,.69,3.74,3.89,3.89,0,0,0,5.16,0,7,7,0,0,0,.69-3.74V6.47Z"/><path class="cls-1" d="M126.84,23h-6.67l-1.29,5.15h-6L118.79,8a1.84,1.84,0,0,1,.71-1.11,2,2,0,0,1,1.27-.43h5.47a2.07,2.07,0,0,1,2,1.54l5.91,20.15h-6Zm-1.1-4.28-1.39-5.56c-.23-1.09-.36-1.84-.41-2.26h-.85c-.14.79-.29,1.55-.43,2.26l-1.39,5.56Z"/><path class="cls-1" d="M154.33,28.16h-6.19l-1.54-6.54a2.24,2.24,0,0,0-.67-1.29,2.27,2.27,0,0,0-1.37-.34h-2.67v8.17h-5.82V6.47q3.09-.32,8.77-.31,4.68,0,6.67,1.43c1.31.95,2,2.66,2,5.11q0,4.77-4.27,5.25v.18a3.84,3.84,0,0,1,3.33,3.34ZM141.89,15.68h2.83a3.37,3.37,0,0,0,2.24-.53,2.81,2.81,0,0,0,.58-2.08A2.8,2.8,0,0,0,147,11a3.37,3.37,0,0,0-2.24-.53h-2.83Z"/><path class="cls-1" d="M169.63,23H163l-1.28,5.15h-6L161.58,8a1.89,1.89,0,0,1,.71-1.11,2,2,0,0,1,1.27-.43H169a2,2,0,0,1,1.27.43A2,2,0,0,1,171,8L177,28.16h-6Zm-1.1-4.28-1.39-5.56c-.23-1.09-.36-1.84-.4-2.26h-.85c-.15.79-.3,1.55-.44,2.26l-1.39,5.56Z"/><path class="cls-1" d="M198.07,6.47V26.09a1.82,1.82,0,0,1-2,2.07h-2.8a2,2,0,0,1-1.32-.39,4.49,4.49,0,0,1-1-1.34l-5.15-9.3a18.65,18.65,0,0,1-1.42-3.55h-.25a28.54,28.54,0,0,1,.25,3.71V28.16h-5.5V8.55a1.84,1.84,0,0,1,2.08-2.08h2.76a2,2,0,0,1,1.31.4,5.22,5.22,0,0,1,1,1.33l5,9a28.66,28.66,0,0,1,1.64,3.62h.25c-.15-1.45-.23-2.72-.25-3.81V6.47Z"/><path class="cls-1" d="M218.64,11h-6.25V28.16h-5.91V11h-6.22V6.47h18.38Z"/><path class="cls-1" d="M231.31,23h-6.66l-1.29,5.15h-6L223.27,8A1.84,1.84,0,0,1,224,6.9a2,2,0,0,1,1.27-.43h5.47a2.07,2.07,0,0,1,2,1.54l5.91,20.15h-6ZM226,4.18h-1.88A1,1,0,0,1,223,3.05V1.13A1,1,0,0,1,224.12,0H226a1,1,0,0,1,1.13,1.13V3.05A1,1,0,0,1,226,4.18Zm4.21,14.55-1.38-5.56c-.23-1.09-.37-1.84-.41-2.26h-.85c-.14.79-.29,1.55-.44,2.26l-1.38,5.56Zm1.61-14.55H230a1,1,0,0,1-1.13-1.13V1.13A1,1,0,0,1,230,0h1.86A1,1,0,0,1,233,1.13V3.05A1,1,0,0,1,231.82,4.18Z"/><path class="cls-1" d="M259.76,6.47V26.09a1.82,1.82,0,0,1-2.05,2.07h-2.79a2,2,0,0,1-1.32-.39,4.49,4.49,0,0,1-1-1.34l-5.15-9.3a18.65,18.65,0,0,1-1.42-3.55h-.25a28.54,28.54,0,0,1,.25,3.71V28.16h-5.5V8.55a1.84,1.84,0,0,1,2.08-2.08h2.76a2,2,0,0,1,1.31.4,5.22,5.22,0,0,1,1,1.33l5,9a28.66,28.66,0,0,1,1.64,3.62h.25c-.15-1.45-.23-2.72-.25-3.81V6.47Z"/><path class="cls-1" d="M278.58,23.67l.28,4.24q-3.09.35-10.75.35A5,5,0,0,1,264.53,27a4.43,4.43,0,0,1-1.36-3.38V11a4.42,4.42,0,0,1,1.37-3.38,5,5,0,0,1,3.57-1.27q7.67,0,10.75.35L278.58,11h-8.14a1.2,1.2,0,0,0-1.36,1.35V15h8.33V19h-8.33v3.31a1.2,1.2,0,0,0,1.36,1.35Z"/><path class="cls-1" d="M90.26,41.05V62.73H84.35V53.37H77.87v9.36H72V41.05h5.87v8h6.48v-8Z"/><path class="cls-1" d="M109.08,58.24l.28,4.24c-2,.23-5.64.35-10.75.35A5,5,0,0,1,95,61.56a4.44,4.44,0,0,1-1.35-3.38V45.6A4.39,4.39,0,0,1,95,42.23,5,5,0,0,1,98.61,41c5.11,0,8.7.12,10.75.35l-.28,4.24h-8.14a1.19,1.19,0,0,0-1.35,1.35v2.64h8.33v4.06H99.59v3.3a1.19,1.19,0,0,0,1.35,1.35Z"/><path class="cls-1" d="M117.89,41.05V56.67c0,.9.49,1.35,1.48,1.35h7.35l.29,4.43a92.49,92.49,0,0,1-10,.38,5.1,5.1,0,0,1-3.74-1.31A4.63,4.63,0,0,1,112,58.05v-17Z"/><path class="cls-1" d="M129.13,62.73V41.05q5.28-.31,8.9-.32,5.46,0,7.59,2.36c1.41,1.57,2.12,4.51,2.12,8.8s-.71,7.23-2.12,8.8-4,2.36-7.59,2.36Q133.47,63.05,129.13,62.73ZM135,45.17V58.59c.61,0,1.6,0,3,0a2.83,2.83,0,0,0,2.76-1.37q.74-1.36.73-5.36t-.73-5.37A2.81,2.81,0,0,0,138,45.13Z"/><path class="cls-1" d="M162.24,62.73h-5.85V41.05h5.85Z"/><path class="cls-1" d="M185,41.05V60.66a1.82,1.82,0,0,1-2,2.07h-2.8a2,2,0,0,1-1.32-.39,4.56,4.56,0,0,1-1-1.33l-5.15-9.31a18.65,18.65,0,0,1-1.42-3.55H171a28.66,28.66,0,0,1,.25,3.71V62.73h-5.5V43.12a1.84,1.84,0,0,1,2.08-2.07h2.76a2,2,0,0,1,1.31.39,5.3,5.3,0,0,1,1,1.34l5,8.95a29.33,29.33,0,0,1,1.64,3.62h.25c-.15-1.45-.23-2.72-.25-3.81V41.05Z"/><path class="cls-1" d="M207.73,41.05V60.66a1.82,1.82,0,0,1-2,2.07h-2.8a2,2,0,0,1-1.32-.39,4.56,4.56,0,0,1-1-1.33l-5.16-9.31A19.32,19.32,0,0,1,194,48.15h-.25a28.66,28.66,0,0,1,.25,3.71V62.73h-5.5V43.12a1.83,1.83,0,0,1,2.07-2.07h2.77a1.92,1.92,0,0,1,1.3.39,4.86,4.86,0,0,1,1,1.34l5,8.95a29.46,29.46,0,0,1,1.63,3.62h.26c-.15-1.45-.23-2.72-.26-3.81V41.05Z"/><path class="cls-1" d="M226.55,58.24l.29,4.24q-3.09.35-10.75.35a5.06,5.06,0,0,1-3.59-1.27,4.44,4.44,0,0,1-1.35-3.38V45.6a4.39,4.39,0,0,1,1.37-3.37A5,5,0,0,1,216.09,41q7.66,0,10.75.35l-.29,4.24h-8.14a1.19,1.19,0,0,0-1.35,1.35v2.64h8.33v4.06h-8.33v3.3a1.19,1.19,0,0,0,1.35,1.35Z"/><path class="cls-1" d="M248.8,41.05V60.66a1.82,1.82,0,0,1-2,2.07H244a2,2,0,0,1-1.32-.39,4.56,4.56,0,0,1-1-1.33l-5.16-9.31a18,18,0,0,1-1.41-3.55h-.26a28.73,28.73,0,0,1,.26,3.71V62.73h-5.5V43.12a1.83,1.83,0,0,1,2.07-2.07h2.77a1.94,1.94,0,0,1,1.3.39,5.3,5.3,0,0,1,1,1.34l5,8.95a31,31,0,0,1,1.63,3.62h.25c-.14-1.45-.23-2.72-.25-3.81V41.05Z"/><path class="cls-1" d="M44.1,10.51Q38.7,4.11,24.79,4.1T5.44,10.51Q0,16.92,0,34.09T5.44,57.67q5.45,6.4,19.35,6.41T44.1,57.67q5.4-6.41,5.4-23.58T44.1,10.51Zm-15,7.26A4.43,4.43,0,1,1,33,22.66,4.43,4.43,0,0,1,29.05,17.77ZM16,47.78l-1,.63a1.84,1.84,0,0,1-.38.21,2.58,2.58,0,0,1-2.41-4.54L18.71,40l1.53-1.38L21,40.19l-4.43,6.34A5.29,5.29,0,0,0,16,47.78ZM28,39a3.64,3.64,0,0,1-.28,3.58l-5.48,7.94a2.43,2.43,0,0,1-1.08.9,2.57,2.57,0,0,1-2.51-.23A2.54,2.54,0,0,1,18,47.57l1.24-1.82.52-.75L23,40.33l-1.79-3.77a3.5,3.5,0,0,1,.18-3.39s1.7-2.93,3.3-5.56C19.12,31,13.5,38.53,9.78,41.39a1.19,1.19,0,0,1-1.87-.7c-.36-1.69-1.33-4-2.21-6.56a1.21,1.21,0,0,1,.78-1.58c4.4-1.3,14.38-8.5,17.72-9.73,3.67-1.36,5.56,0,8,.59,1.19.24,3,.6,5.67,1.17a4.41,4.41,0,0,0,1.58,0l4.25-.77a2.07,2.07,0,0,1,2.44,1.78A2.1,2.1,0,0,1,44.87,28a2.07,2.07,0,0,1-.46.15l-4.25.77a8.48,8.48,0,0,1-3.25-.05l-2.77-.54a5.68,5.68,0,0,0-.63,1.3,4.94,4.94,0,0,1-.71,1.94c-.62.82-1.23.65-1.87,1.17s-3,4.94-3,4.94S27.51,38.09,28,39Z"/><path class="cls-1" d="M19,73.54a88.22,88.22,0,0,0,21.43,9,1.82,1.82,0,0,0,2.22-1.23l2.43-7.67a1.84,1.84,0,0,0-1.48-2.37,137,137,0,0,1-21.45-4.85,1.84,1.84,0,0,0-2.24,1L18.26,71.2A1.84,1.84,0,0,0,19,73.54Z"/><path class="cls-1" d="M150.78,42.75v.69l-.34.42-1.71-.34L149.2,42Zm1.38.76,1.58,1.8-1.25.93-.89-1.67-.89,1.67-1.26-.93,1.62-1.79-.26-2.46h1.57Zm2.31,0-1.68.34-.35-.42,0-.69L154,42Z"/><g id="Party_Hat" data-name="Party Hat"><path class="cls-2" d="M3,14.72S.09,1.43,0,.89.9-.23,1.54.09,14,5.42,14,5.42s-1.59.49-5.69,3.8S3,14.72,3,14.72Z"/><path class="cls-3" d="M.09,1.31.42,2.88A3.43,3.43,0,0,1,1.65,1.53,4.39,4.39,0,0,1,3.06.76L1.8.21a1.38,1.38,0,0,0-1,.36A2.14,2.14,0,0,0,.09,1.31Z"/><path class="cls-3" d="M.77,4.56l.36,1.67A10.9,10.9,0,0,1,3.6,3.76c2-1.56,2.67-1.62,2.67-1.62L4.71,1.47s-.5-.09-2.11,1.19S.77,4.56.77,4.56Z"/><path class="cls-3" d="M1.56,8.23l.43,2a24.87,24.87,0,0,1,4.13-4,14.79,14.79,0,0,1,4-2.54l-2-.85S7,3.09,4.8,4.9A16.54,16.54,0,0,0,1.56,8.23Z"/><path class="cls-4" d="M8.78,8.84S1,1.34.7.85s0-.79.65-.47S11.91,6.56,11.91,6.56l-1.36.94C9.71,8.09,8.78,8.84,8.78,8.84Z"/><path class="cls-4" d="M6,11.21.7.85C.47.39.71.06,1.35.38s9.35,7,9.35,7-1.37,1-2.4,1.83S6,11.21,6,11.21Z"/></g><g id="Particles"><polygon class="cls-5" points="46.78 6.16 42.77 4.75 42.49 4.17 47.91 1.57 48.19 2.15 46.78 6.16"/><rect class="cls-6" x="43.07" y="0.74" width="4.25" height="4.25" transform="translate(3.51 -14.84) rotate(19.39)"/><polygon class="cls-5" points="43.34 64.76 39.1 65.1 38.61 64.68 42.51 60.1 43 60.52 43.34 64.76"/><rect class="cls-6" x="38.43" y="60.26" width="4.25" height="4.25" transform="matrix(1, -0.08, 0.08, 1, -4.85, 3.44)"/><polygon class="cls-5" points="2.6 51.61 0 48.24 0.08 47.6 6.05 48.37 5.96 49.01 2.6 51.61"/><rect class="cls-6" x="0.94" y="45.86" width="4.25" height="4.25" transform="translate(39.18 16.24) rotate(52.34)"/><polygon class="cls-7" points="5.92 64.21 3.03 61.09 3.05 60.45 9.06 60.67 9.04 61.31 5.92 64.21"/><rect class="cls-8" x="3.93" y="58.43" width="4.25" height="4.25" transform="translate(46.31 14.91) rotate(47.12)"/><polygon class="cls-7" points="26.89 9.16 25.09 5.31 25.31 4.7 30.96 6.76 30.74 7.37 26.89 9.16"/><rect class="cls-8" x="26.01" y="3.61" width="4.25" height="4.25" transform="translate(21.45 -22.19) rotate(65.01)"/><polygon class="cls-9" points="58.15 20.77 53.9 20.59 53.46 20.12 57.89 16.05 58.33 16.52 58.15 20.77"/><rect class="cls-10" x="53.55" y="15.96" width="4.25" height="4.25" transform="translate(0.82 -2.34) rotate(2.43)"/><polygon class="cls-9" points="13.04 67.53 10.56 64.95 10.68 64.32 16.59 65.43 16.48 66.06 13.04 67.53"/><polygon class="cls-10" points="13.16 66.9 10.68 64.32 14.05 63 16.59 65.43 13.16 66.9"/><polygon class="cls-11" points="58.27 60.45 54.08 61.11 53.55 60.73 57.09 55.87 57.62 56.24 58.27 60.45"/><rect class="cls-12" x="53.2" y="56.17" width="4.25" height="4.25" transform="translate(-8.38 9.3) rotate(-8.93)"/><polygon class="cls-11" points="23.89 82.05 20.99 78.94 21.02 78.3 27.02 78.51 27 79.15 23.89 82.05"/><rect class="cls-12" x="21.89" y="76.28" width="4.25" height="4.25" transform="translate(64.96 7.35) rotate(46.98)"/></g></svg>