<?xml version="1.0" encoding="UTF-8"?>
<svg width="222px" height="67px" viewBox="0 0 222 67" version="1.1" xmlns="http://www.w3.org/2000/svg" xmlns:xlink="http://www.w3.org/1999/xlink">
    <title>QuarantaeneHelden Logo rot</title>
    <defs>
        <polygon id="path-1" points="0.261387097 0.291225806 17.2169355 0.291225806 17.2169355 22.6983462 0.261387097 22.6983462"></polygon>
        <polygon id="path-3" points="0 66.5478022 221.887806 66.5478022 221.887806 0.796017204 0 0.796017204"></polygon>
    </defs>
    <g id="Web-&amp;-App-V2" stroke="none" stroke-width="1" fill="none" fill-rule="evenodd">
        <g id="Logo-Weiß-auf-Transparent">
            <g id="Group-39" transform="translate(0.000000, -0.000000)">
                <path d="M62.2643161,25.826 L62.8770043,24.4367097 C62.9971548,24.1637849 63.2987247,24.0309032 63.5811978,24.1255914 C65.3476495,24.7175914 67.5954989,25.2204731 70.3263376,25.6326452 C70.6724667,25.6843656 70.9008323,26.0312903 70.7989828,26.3662796 L69.957929,29.1361075 C69.8664237,29.4376774 69.5425742,29.6143226 69.2410043,29.526 C66.6987462,28.7891828 64.4453269,27.7969462 62.4791548,26.5492903 C62.2380581,26.3965161 62.1497355,26.0861935 62.2643161,25.826 M66.6907892,10.2987312 C66.3072624,9.56509677 65.5648753,9.19907527 64.4652194,9.19907527 C63.3647677,9.19907527 62.6223806,9.56509677 62.2396495,10.2987312 C61.8553269,11.0323656 61.6643591,12.4582581 61.6643591,14.5748172 C61.6643591,16.692172 61.8553269,18.1180645 62.2396495,18.8516989 C62.6223806,19.5853333 63.3647677,19.9521505 64.4652194,19.9521505 C65.5648753,19.9521505 66.3072624,19.5853333 66.6907892,18.8516989 C67.0743161,18.1180645 67.2660796,16.692172 67.2660796,14.5748172 C67.2660796,12.4582581 67.0743161,11.0323656 66.6907892,10.2987312 M64.4652194,5.59694624 C67.3830473,5.59694624 69.4049183,6.22634409 70.5300366,7.48513978 C71.6551548,8.74393548 72.217714,11.107957 72.217714,14.5748172 C72.217714,18.0432688 71.6551548,20.4064946 70.5300366,21.6652903 C69.4049183,22.9248817 67.3830473,23.5542796 64.4652194,23.5542796 C62.9979505,23.5542796 61.7932624,23.4166237 60.8519505,23.1413118 C59.9090473,22.866 59.1213054,22.3822151 58.487929,21.6907527 C57.853757,20.9992903 57.4041871,20.0810538 57.137628,18.9400215 C56.8710688,17.7973978 56.7373914,16.3428602 56.7373914,14.5748172 C56.7373914,12.8083656 56.8710688,11.353828 57.137628,10.2112043 C57.4041871,9.06937634 57.853757,8.15193548 58.487929,7.46047312 C59.1213054,6.76901075 59.9090473,6.28443011 60.8519505,6.00991398 C61.7932624,5.73460215 62.9979505,5.59694624 64.4652194,5.59694624" id="Fill-1" fill="#FFFFFF"></path>
                <path d="M89.0033806,5.94753118 L89.0033806,16.2009075 C89.0033806,18.8855957 88.4742409,20.7825419 87.4151656,21.8901548 C86.3560903,22.9993591 84.5347355,23.5539613 81.9511011,23.5539613 C79.1828645,23.5539613 77.2326065,22.9993591 76.0987355,21.8901548 C74.9640688,20.7825419 74.3983269,18.8855957 74.3983269,16.2009075 L74.3983269,5.94753118 L79.1001118,5.94753118 L79.1001118,16.2009075 C79.1001118,17.6681763 79.2831226,18.6604129 79.6499398,19.1768215 C80.016757,19.6940258 80.7002624,19.952628 81.7004559,19.952628 C82.7006495,19.952628 83.3841548,19.6940258 83.750972,19.1768215 C84.1177892,18.6604129 84.3015957,17.6681763 84.3015957,16.2009075 L84.3015957,5.94753118 L89.0033806,5.94753118 Z" id="Fill-3" fill="#FFFFFF"></path>
                <path d="M100.047602,15.7010495 L98.9471505,11.2745763 C98.7633441,10.4080602 98.655129,9.80730753 98.6217097,9.47390968 L97.9461613,9.47390968 C97.8299892,10.107286 97.7130215,10.7080387 97.5968495,11.2745763 L96.4963978,15.7010495 L100.047602,15.7010495 Z M100.922871,19.1018667 L95.621129,19.1018667 L94.5954731,23.2036946 L89.7934301,23.2036946 L94.5206774,7.17274839 C94.6034301,6.80593118 94.7912151,6.50993118 95.0832366,6.28474839 C95.3744624,6.06036129 95.7126344,5.94737204 96.0961613,5.94737204 L100.447839,5.94737204 C100.83057,5.94737204 101.168742,6.06036129 101.459968,6.28474839 C101.751989,6.50993118 101.948527,6.80593118 102.048785,7.17274839 L106.749774,23.2036946 L101.948527,23.2036946 L100.922871,19.1018667 Z" id="Fill-5" fill="#FFFFFF"></path>
                <path d="M112.899174,13.2751226 L115.150206,13.2751226 C116.033432,13.2751226 116.629411,13.1334882 116.938142,12.8502194 C117.246873,12.5661548 117.400443,12.0163269 117.400443,11.1991441 C117.400443,10.3819613 117.246873,9.83213333 116.938142,9.54806882 C116.629411,9.2655957 116.033432,9.12316559 115.150206,9.12316559 L112.899174,9.12316559 L112.899174,13.2751226 Z M122.802443,23.2038538 L117.876271,23.2038538 L116.650895,18.0015742 C116.533927,17.5018753 116.354895,17.1597247 116.113002,16.9759183 C115.87111,16.7929075 115.508271,16.7014022 115.025282,16.7014022 L112.899174,16.7014022 L112.899174,23.2038538 L108.272981,23.2038538 L108.272981,5.94753118 C109.906551,5.78043441 112.232378,5.69768172 115.250465,5.69768172 C117.733841,5.69768172 119.501884,6.07643441 120.552206,6.83473548 C121.602529,7.59383226 122.12769,8.94890753 122.12769,10.8991656 C122.12769,13.4334667 120.993819,14.8251441 118.726077,15.0757892 L118.726077,15.2253806 C120.176637,15.4593161 121.060658,16.3425419 121.377346,17.8766495 L122.802443,23.2038538 Z" id="Fill-7" fill="#FFFFFF"></path>
                <path d="M134.097151,15.7010495 L132.996699,11.2745763 C132.812892,10.4080602 132.704677,9.80730753 132.671258,9.47390968 L131.99571,9.47390968 C131.879538,10.107286 131.76257,10.7080387 131.646398,11.2745763 L130.545946,15.7010495 L134.097151,15.7010495 Z M134.972419,19.1018667 L129.670677,19.1018667 L128.645022,23.2036946 L123.842978,23.2036946 L128.570226,7.17274839 C128.652978,6.80593118 128.840763,6.50993118 129.132785,6.28474839 C129.424011,6.06036129 129.762183,5.94737204 130.14571,5.94737204 L134.497387,5.94737204 C134.880118,5.94737204 135.21829,6.06036129 135.509516,6.28474839 C135.801538,6.50993118 135.998075,6.80593118 136.098333,7.17274839 L140.799323,23.2036946 L135.998075,23.2036946 L134.972419,19.1018667 Z" id="Fill-9" fill="#FFFFFF"></path>
                <path d="M157.602892,5.94753118 L157.602892,21.5527785 C157.602892,22.6532301 157.060226,23.2038538 155.97728,23.2038538 L153.750914,23.2038538 C153.301344,23.2038538 152.951237,23.0996172 152.701387,22.8911441 C152.450742,22.682671 152.19214,22.3285849 151.925581,21.8280903 L147.824548,14.4249075 C147.374183,13.5751011 146.999409,12.6329935 146.698634,11.5993806 L146.498914,11.5993806 C146.631796,12.6329935 146.698634,13.6172731 146.698634,14.550628 L146.698634,23.2038538 L142.32229,23.2038538 L142.32229,7.59781075 C142.32229,6.49735914 142.872118,5.94753118 143.97257,5.94753118 L146.173473,5.94753118 C146.623839,5.94753118 146.969968,6.05176774 147.211065,6.26024086 C147.452957,6.46871398 147.715538,6.8228 147.999602,7.32329462 L151.950247,14.4503699 C152.367194,15.200714 152.800849,16.1595312 153.251215,17.3268215 L153.450935,17.3268215 C153.334763,16.1754452 153.267925,15.1672946 153.251215,14.2999828 L153.251215,5.94753118 L157.602892,5.94753118 Z" id="Fill-11" fill="#FFFFFF"></path>
                <polygon id="Fill-13" fill="#FFFFFF" points="173.973761 9.57329247 168.996665 9.57329247 168.996665 23.2036151 164.29488 23.2036151 164.29488 9.57329247 159.343245 9.57329247 159.343245 5.94729247 173.973761 5.94729247"></polygon>
                <g id="Group-17" transform="translate(172.666667, 0.504791)">
                    <mask id="mask-2" fill="white">
                        <use xlink:href="#path-1"></use>
                    </mask>
                    <g id="Clip-16"></g>
                    <path d="M11.7902688,3.61669032 L10.315043,3.61669032 C9.71508602,3.61669032 9.41510753,3.31671183 9.41510753,2.71675484 L9.41510753,1.1906043 C9.41510753,0.590647312 9.71508602,0.290668817 10.315043,0.290668817 L11.7902688,0.290668817 C12.4069355,0.290668817 12.7156667,0.590647312 12.7156667,1.1906043 L12.7156667,2.71675484 C12.7156667,3.31671183 12.4069355,3.61669032 11.7902688,3.61669032 L11.7902688,3.61669032 Z M10.5147634,15.1964968 L9.41510753,10.769228 C9.23050538,9.90271183 9.12229032,9.30275484 9.08887097,8.96935699 L8.41411828,8.96935699 C8.29715054,9.60193763 8.18097849,10.2026903 8.06401075,10.769228 L6.96435484,15.1964968 L10.5147634,15.1964968 Z M7.16407527,3.61669032 L5.6633871,3.61669032 C5.06343011,3.61669032 4.76265591,3.31671183 4.76265591,2.71675484 L4.76265591,1.1906043 C4.76265591,0.590647312 5.06343011,0.290668817 5.6633871,0.290668817 L7.16407527,0.290668817 C7.76323656,0.290668817 8.06401075,0.590647312 8.06401075,1.1906043 L8.06401075,2.71675484 C8.06401075,3.31671183 7.76323656,3.61669032 7.16407527,3.61669032 L7.16407527,3.61669032 Z M11.3900323,18.597314 L6.08829032,18.597314 L5.06343011,22.6983462 L0.261387097,22.6983462 L4.98783871,6.6681957 C5.0713871,6.30137849 5.25837634,6.00537849 5.55039785,5.7801957 C5.84162366,5.5558086 6.1797957,5.44281935 6.56411828,5.44281935 L10.915,5.44281935 C11.2985269,5.44281935 11.6366989,5.5558086 11.9279247,5.7801957 C12.2191505,6.00537849 12.4156882,6.30137849 12.5159462,6.6681957 L17.2169355,22.6983462 L12.4156882,22.6983462 L11.3900323,18.597314 Z" id="Fill-15" fill="#FFFFFF" mask="url(#mask-2)"></path>
                </g>
                <path d="M206.68757,5.94753118 L206.68757,21.5527785 C206.68757,22.6532301 206.144903,23.2038538 205.061957,23.2038538 L202.835591,23.2038538 C202.386022,23.2038538 202.035914,23.0996172 201.786065,22.8911441 C201.535419,22.682671 201.276817,22.3285849 201.010258,21.8280903 L196.909226,14.4249075 C196.45886,13.5751011 196.084086,12.6329935 195.783312,11.5993806 L195.583591,11.5993806 C195.716473,12.6329935 195.783312,13.6172731 195.783312,14.550628 L195.783312,23.2038538 L191.406968,23.2038538 L191.406968,7.59781075 C191.406968,6.49735914 191.956796,5.94753118 193.057247,5.94753118 L195.258151,5.94753118 C195.708516,5.94753118 196.054645,6.05176774 196.295742,6.26024086 C196.537634,6.46871398 196.800215,6.8228 197.08428,7.32329462 L201.034925,14.4503699 C201.451871,15.200714 201.885527,16.1595312 202.335892,17.3268215 L202.535613,17.3268215 C202.419441,16.1754452 202.352602,15.1672946 202.335892,14.2999828 L202.335892,5.94753118 L206.68757,5.94753118 Z" id="Fill-18" fill="#FFFFFF"></path>
                <path d="M221.662862,19.6275054 L221.887249,23.0036559 C220.25368,23.1874624 217.40269,23.2789677 213.334282,23.2789677 C212.150282,23.2789677 211.200217,22.9407957 210.483292,22.2652473 C209.766368,21.5904946 209.408303,20.6945376 209.408303,19.5773763 L209.408303,9.57305376 C209.408303,8.45668817 209.771142,7.56073118 210.496024,6.8851828 C211.221701,6.21043011 212.166991,5.87225806 213.334282,5.87225806 C217.40269,5.87225806 220.25368,5.96376344 221.887249,6.14756989 L221.662862,9.52372043 L215.185077,9.52372043 C214.468153,9.52372043 214.110088,9.88258065 214.110088,10.5987097 L214.110088,12.6993548 L220.737465,12.6993548 L220.737465,15.925914 L214.110088,15.925914 L214.110088,18.5517204 C214.110088,19.2686452 214.468153,19.6275054 215.185077,19.6275054 L221.662862,19.6275054 Z" id="Fill-20" fill="#FFFFFF"></path>
                <polygon id="Fill-22" fill="#FFFFFF" points="71.8173978 33.4574688 71.8173978 50.7137914 67.1164086 50.7137914 67.1164086 43.2604796 61.9642581 43.2604796 61.9642581 50.7137914 57.2871398 50.7137914 57.2871398 33.4574688 61.9642581 33.4574688 61.9642581 39.8349957 67.1164086 39.8349957 67.1164086 33.4574688"></polygon>
                <path d="M86.7934065,47.1373634 L87.0177935,50.513514 C85.3842237,50.6973204 82.5332344,50.7888258 78.4648258,50.7888258 C77.2808258,50.7888258 76.3307613,50.4506538 75.6138366,49.7751054 C74.8969118,49.1003527 74.5388473,48.2043957 74.5388473,47.0872344 L74.5388473,37.0829118 C74.5388473,35.9665462 74.901686,35.0705892 75.6265677,34.3950409 C76.3522452,33.7202882 77.2975355,33.3821161 78.4648258,33.3821161 C82.5332344,33.3821161 85.3842237,33.4736215 87.0177935,33.657428 L86.7934065,37.0335785 L80.3156215,37.0335785 C79.5986968,37.0335785 79.2406323,37.3924387 79.2406323,38.1085677 L79.2406323,40.2092129 L85.8680086,40.2092129 L85.8680086,43.435772 L79.2406323,43.435772 L79.2406323,46.0615785 C79.2406323,46.7785032 79.5986968,47.1373634 80.3156215,47.1373634 L86.7934065,47.1373634 Z" id="Fill-24" fill="#FFFFFF"></path>
                <path d="M93.8070946,33.4574688 L93.8070946,45.886286 C93.8070946,46.6032108 94.1985785,46.962071 94.9831376,46.962071 L100.834708,46.962071 L101.05989,50.4878129 C99.4263204,50.688329 96.7830086,50.7885871 93.1315462,50.7885871 C91.8480839,50.7885871 90.856643,50.4432538 90.1556323,49.7509957 C89.4554172,49.0587376 89.1061054,48.1373183 89.1061054,46.9875333 L89.1061054,33.4574688 L93.8070946,33.4574688 Z" id="Fill-26" fill="#FFFFFF"></path>
                <path d="M107.452854,36.7334409 L107.452854,47.4125161 C107.935843,47.4284301 108.728359,47.4371828 109.828015,47.4371828 C110.912553,47.4371828 111.646187,47.0743441 112.029714,46.3494624 C112.412445,45.6237849 112.605004,44.2026667 112.605004,42.0853118 C112.605004,39.967957 112.412445,38.5420645 112.029714,37.8092258 C111.646187,37.0755914 110.912553,36.7087742 109.828015,36.7087742 L107.452854,36.7334409 Z M102.751069,50.7130753 L102.751069,33.4575484 C105.551929,33.2904516 107.911176,33.2069032 109.828015,33.2069032 C112.729929,33.2069032 114.743047,33.8323226 115.868166,35.0831613 C116.993284,36.3332043 117.555843,38.6677849 117.555843,42.0853118 C117.555843,45.5028387 116.993284,47.8374194 115.868166,49.0874624 C114.743047,50.3383011 112.729929,50.9637204 109.828015,50.9637204 C107.410682,50.9637204 105.051434,50.8793763 102.751069,50.7130753 L102.751069,50.7130753 Z" id="Fill-28" fill="#FFFFFF"></path>
                <mask id="mask-4" fill="white">
                    <use xlink:href="#path-3"></use>
                </mask>
                <g id="Clip-31"></g>
                <polygon id="Fill-30" fill="#FFFFFF" mask="url(#mask-4)" points="124.438559 50.7133935 129.091011 50.7133935 129.091011 33.457071 124.438559 33.457071"></polygon>
                <path d="M147.202869,33.4574688 L147.202869,49.0627161 C147.202869,50.1631677 146.660202,50.7137914 145.577256,50.7137914 L143.35089,50.7137914 C142.90132,50.7137914 142.551213,50.6095548 142.301363,50.4010817 C142.050718,50.1926086 141.792116,49.8385226 141.525557,49.338028 L137.424525,41.9348452 C136.974159,41.0850387 136.599385,40.1429312 136.298611,39.1093183 L136.09889,39.1093183 C136.231772,40.1429312 136.298611,41.1272108 136.298611,42.0605656 L136.298611,50.7137914 L131.922267,50.7137914 L131.922267,35.1077484 C131.922267,34.0072968 132.472095,33.4574688 133.572546,33.4574688 L135.773449,33.4574688 C136.223815,33.4574688 136.569944,33.5617054 136.811041,33.7701785 C137.052933,33.9786516 137.315514,34.3327376 137.599578,34.8332323 L141.550224,41.9603075 C141.96717,42.7106516 142.400826,43.6694688 142.851191,44.8367591 L143.050912,44.8367591 C142.93474,43.6853828 142.867901,42.6772323 142.851191,41.8099204 L142.851191,33.4574688 L147.202869,33.4574688 Z" id="Fill-32" fill="#FFFFFF" mask="url(#mask-4)"></path>
                <path d="M165.293323,33.4574688 L165.293323,49.0627161 C165.293323,50.1631677 164.750656,50.7137914 163.66771,50.7137914 L161.441344,50.7137914 C160.991774,50.7137914 160.641667,50.6095548 160.391817,50.4010817 C160.141172,50.1926086 159.88257,49.8385226 159.616011,49.338028 L155.514978,41.9348452 C155.064613,41.0850387 154.689839,40.1429312 154.389065,39.1093183 L154.189344,39.1093183 C154.322226,40.1429312 154.389065,41.1272108 154.389065,42.0605656 L154.389065,50.7137914 L150.01272,50.7137914 L150.01272,35.1077484 C150.01272,34.0072968 150.562548,33.4574688 151.663,33.4574688 L153.863903,33.4574688 C154.314269,33.4574688 154.660398,33.5617054 154.901495,33.7701785 C155.143387,33.9786516 155.405968,34.3327376 155.690032,34.8332323 L159.640677,41.9603075 C160.057624,42.7106516 160.49128,43.6694688 160.941645,44.8367591 L161.141366,44.8367591 C161.025194,43.6853828 160.958355,42.6772323 160.941645,41.8099204 L160.941645,33.4574688 L165.293323,33.4574688 Z" id="Fill-33" fill="#FFFFFF" mask="url(#mask-4)"></path>
                <path d="M180.268615,47.1373634 L180.493002,50.513514 C178.859432,50.6973204 176.008443,50.7888258 171.940034,50.7888258 C170.756034,50.7888258 169.80597,50.4506538 169.089045,49.7751054 C168.37212,49.1003527 168.014056,48.2043957 168.014056,47.0872344 L168.014056,37.0829118 C168.014056,35.9665462 168.376895,35.0705892 169.101776,34.3950409 C169.827454,33.7202882 170.772744,33.3821161 171.940034,33.3821161 C176.008443,33.3821161 178.859432,33.4736215 180.493002,33.657428 L180.268615,37.0335785 L173.79083,37.0335785 C173.073905,37.0335785 172.715841,37.3924387 172.715841,38.1085677 L172.715841,40.2092129 L179.343217,40.2092129 L179.343217,43.435772 L172.715841,43.435772 L172.715841,46.0615785 C172.715841,46.7785032 173.073905,47.1373634 173.79083,47.1373634 L180.268615,47.1373634 Z" id="Fill-34" fill="#FFFFFF" mask="url(#mask-4)"></path>
                <path d="M197.969813,33.4574688 L197.969813,49.0627161 C197.969813,50.1631677 197.427146,50.7137914 196.3442,50.7137914 L194.117834,50.7137914 C193.668265,50.7137914 193.318157,50.6095548 193.068308,50.4010817 C192.817662,50.1926086 192.55906,49.8385226 192.292501,49.338028 L188.191469,41.9348452 C187.741103,41.0850387 187.366329,40.1429312 187.065555,39.1093183 L186.865834,39.1093183 C186.998716,40.1429312 187.065555,41.1272108 187.065555,42.0605656 L187.065555,50.7137914 L182.689211,50.7137914 L182.689211,35.1077484 C182.689211,34.0072968 183.239039,33.4574688 184.33949,33.4574688 L186.540394,33.4574688 C186.990759,33.4574688 187.336888,33.5617054 187.577985,33.7701785 C187.819877,33.9786516 188.082458,34.3327376 188.366523,34.8332323 L192.317168,41.9603075 C192.734114,42.7106516 193.16777,43.6694688 193.618135,44.8367591 L193.817856,44.8367591 C193.701684,43.6853828 193.634845,42.6772323 193.618135,41.8099204 L193.618135,33.4574688 L197.969813,33.4574688 Z" id="Fill-35" fill="#FFFFFF" mask="url(#mask-4)"></path>
                <path d="M22.2742387,31.8069505 C22.7063032,32.6098108 22.619572,33.8041548 22.0498516,34.6555527 L17.6870344,40.9718108 C17.4849269,41.2861118 17.1785828,41.5327785 16.8300667,41.684757 C16.197486,41.9616602 15.4264538,41.9218753 14.8296796,41.5041333 C13.8724538,40.8675742 13.6456796,39.5721763 14.297357,38.6467785 L15.2848194,37.1978108 L15.7017656,36.6002409 L18.2599376,32.8827355 L16.8380237,29.8861333 C16.419486,29.0140473 16.4712065,28.0114667 16.977271,27.1871226 C16.977271,27.1871226 18.3347333,24.8612946 19.6038731,22.7614452 C15.2108194,25.4723914 10.7413785,31.4576387 7.7781957,33.7325419 C7.24587312,34.152671 6.42789462,33.8328 6.29103441,33.1763484 C6.00537849,31.8308215 5.23514194,29.9816172 4.53572258,27.9509935 C4.34634624,27.4306065 4.62324946,26.8577032 5.15716344,26.6993591 C8.65983011,25.6585849 16.5945398,19.9303484 19.2593355,18.9556172 C22.1763677,17.8686925 23.6802387,18.982671 25.6058301,19.4226925 C26.5550989,19.6104774 27.9618946,19.9001118 30.1190344,20.3520688 C30.5327978,20.4348215 30.9497441,20.4411871 31.3714645,20.3703699 L34.7579591,19.7560903 C35.6642602,19.5874022 36.5753355,20.2064559 36.695486,21.1716387 C36.8554215,21.9681333 36.4297226,22.7192731 35.7024538,23.0375527 C35.6069699,23.078929 35.4812495,23.134628 35.3404108,23.1577032 L31.9531204,23.7711871 C31.1104753,23.9136172 30.2447548,23.9152086 29.3726688,23.7314022 C28.6684753,23.5857892 27.6643032,23.4011871 27.1646043,23.3025204 C26.9338516,23.6892301 26.7564108,23.9995527 26.6641097,24.3353376 C26.4938301,24.9591656 26.4596151,25.3944129 26.0999591,25.8750151 C25.6082172,26.5298753 25.117271,26.3914237 24.6104108,26.8091656 C23.9834,27.3239828 22.2145613,30.7399183 22.2145613,30.7399183 C22.2145613,30.7399183 21.8915075,31.1003699 22.2742387,31.8069505 M12.7107333,38.8122839 L11.9126473,39.3119828 C11.7996581,39.398714 11.7041742,39.440886 11.609486,39.4822624 C10.6912495,39.8824989 9.61069032,39.5642194 9.05131398,38.7160043 C8.45056129,37.7723054 8.71791613,36.4872516 9.69264731,35.8721763 L14.889357,32.5851441 L16.1051849,31.4878753 L16.7043462,32.7713376 L13.1801957,37.8160688 C12.9780882,38.1295742 12.8221312,38.4621763 12.7107333,38.8122839 M23.1160882,14.9349505 C23.3309269,13.0014022 25.0735075,11.6081333 27.0062602,11.8237677 C28.9398086,12.0394022 30.3322817,13.7811871 30.1166473,15.7139398 C29.9018086,17.6474882 28.159228,19.040757 26.2264753,18.8259183 C24.2929269,18.6102839 22.9004538,16.8684989 23.1160882,14.9349505 M35.0921527,9.15897204 C32.2260452,5.75974624 27.1041312,4.06013333 19.7295935,4.06013333 C12.3518731,4.06013333 7.22041075,5.75974624 4.33202366,9.15897204 C1.44284086,12.5589935 0.000238709677,18.8131871 0.000238709677,27.9215527 C0.000238709677,37.030714 1.44284086,43.2849075 4.33202366,46.6841333 C7.22041075,50.0833591 12.3518731,51.7821763 19.7295935,51.7821763 C27.1041312,51.7821763 32.2260452,50.0833591 35.0921527,46.6841333 C37.9582602,43.2849075 39.391314,37.030714 39.391314,27.9215527 C39.391314,18.8131871 37.9582602,12.5589935 35.0921527,9.15897204" id="Fill-36" fill="#FFFFFF" mask="url(#mask-4)"></path>
                <path d="M15.126157,59.3145011 C20.6912753,62.5394688 26.3765441,64.9337269 32.1787806,66.498071 C32.9315118,66.7009742 33.7097054,66.2625441 33.9452323,65.5193613 L35.8755978,59.4139634 C36.1461355,58.5577914 35.5867591,57.6658129 34.6987591,57.528157 C28.0411462,56.500114 22.354286,55.2134688 17.6357914,53.6682215 C16.926028,53.4358774 16.1573828,53.7867806 15.8542215,54.4686946 L14.5285871,57.4509742 C14.2254258,58.1328882 14.4800495,58.9405226 15.126157,59.3145011" id="Fill-37" fill="#FFFFFF" mask="url(#mask-4)"></path>
                <path d="M122.908351,35.4265054 L121.571576,35.6938602 L121.293877,35.3596667 L121.270802,34.8130215 L122.529598,34.2345484 L122.908351,35.4265054 Z M121.070286,35.4145699 L122.329082,36.8523978 L121.337641,37.5876237 L120.62549,36.2619892 L119.922888,37.5876237 L118.920308,36.8523978 L120.202178,35.4265054 L120.001662,33.4651075 L121.248523,33.4651075 L121.070286,35.4145699 Z M119.978587,34.8130215 L119.978587,35.3596667 L119.700888,35.6938602 L118.341834,35.4265054 L118.719791,34.2456882 L119.978587,34.8130215 Z" id="Fill-38" fill="#FFFFFF" mask="url(#mask-4)"></path>
            </g>
        </g>
    </g>
</svg>