<?xml version="1.0" encoding="UTF-8"?>
<svg width="356px" height="162px" viewBox="0 0 356 162" version="1.1" xmlns="http://www.w3.org/2000/svg" xmlns:xlink="http://www.w3.org/1999/xlink">
    <!-- Generator: Sketch 63.1 (92452) - https://sketch.com -->
    <title>Logo</title>

    <desc>Created with Sketch.</desc>
    <defs>
        <filter x="-5.4%" y="-2.7%" width="110.8%" height="105.5%" filterUnits="objectBoundingBox" id="filter-2">
            <feOffset dx="0" dy="0" in="SourceAlpha" result="shadowOffsetOuter1"></feOffset>
            <feGaussianBlur stdDeviation="15" in="shadowOffsetOuter1" result="shadowBlurOuter1"></feGaussianBlur>
            <feColorMatrix values="0 0 0 0 0   0 0 0 0 0   0 0 0 0 0  0 0 0 0.1 0" type="matrix" in="shadowBlurOuter1"></feColorMatrix>
        </filter>
        <polygon id="path-3" points="0 0.224 18.0022154 0.224 18.0022154 27.8076364 0 27.8076364"></polygon>
        <polygon id="path-5" points="0.0476 0.16775 19.0369333 0.16775 19.0369333 25.574345 0.0476 25.574345"></polygon>
        <polygon id="path-7" points="0.137421429 0.1164 17.0121357 0.1164 17.0121357 20 0.137421429 20"></polygon>
    </defs>
    <g id="Page-1" stroke="none" stroke-width="1" fill="none" fill-rule="evenodd">
        <g id="Desktop-HD" transform="translate(-274.000000, -39.000000)">
            <g id="Logo" transform="translate(274.000000, 39.000000)">
                <path d="M312.136117,0.405855932 C326.467243,-0.360838983 339.045571,9.86504237 340.785739,24.1438559 L355.076167,124.241856 C357.082974,140.698364 343.937688,154.970144 327.407495,154.451042 C203.520159,150.562703 132.25782,149.032223 41.6750549,161.06863 C23.3251365,163.573805 14.119657,160.13845 11.7123306,142.476763 C7.13907268,108.924417 5.70197222,103.124327 1,70.1411982 C-1.87126658,50 4.66227739,45.0222587 25.8108525,40.2042188 C139.744147,13.4247612 222.131537,5.22126271 312.136117,0.405855932 Z" id="Fill-1" fill="#B6223E"></path>
                <g id="QH" transform="translate(118.000000, 53.000000)">
                    <g id="Group-3" transform="translate(0.000000, 6.000000)">
                        <mask id="mask-4" fill="white">
                            <use xlink:href="#path-3"></use>
                        </mask>
                        <g id="Clip-2"></g>
                        <path d="M6.19421538,23.9117273 L7.38636923,21.2485455 C9.67513846,22.0680909 12.7392923,22.7471818 16.5774462,23.2817273 L15.1803692,27.8076364 C11.7492923,26.8912727 8.75436923,25.5917273 6.19421538,23.9117273 M11.5748308,5.609 C11.1276,4.769 10.2649846,4.349 8.98698462,4.349 C7.7076,4.349 6.8436,4.769 6.39775385,5.609 C5.95190769,6.449 5.72898462,8.08263636 5.72898462,10.5071818 C5.72898462,12.9317273 5.95190769,14.5653636 6.39775385,15.4053636 C6.8436,16.2453636 7.7076,16.6653636 8.98698462,16.6653636 C10.2649846,16.6653636 11.1276,16.2453636 11.5748308,15.4053636 C12.0206769,14.5653636 12.2436,12.9317273 12.2436,10.5071818 C12.2436,8.08263636 12.0206769,6.449 11.5748308,5.609 M8.98698462,0.224 C12.3792923,0.224 14.7303692,0.945363636 16.0388308,2.38672727 C17.3486769,3.82809091 18.0022154,6.53490909 18.0022154,10.5071818 C18.0022154,14.4794545 17.3486769,17.1849091 16.0388308,18.6276364 C14.7303692,20.069 12.3792923,20.789 8.98698462,20.789 C7.27975385,20.789 5.87852308,20.6321818 4.78329231,20.3171818 C3.68806154,20.0021818 2.77144615,19.4485455 2.03483077,18.6562727 C1.29821538,17.864 0.774830769,16.8126364 0.464676923,15.5049091 C0.154523077,14.1971818 -0.000553846154,12.5308182 -0.000553846154,10.5071818 C-0.000553846154,8.48354545 0.154523077,6.81718182 0.464676923,5.50809091 C0.774830769,4.20036364 1.29821538,3.15036364 2.03483077,2.35809091 C2.77144615,1.56581818 3.68806154,1.01218182 4.78329231,0.697181818 C5.87852308,0.382181818 7.27975385,0.224 8.98698462,0.224" id="Fill-1" fill="#FEFEFE" mask="url(#mask-4)"></path>
                    </g>
                    <path d="M37,6 L37,17.6480693 C37,20.6980456 36.3846906,22.8512883 35.1513002,24.111855 C33.9192957,25.3710692 31.7989729,26 28.7917176,26 C25.5696584,26 23.2996658,25.3710692 21.9803538,24.111855 C20.659656,22.8512883 20,20.6980456 20,17.6480693 L20,6 L25.474036,6 L25.474036,17.6480693 C25.474036,19.3143978 25.6860683,20.4424156 26.1142904,21.0280652 C26.5397408,21.6150673 27.3352083,21.9099209 28.5006929,21.9099209 C29.6647917,21.9099209 30.4602592,21.6150673 30.8870955,21.0280652 C31.3139317,20.4424156 31.5273498,19.3143978 31.5273498,17.6480693 L31.5273498,6 L37,6 Z" id="Fill-4" fill="#FEFEFE"></path>
                    <path d="M49.4899235,17.3047678 L48.2571449,12.174015 C48.0516818,11.1693921 47.9302718,10.4738839 47.8929148,10.0874905 L47.1351029,10.0874905 C47.0056878,10.821638 46.8736044,11.5171462 46.7428551,12.174015 L45.5114107,17.3047678 L49.4899235,17.3047678 Z M50.4705428,21.2459808 L44.5294572,21.2459808 L43.3807317,26 L38,26 L43.2966786,7.41999586 C43.3900709,6.99496309 43.6008707,6.6527289 43.9277438,6.39191334 C44.2532828,6.12971779 44.6321888,6 45.0631276,6 L49.9382066,6 C50.3678112,6 50.745383,6.12971779 51.0735903,6.39191334 C51.4004635,6.6527289 51.6206025,6.99496309 51.7326733,7.41999586 L57,26 L51.6206025,26 L50.4705428,21.2459808 Z" id="Fill-6" fill="#FEFEFE"></path>
                    <path d="M64.4135868,14.6567367 L67.0465459,14.6567367 C68.0802262,14.6567367 68.7781693,14.494865 69.1389822,14.1711215 C69.4997951,13.8473781 69.679505,13.2189349 69.679505,12.285792 C69.679505,11.3526491 69.4997951,10.7228457 69.1389822,10.3991022 C68.7781693,10.0753588 68.0802262,9.91348704 67.0465459,9.91348704 L64.4135868,9.91348704 L64.4135868,14.6567367 Z M76,26 L70.2367451,26 L68.801852,20.0569952 C68.6667213,19.4856832 68.4549701,19.0952867 68.1735639,18.8858056 C67.8907646,18.6763246 67.465869,18.5702238 66.9002704,18.5702238 L64.4135868,18.5702238 L64.4135868,26 L59,26 L59,6.28565599 C60.9113333,6.09521866 63.6320577,6 67.1635663,6 C70.0709662,6 72.1383266,6.43256478 73.3670409,7.29905461 C74.5971482,8.16690471 75.2101123,9.71352785 75.2101123,11.9416446 C75.2101123,14.8376522 73.883881,16.4278038 71.2314185,16.7134598 L71.2314185,16.8848534 C72.9282144,17.1514657 73.9618946,18.1621438 74.3324592,19.9141672 L76,26 Z" id="Fill-8" fill="#FEFEFE"></path>
                    <path d="M88.4899235,17.3047678 L87.2571449,12.174015 C87.0516818,11.1693921 86.9302718,10.4738839 86.8929148,10.0874905 L86.1351029,10.0874905 C86.0056878,10.821638 85.8736044,11.5171462 85.7428551,12.174015 L84.5114107,17.3047678 L88.4899235,17.3047678 Z M89.4705428,21.2459808 L83.5294572,21.2459808 L82.3807317,26 L77,26 L82.2966786,7.41999586 C82.3900709,6.99496309 82.6008707,6.6527289 82.9277438,6.39191334 C83.2532828,6.12971779 83.6321888,6 84.0631276,6 L88.9382066,6 C89.3678112,6 89.745383,6.12971779 90.0735903,6.39191334 C90.4004635,6.6527289 90.6206025,6.99496309 90.7326733,7.41999586 L96,26 L90.6206025,26 L89.4705428,21.2459808 Z" id="Fill-10" fill="#FEFEFE"></path>
                    <path d="M116,6 L116,24.0873525 C116,25.3624508 115.361802,26 114.085405,26 L111.463882,26 C110.933687,26 110.521312,25.879942 110.226759,25.6370662 C109.932206,25.3969503 109.626432,24.9857172 109.312242,24.4061271 L104.480168,15.8268129 C103.949973,14.8401297 103.509546,13.7485683 103.156082,12.5507486 L102.920439,12.5507486 C103.076132,13.7485683 103.156082,14.8884289 103.156082,15.9717105 L103.156082,26 L98,26 L98,7.91264748 C98,6.63754916 98.6480168,6 99.9440505,6 L102.536118,6 C103.066313,6 103.473077,6.12005796 103.759215,6.36293383 C104.043949,6.60304975 104.352529,7.01428276 104.687758,7.5938729 L109.341697,15.8557925 C109.834022,16.7237977 110.34458,17.8360588 110.874776,19.1884358 L111.110418,19.1884358 C110.971558,17.8553785 110.89301,16.6865383 110.874776,15.6819154 L110.874776,6 L116,6 Z" id="Fill-12" fill="#FEFEFE"></path>
                    <polygon id="Fill-14" fill="#FEFEFE" points="135 10.2020286 129.217122 10.2020286 129.217122 26 123.753825 26 123.753825 10.2020286 118 10.2020286 118 6 135 6"></polygon>
                    <g id="Group-18" transform="translate(134.000000, 0.000000)">
                        <mask id="mask-6" fill="white">
                            <use xlink:href="#path-5"></use>
                        </mask>
                        <g id="Clip-17"></g>
                        <path d="M12.9596,3.939245 L11.3076,3.939245 C10.6356,3.939245 10.2996,3.599045 10.2996,2.918645 L10.2996,1.187945 C10.2996,0.507545 10.6356,0.167345 11.3076,0.167345 L12.9596,0.167345 C13.6502667,0.167345 13.9956,0.507545 13.9956,1.187945 L13.9956,2.918645 C13.9956,3.599045 13.6502667,3.939245 12.9596,3.939245 L12.9596,3.939245 Z M11.5316,17.067995 L10.2996,12.048695 C10.0942667,11.065895 9.97293333,10.385495 9.93426667,10.007495 L9.17826667,10.007495 C9.0476,10.725695 8.91693333,11.406095 8.78626667,12.048695 L7.55426667,17.067995 L11.5316,17.067995 Z M7.77826667,3.939245 L6.09826667,3.939245 C5.42626667,3.939245 5.09026667,3.599045 5.09026667,2.918645 L5.09026667,1.187945 C5.09026667,0.507545 5.42626667,0.167345 6.09826667,0.167345 L7.77826667,0.167345 C8.45026667,0.167345 8.78626667,0.507545 8.78626667,1.187945 L8.78626667,2.918645 C8.78626667,3.599045 8.45026667,3.939245 7.77826667,3.939245 L7.77826667,3.939245 Z M12.5116,20.924945 L6.57426667,20.924945 L5.42626667,25.574345 L0.0476,25.574345 L5.34226667,7.399295 C5.43426667,6.982145 5.64626667,6.647345 5.97293333,6.392195 C6.29826667,6.135695 6.67693333,6.008795 7.10626667,6.008795 L11.9796,6.008795 C12.4089333,6.008795 12.7862667,6.135695 13.1129333,6.392195 C13.4396,6.647345 13.6596,6.982145 13.7716,7.399295 L19.0369333,25.574345 L13.6596,25.574345 L12.5116,20.924945 Z" id="Fill-16" fill="#FEFEFE" mask="url(#mask-6)"></path>
                    </g>
                    <path d="M173,6 L173,24.0873525 C173,25.3624508 172.361802,26 171.085405,26 L168.463882,26 C167.933687,26 167.521312,25.879942 167.226759,25.6370662 C166.932206,25.3969503 166.626432,24.9857172 166.312242,24.4061271 L161.480168,15.8268129 C160.949973,14.8401297 160.509546,13.7485683 160.156082,12.5507486 L159.920439,12.5507486 C160.076132,13.7485683 160.156082,14.8884289 160.156082,15.9717105 L160.156082,26 L155,26 L155,7.91264748 C155,6.63754916 155.648017,6 156.94405,6 L159.536118,6 C160.066313,6 160.473077,6.12005796 160.759215,6.36293383 C161.043949,6.60304975 161.352529,7.01428276 161.687758,7.5938729 L166.341697,15.8557925 C166.834022,16.7237977 167.34458,17.8360588 167.874776,19.1884358 L168.110418,19.1884358 C167.971558,17.8553785 167.89301,16.6865383 167.874776,15.6819154 L167.874776,6 L173,6 Z" id="Fill-19" fill="#FEFEFE"></path>
                    <path d="M189.747543,21.8040906 L190,25.6839729 C188.166015,25.8946576 184.968228,26 180.405305,26 C179.077569,26 178.010304,25.6114645 177.206183,24.8357617 C176.402061,24.0600588 176,23.0298926 176,21.7466311 L176,10.2520008 C176,8.96873931 176.407404,7.93857309 177.220876,7.16287024 C178.033012,6.38716738 179.094934,6 180.405305,6 C184.968228,6 188.166015,6.10534236 190,6.31602709 L189.747543,10.1945414 L182.482397,10.1945414 C181.676939,10.1945414 181.274878,10.6063342 181.274878,11.42992 L181.274878,13.8445858 L188.709665,13.8445858 L188.709665,17.5520897 L181.274878,17.5520897 L181.274878,20.568712 C181.274878,21.3922977 181.676939,21.8040906 182.482397,21.8040906 L189.747543,21.8040906 Z" id="Fill-21" fill="#FEFEFE"></path>
                    <polygon id="Fill-23" fill="#FEFEFE" points="17 38 17 58 11.4990987 58 11.4990987 49.3627268 5.47164864 49.3627268 5.47164864 58 0 58 0 38 5.47164864 38 5.47164864 45.3911544 11.4990987 45.3911544 11.4990987 38"></polygon>
                    <path d="M34.7475432,53.8040906 L35,57.6839729 C33.1660147,57.8946576 29.9682282,58 25.4053048,58 C24.0775689,58 23.0103044,57.6114645 22.2061826,56.8357617 C21.4020609,56.0600588 21,55.0298926 21,53.7466311 L21,42.2520008 C21,40.9687393 21.4074039,39.9385731 22.2208759,39.1628702 C23.0330121,38.3871674 24.0949337,38 25.4053048,38 C29.9682282,38 33.1660147,38.1053424 35,38.3160271 L34.7475432,42.1945414 L27.4823967,42.1945414 C26.6769392,42.1945414 26.2748784,42.6063342 26.2748784,43.42992 L26.2748784,45.8445858 L33.7096651,45.8445858 L33.7096651,49.5520897 L26.2748784,49.5520897 L26.2748784,52.568712 C26.2748784,53.3922977 26.6769392,53.8040906 27.4823967,53.8040906 L34.7475432,53.8040906 Z" id="Fill-25" fill="#FEFEFE"></path>
                    <path d="M42.5051793,38 L42.5051793,52.3432262 C42.5051793,53.1717505 42.9639442,53.5839516 43.8814741,53.5839516 L50.7350598,53.5839516 L51,57.653751 C49.0854582,57.8845837 45.9912351,58 41.7145418,58 C40.2099602,58 39.0484064,57.6015389 38.2298805,56.8032426 C37.4099602,56.0049464 37,54.9414674 37,53.6128057 L37,38 L42.5051793,38 Z" id="Fill-27" fill="#FEFEFE"></path>
                    <g id="Group-31" transform="translate(53.000000, 38.000000)">
                        <mask id="mask-8" fill="white">
                            <use xlink:href="#path-7"></use>
                        </mask>
                        <g id="Clip-30"></g>
                        <path d="M5.49542143,4.0644 L5.49542143,16.0230667 C6.04642143,16.0417333 6.94892143,16.0510667 8.20427857,16.0510667 C9.43792143,16.0510667 10.2739214,15.6457333 10.7122786,14.8324 C11.1492786,14.0204 11.3677786,12.4284 11.3677786,10.0577333 C11.3677786,7.68706667 11.1492786,6.09106667 10.7122786,5.2684 C10.2739214,4.44706667 9.43792143,4.0364 8.20427857,4.0364 L5.49542143,4.0644 Z M0.137421429,19.7204 L0.137421429,0.3964 C3.32942143,0.2084 6.01792143,0.1164 8.20427857,0.1164 C11.5116357,0.1164 13.8052071,0.815066667 15.0877071,2.2164 C16.3715643,3.6164 17.0121357,6.23106667 17.0121357,10.0577333 C17.0121357,13.8857333 16.3715643,16.4990667 15.0877071,17.8990667 C13.8052071,19.3004 11.5116357,20.0004 8.20427857,20.0004 C5.44792143,20.0004 2.75806429,19.9057333 0.137421429,19.7204 L0.137421429,19.7204 Z" id="Fill-29" fill="#FEFEFE" mask="url(#mask-8)"></path>
                    </g>
                    <path d="M86.7475432,53.8040906 L87,57.6839729 C85.1660147,57.8946576 81.9682282,58 77.4053048,58 C76.0775689,58 75.0103044,57.6114645 74.2061826,56.8357617 C73.4020609,56.0600588 73,55.0298926 73,53.7466311 L73,42.2520008 C73,40.9687393 73.4074039,39.9385731 74.2208759,39.1628702 C75.0330121,38.3871674 76.0949337,38 77.4053048,38 C81.9682282,38 85.1660147,38.1053424 87,38.3160271 L86.7475432,42.1945414 L79.4823967,42.1945414 C78.6769392,42.1945414 78.2748784,42.6063342 78.2748784,43.42992 L78.2748784,45.8445858 L85.7096651,45.8445858 L85.7096651,49.5520897 L78.2748784,49.5520897 L78.2748784,52.568712 C78.2748784,53.3922977 78.6769392,53.8040906 79.4823967,53.8040906 L86.7475432,53.8040906 Z" id="Fill-32" fill="#FEFEFE"></path>
                    <path d="M107,38 L107,56.0873525 C107,57.3624508 106.361802,58 105.085405,58 L102.463882,58 C101.933687,58 101.521312,57.879942 101.226759,57.6370662 C100.932206,57.3969503 100.626432,56.9857172 100.312242,56.4061271 L95.4801683,47.8268129 C94.9499727,46.8401297 94.5095457,45.7485683 94.156082,44.5507486 L93.9204395,44.5507486 C94.0761318,45.7485683 94.156082,46.8884289 94.156082,47.9717105 L94.156082,58 L89,58 L89,39.9126475 C89,38.6375492 89.6480168,38 90.9440505,38 L93.5361178,38 C94.0663134,38 94.4730772,38.120058 94.7592145,38.3629338 C95.0439492,38.6030497 95.3525286,39.0142828 95.6877581,39.5938729 L100.341697,47.8557925 C100.834022,48.7237977 101.34458,49.8360588 101.874776,51.1884358 L102.110418,51.1884358 C101.971558,49.8553785 101.89301,48.6865383 101.874776,47.6819154 L101.874776,38 L107,38 Z" id="Fill-34" fill="#FEFEFE"></path>
                </g>
                <g id="Icon" transform="translate(50.000000, 56.000000)" fill="#FEFEFE">
                    <path d="M43.0833882,23.2802074 C42.9704471,23.3294667 42.8193882,23.3956148 42.6528,23.423763 L38.6278588,24.1499852 C37.6269176,24.3188741 36.5963294,24.3202815 35.5600941,24.1021333 C34.7229176,23.9304296 33.9408,23.779837 33.2504471,23.6348741 L27.9775059,31.7359111 L27.1982118,32.923763 C27.1036235,33.0110222 27.0231529,33.1348741 26.9426824,33.2587259 L27.1233882,33.6710963 C27.6386824,34.7421333 27.5328,36.0383556 26.8565647,37.0474667 L21.6711529,44.5306519 C21.4311529,44.9036148 21.0655059,45.1963556 20.6518588,45.3765037 C19.9008,45.7044296 18.9845647,45.6565778 18.2744471,45.1625778 C17.1365647,44.4068 16.8683294,42.8727259 17.6419765,41.7763556 L18.8151529,40.0593185 L19.3106824,39.3513926 L22.3516235,34.9462074 L20.6617412,31.3967259 C20.1648,30.3622815 20.2255059,29.1744296 20.8269176,28.1976889 C20.8269176,28.1976889 22.4405647,25.4405778 23.9483294,22.9536889 C18.7276235,26.1653926 13.4137412,33.2573185 9.8928,35.9525037 C9.26032941,36.4521333 8.28903529,36.0721333 8.12527059,35.293837 C7.78644706,33.7006519 6.87162353,31.5093185 6.04009412,29.1026519 C5.81421176,28.4862074 6.14315294,27.8064296 6.77844706,27.6192444 C10.9403294,26.387763 20.3723294,19.5984296 23.5389176,18.4429481 C27.0062118,17.1551704 28.7949176,18.4753185 31.0833882,18.9974667 C32.2113882,19.219837 33.8843294,19.561837 36.4480941,20.0980593 C36.9379765,20.1965778 37.4349176,20.2036148 37.9360941,20.1191704 L41.9624471,19.3929481 C43.0382118,19.1916889 44.1210353,19.9263556 44.2650353,21.0691704 C44.4542118,22.0135407 43.9488,22.9030222 43.0833882,23.2802074 M15.7572706,41.9719852 L14.8071529,42.5645037 C14.6730353,42.6672444 14.5600941,42.7165037 14.4471529,42.765763 C13.3558588,43.2414667 12.0711529,42.8628741 11.4076235,41.8579852 C10.6932706,40.7405037 11.0095059,39.2176889 12.1699765,38.4886519 L18.3450353,34.5929481 L19.7906824,33.2939111 L20.5022118,34.8139111 L16.3135059,40.7911704 C16.0735059,41.1641333 15.8871529,41.5568 15.7572706,41.9719852 M28.1229176,13.6788741 C28.3798588,11.3876148 30.4495059,9.73813333 32.7478588,9.99287407 C35.0462118,10.2476148 36.7008,12.3122815 36.4452706,14.6035407 C36.1883294,16.8933926 34.1186824,18.5442815 31.8203294,18.2895407 C29.5233882,18.0333926 27.8673882,15.9701333 28.1229176,13.6788741 M42.3577412,6.83465185 C38.9511529,2.80805926 32.8650353,0.792651852 24.0979765,0.792651852 C15.3309176,0.792651852 9.23068235,2.80805926 5.79727059,6.83465185 C2.36244706,10.8640593 0.647152941,18.2740593 0.647152941,29.0674667 C0.647152941,39.8622815 2.36244706,47.2722815 5.79727059,51.3002815 C9.23068235,55.3282815 15.3309176,57.3422815 24.0979765,57.3422815 C32.8650353,57.3422815 38.9511529,55.3282815 42.3577412,51.3002815 C45.7643294,47.2722815 47.4669176,39.8622815 47.4669176,29.0674667 C47.4669176,18.2740593 45.7643294,10.8640593 42.3577412,6.83465185" id="Fill-4"></path>
                    <path d="M18.6269647,66.2659481 C25.2424941,70.0870593 31.9992,72.9243926 38.8956706,74.7779481 C39.7907294,75.0186148 40.7154353,74.4992815 40.9963765,73.6182444 L43.2904941,66.3841704 C43.6109647,65.3694296 42.9460235,64.3124667 41.8914353,64.1506148 C33.9784941,62.9303926 27.2189647,61.4061704 21.6100235,59.5765407 C20.7672,59.3006889 19.8523765,59.7158741 19.4923765,60.5237259 L17.9168471,64.0591333 C17.5568471,64.8655778 17.8589647,65.8240222 18.6269647,66.2659481" id="Fill-6"></path>
                </g>
            </g>
        </g>
    </g>
</svg>
