<?xml version="1.0" encoding="UTF-8"?>
<svg width="722px" height="757px" viewBox="0 0 722 757" version="1.1" xmlns="http://www.w3.org/2000/svg" xmlns:xlink="http://www.w3.org/1999/xlink">
    <!-- Generator: Sketch 55.2 (78181) - https://sketchapp.com -->
    <title>success</title>
    <desc>Created with Sketch.</desc>
    <defs>
        <linearGradient x1="50.003653%" y1="100.017289%" x2="50.003653%" y2="0.00485949042%" id="linearGradient-1">
            <stop stop-color="#808080" stop-opacity="0.25" offset="0%"></stop>
            <stop stop-color="#808080" stop-opacity="0.12" offset="54%"></stop>
            <stop stop-color="#808080" stop-opacity="0.1" offset="100%"></stop>
        </linearGradient>
        <linearGradient x1="49.9976804%" y1="100.008202%" x2="49.9976804%" y2="-0.00680853856%" id="linearGradient-2">
            <stop stop-color="#808080" stop-opacity="0.25" offset="0%"></stop>
            <stop stop-color="#808080" stop-opacity="0.12" offset="54%"></stop>
            <stop stop-color="#808080" stop-opacity="0.1" offset="100%"></stop>
        </linearGradient>
        <linearGradient x1="50%" y1="99.9982817%" x2="50%" y2="-0.00171833116%" id="linearGradient-3">
            <stop stop-color="#808080" stop-opacity="0.25" offset="0%"></stop>
            <stop stop-color="#808080" stop-opacity="0.12" offset="54%"></stop>
            <stop stop-color="#808080" stop-opacity="0.1" offset="100%"></stop>
        </linearGradient>
        <linearGradient x1="49.9948145%" y1="99.9950289%" x2="49.9948145%" y2="-0.00558638589%" id="linearGradient-4">
            <stop stop-color="#808080" stop-opacity="0.25" offset="0%"></stop>
            <stop stop-color="#808080" stop-opacity="0.12" offset="54%"></stop>
            <stop stop-color="#808080" stop-opacity="0.1" offset="100%"></stop>
        </linearGradient>
        <linearGradient x1="50.0067568%" y1="99.9710145%" x2="50.0067568%" y2="-0.0289855072%" id="linearGradient-5">
            <stop stop-color="#808080" stop-opacity="0.25" offset="0%"></stop>
            <stop stop-color="#808080" stop-opacity="0.12" offset="54%"></stop>
            <stop stop-color="#808080" stop-opacity="0.1" offset="100%"></stop>
        </linearGradient>
        <linearGradient x1="49.9899817%" y1="100.001834%" x2="49.9899817%" y2="0.00626914661%" id="linearGradient-6">
            <stop stop-color="#808080" stop-opacity="0.25" offset="0%"></stop>
            <stop stop-color="#808080" stop-opacity="0.12" offset="54%"></stop>
            <stop stop-color="#808080" stop-opacity="0.1" offset="100%"></stop>
        </linearGradient>
        <linearGradient x1="50.0059346%" y1="100.000373%" x2="50.0059346%" y2="-0.00950424519%" id="linearGradient-7">
            <stop stop-color="#808080" stop-opacity="0.25" offset="0%"></stop>
            <stop stop-color="#808080" stop-opacity="0.12" offset="54%"></stop>
            <stop stop-color="#808080" stop-opacity="0.1" offset="100%"></stop>
        </linearGradient>
        <linearGradient x1="50%" y1="100%" x2="50%" y2="-0.00555926173%" id="linearGradient-8">
            <stop stop-color="#808080" stop-opacity="0.25" offset="0%"></stop>
            <stop stop-color="#808080" stop-opacity="0.12" offset="54%"></stop>
            <stop stop-color="#808080" stop-opacity="0.1" offset="100%"></stop>
        </linearGradient>
        <linearGradient x1="49.9970588%" y1="100.02659%" x2="49.9970588%" y2="0.0244947163%" id="linearGradient-9">
            <stop stop-color="#808080" stop-opacity="0.25" offset="0%"></stop>
            <stop stop-color="#808080" stop-opacity="0.12" offset="54%"></stop>
            <stop stop-color="#808080" stop-opacity="0.1" offset="100%"></stop>
        </linearGradient>
    </defs>
    <g id="Page-1" stroke="none" stroke-width="1" fill="none" fill-rule="evenodd">
        <g id="success" transform="translate(1.000000, 0.000000)">
            <path d="M360,692.57 C524.028571,692.57 657,559.598571 657,395.57 C657,231.541429 524.028571,98.57 360,98.57 C195.971429,98.57 63,231.541429 63,395.57 C63,559.598571 195.971429,692.57 360,692.57 Z" id="Oval" stroke="#88A544" stroke-width="2" stroke-dasharray="12"></path>
            <path d="M360,755.57 C558.82251,755.57 720,594.39251 720,395.57 C720,196.74749 558.82251,35.57 360,35.57 C161.17749,35.57 0,196.74749 0,395.57 C0,594.39251 161.17749,755.57 360,755.57 Z" id="Oval" stroke="#88A544" stroke-width="2" stroke-dasharray="12"></path>
            <path d="M600.940002,510.26 C600.950233,468.346896 569.062232,433.31096 527.333225,429.386879 C485.604219,425.462797 447.743637,453.939766 439.94,495.12 L190.35,488.35 L193.09,531.23 C193.09,531.23 157.5,613.35 344.55,635.23 L344.55,718.23 L560.79,718.23 L560.79,580.23 C585.637876,565.680315 600.916365,539.054265 600.940002,510.26 Z" id="Path" fill="url(#linearGradient-1)" fill-rule="nonzero"></path>
            <path d="M201.66,533.03 C201.66,533.03 167.58,611.67 346.71,632.65 L346.71,712.17 L553.8,712.17 L553.8,501.58 L199,491.96 L201.66,533.03 Z" id="Path" fill="#BE7C5E" fill-rule="nonzero"></path>
            <path d="M305.16,204.86 L305.16,204.86 C293.918972,222.598202 270.462874,227.928321 252.66,216.79 L141.47,143.52 C123.731798,132.278972 118.401679,108.822874 129.54,91.02 L129.54,91.02 C140.779388,73.3061486 164.205466,67.9787923 182,79.09 L293.19,152.36 C310.942309,163.587877 316.29093,187.046745 305.16,204.86 Z" id="Path" fill="url(#linearGradient-2)" fill-rule="nonzero"></path>
            <path d="M299,200.86 L299,200.86 C288.551187,217.347979 266.748475,222.302735 250.2,211.95 L146.81,143.79 C130.322021,133.341187 125.367265,111.538475 135.72,94.99 L135.72,94.99 C146.168813,78.5020206 167.971525,73.5472651 184.52,83.9 L287.89,152.02 C304.409417,162.463846 309.376197,184.298008 299,200.86 Z" id="Path" fill="#BE7C5E" fill-rule="nonzero"></path>
            <circle id="Oval" fill="#BE7C5E" fill-rule="nonzero" cx="514.49" cy="512.94" r="77.77"></circle>
            <rect id="Rectangle" fill="url(#linearGradient-3)" fill-rule="nonzero" x="190.32" y="0" width="322.42" height="581.96" rx="12.25"></rect>
            <rect id="Rectangle" fill="#FFFFFF" fill-rule="nonzero" x="194.67" y="7.87" width="313.7" height="566.24" rx="13.64"></rect>
            <path d="M430.33,22.0699958 C428.454869,34.4780482 417.808881,43.663238 405.26,43.7 L296.92,43.7 C284.374914,43.6583135 273.734551,34.4743134 271.86,22.0699958 L214.46,22.0699958 C211.299539,22.0699958 208.267615,23.3209748 206.031893,25.5548207 C203.796171,27.7886667 202.539996,30.8195382 202.539996,33.98 L202.539996,547.98 C202.539996,551.140461 203.790975,554.172385 206.024821,556.408107 C208.258667,558.643829 211.289538,559.900004 214.45,559.900004 L488.59,559.900004 C491.750461,559.900004 494.782385,558.649025 497.018107,556.415179 C499.253829,554.181333 500.510004,551.150462 500.510004,547.99 L500.510004,33.99 C500.510004,30.8295393 499.259025,27.7976146 497.025179,25.561893 C494.791333,23.3261715 491.760462,22.0699958 488.6,22.0699958 L430.33,22.0699958 Z" id="Path" fill="#B2223C" fill-rule="nonzero"></path>
            <rect id="Rectangle" fill="#DBDBDB" fill-rule="nonzero" x="317.01" y="28.84" width="69.91" height="4.37" rx="2"></rect>
            <circle id="Oval" fill="#DBDBDB" fill-rule="nonzero" cx="401.77" cy="30.59" r="2.62"></circle>
            <path d="M564.76,526.66 L564.76,526.66 C542.19,531.88 526.7,517.16 521.48,494.6 L469.62,302.03 C464.460006,279.382465 478.55437,256.818081 501.17,251.52 L501.17,251.52 C523.817535,246.360006 546.381919,260.45437 551.68,283.07 L594,480.61 C599.22,503.18 587.32,521.44 564.76,526.66 Z" id="Path" fill="url(#linearGradient-4)" fill-rule="nonzero"></path>
            <rect id="Rectangle" fill="#BE7C5E" fill-rule="nonzero" transform="translate(535.223373, 398.947222) rotate(-13.010000) translate(-535.223373, -398.947222) " x="499.833373" y="257.642222" width="70.78" height="282.61" rx="35.39"></rect>
            <rect id="Rectangle" fill="url(#linearGradient-5)" fill-rule="nonzero" x="295.93" y="686.15" width="296" height="69"></rect>
            <rect id="Rectangle" fill="#88A544" fill-rule="nonzero" x="303.93" y="694.15" width="280" height="54"></rect>
            <path d="M262,411.44 L262,411.44 C250.895531,428.967347 227.719878,434.23515 210.13,423.23 L135.56,374.98 C118.032653,363.875531 112.76485,340.699878 123.77,323.11 L123.77,323.11 C134.874469,305.582653 158.050122,300.31485 175.64,311.32 L250.21,359.57 C267.737347,370.674469 273.00515,393.850122 262,411.44 L262,411.44 Z" id="Path" fill="url(#linearGradient-6)" fill-rule="nonzero"></path>
            <path d="M243.28,513.57 L243.28,513.57 C232.076563,531.258145 208.689908,536.575325 190.94,525.47 L144.75,491.79 C127.061855,480.586563 121.744675,457.199908 132.85,439.45 L132.85,439.45 C144.053437,421.761855 167.440092,416.444675 185.19,427.55 L231.38,461.24 C249.062053,472.443031 254.378541,495.822175 243.28,513.57 L243.28,513.57 Z" id="Path" fill="url(#linearGradient-7)" fill-rule="nonzero"></path>
            <g id="Group" opacity="0.5" transform="translate(261.000000, 201.000000)" fill="url(#linearGradient-8)" fill-rule="nonzero">
                <circle id="Oval" cx="90.52" cy="89.99" r="89.94"></circle>
            </g>
            <circle id="Oval" fill="#88A544" fill-rule="nonzero" cx="351.52" cy="290.99" r="84.65"></circle>
            <polygon id="Path" fill="#FFFFFF" fill-rule="nonzero" points="314.78 279.69 346.52 308.79 391.49 242.66 407.37 255.89 346.52 335.25 301.55 284.99"></polygon>
            <path d="M239.55,511.06 L239.55,511.06 C229.101187,527.547979 207.298475,532.502735 190.75,522.15 L147.67,490.79 C131.182021,480.341187 126.227265,458.538475 136.58,441.99 L136.58,441.99 C147.028813,425.502021 168.831525,420.547265 185.38,430.9 L228.45,462.32 C244.904997,472.76306 249.860232,494.521453 239.55,511.06 L239.55,511.06 Z" id="Path" fill="#BE7C5E" fill-rule="nonzero"></path>
            <path d="M257.9,408.79 L257.9,408.79 C247.451187,425.277979 225.648475,430.232735 209.1,419.88 L138.94,374.48 C122.452021,364.031187 117.497265,342.228475 127.85,325.68 L127.85,325.68 C138.298813,309.192021 160.101525,304.237265 176.65,314.59 L246.81,359.99 C263.297979,370.438813 268.252735,392.241525 257.9,408.79 Z" id="Path" fill="#BE7C5E" fill-rule="nonzero"></path>
            <path d="M281.28,309.79 L281.28,309.79 C270.120788,327.394197 246.840625,332.683722 229.17,321.63 L134.67,260.1 C117.065803,248.940788 111.776278,225.660625 122.83,207.99 L122.83,207.99 C133.989212,190.385803 157.269375,185.096278 174.94,196.15 L269.44,257.68 C287.044197,268.839212 292.333722,292.119375 281.28,309.79 Z" id="Path" fill="url(#linearGradient-9)" fill-rule="nonzero"></path>
            <path d="M276.26,306.59 L276.26,306.59 C265.811187,323.077979 244.008475,328.032735 227.46,317.68 L138.95,260.05 C122.462021,249.601187 117.507265,227.798475 127.86,211.25 L127.86,211.25 C138.308813,194.762021 160.111525,189.807265 176.66,200.16 L265.16,257.79 C281.651505,268.235527 286.610886,290.03893 276.26,306.59 Z" id="Path" fill="#BE7C5E" fill-rule="nonzero"></path>
        </g>
    </g>
</svg>